{"glyphs":{"0":{"ha":737,"x_min":35,"x_max":721,"o":"m 571 872 l 578 872 q 648 839 614 872 q 701 750 682 806 q 721 633 721 694 q 703 496 721 572 q 656 351 686 420 q 585 215 627 281 q 498 106 543 149 q 282 -1 393 -1 q 152 36 208 -1 q 65 141 96 73 q 35 297 35 209 q 98 588 35 449 q 266 814 161 728 q 481 900 370 900 q 571 872 534 900 m 510 840 l 522 847 l 519 850 q 430 806 476 849 q 348 695 385 763 q 288 542 311 627 q 265 380 265 456 q 284 268 265 326 q 333 171 304 210 q 390 132 363 132 q 434 160 411 132 q 476 240 457 189 q 510 344 496 290 q 532 451 524 398 q 539 547 539 504 q 517 678 539 616 q 460 770 495 740 q 453 779 453 774 q 510 840 453 795 z "},"1":{"ha":521,"x_min":32,"x_max":510,"o":"m 231 615 l 244 648 q 212 636 234 646 q 153 616 165 616 q 133 630 140 616 q 125 664 125 643 q 134 706 125 682 q 153 739 142 730 q 307 817 170 753 l 328 825 q 347 835 334 829 q 463 879 437 879 q 497 866 485 879 q 510 829 510 853 q 463 650 510 779 q 445 601 452 618 q 427 547 439 583 q 419 521 423 534 q 385 401 395 441 q 375 369 383 397 q 364 330 368 342 q 357 304 361 317 q 281 82 311 131 q 257 54 271 66 q 207 20 228 32 q 166 2 185 7 q 122 -3 146 -3 q 59 18 87 -3 q 32 65 32 39 q 35 81 32 70 q 231 615 115 319 z "},"2":{"ha":623,"x_min":36,"x_max":590,"o":"m 224 342 l 235 355 q 300 459 281 425 q 330 530 319 493 q 347 637 347 582 q 333 723 347 694 q 282 770 319 751 q 235 596 235 701 q 248 513 235 555 q 253 492 253 497 q 232 472 253 472 q 180 488 213 472 q 131 521 148 504 q 100 574 112 541 q 87 643 87 606 q 109 741 87 694 q 169 823 130 788 q 261 877 208 857 q 374 896 314 896 q 483 870 433 896 q 561 798 532 844 q 590 699 590 752 q 575 613 590 659 q 527 512 559 568 q 442 389 494 456 q 322 244 391 321 l 309 228 l 297 215 q 375 207 326 207 q 474 212 425 207 q 553 227 524 218 q 578 232 572 232 q 585 228 585 232 q 552 150 585 203 q 485 62 520 97 q 397 12 448 28 q 271 -4 346 -4 q 105 22 174 -4 q 36 86 36 49 q 106 189 36 112 q 196 301 155 245 q 202 309 199 305 q 207 317 205 313 q 214 328 210 321 l 224 342 z "},"3":{"ha":737,"x_min":35,"x_max":711,"o":"m 248 87 l 252 87 q 308 108 274 87 q 374 163 341 129 q 440 255 416 206 q 465 347 465 304 q 367 460 465 440 q 340 468 348 463 q 332 486 332 474 q 364 528 332 500 q 440 621 413 570 q 468 722 468 671 q 446 777 468 777 q 400 748 427 777 q 348 674 373 719 q 311 586 323 629 q 303 567 307 571 q 292 562 299 562 q 243 593 272 562 q 201 682 201 637 q 244 786 201 734 q 354 869 286 838 q 493 901 422 901 q 598 879 551 901 q 672 817 646 857 q 699 728 699 777 q 621 583 699 637 q 519 530 580 555 l 519 528 q 663 485 615 522 q 711 380 711 448 q 697 312 711 349 q 655 234 682 274 q 591 155 629 195 q 414 21 510 69 q 231 -28 319 -28 q 91 26 146 -28 q 35 160 35 79 q 72 270 35 215 q 170 360 110 325 q 289 395 229 395 q 314 376 314 395 q 293 351 314 369 q 289 347 291 349 q 283 342 286 345 q 242 266 257 311 q 228 171 228 220 q 248 87 228 122 z "},"4":{"ha":681,"x_min":45,"x_max":661,"o":"m 318 328 l 272 325 q 149 318 172 318 q 84 322 107 318 q 53 338 60 327 q 45 371 45 349 q 55 419 45 388 q 93 522 64 450 q 127 611 116 578 q 184 746 163 705 q 196 767 191 759 q 208 787 201 776 q 262 843 231 823 q 400 892 335 892 q 452 867 452 892 q 322 650 452 833 q 212 484 259 560 l 371 492 q 416 584 388 548 q 487 638 444 621 q 586 656 530 656 q 627 649 615 656 q 639 628 639 643 q 629 581 639 614 q 602 503 618 548 l 596 489 q 614 491 610 490 q 625 492 618 491 q 636 493 631 492 q 646 493 640 493 q 661 485 661 493 q 660 481 661 482 q 626 422 648 454 q 586 372 604 391 q 549 349 572 355 q 493 161 534 300 q 490 145 492 155 q 488 131 488 135 q 461 60 477 75 q 367 13 408 28 q 288 -3 326 -3 q 238 11 260 -3 q 216 43 216 24 q 231 107 216 60 q 272 221 245 153 q 318 328 299 288 z "},"5":{"ha":681,"x_min":37,"x_max":656,"o":"m 349 708 l 298 619 l 301 616 q 387 646 349 637 q 460 654 424 654 q 604 611 553 654 q 656 488 656 567 q 645 405 656 448 q 611 316 633 361 q 558 229 589 272 q 482 140 528 186 q 349 35 416 73 q 229 -3 282 -3 q 153 13 191 -3 q 87 56 116 28 q 37 197 37 106 q 107 389 37 319 q 188 447 142 424 q 269 469 235 469 q 306 449 306 469 l 306 447 q 262 388 277 412 q 232 323 248 364 q 205 165 205 256 q 233 96 205 96 q 311 138 269 96 q 391 257 357 186 q 425 378 425 328 q 396 480 425 447 q 304 513 368 513 q 210 500 269 513 q 175 494 177 494 q 142 508 155 494 q 129 542 129 521 q 147 615 129 559 q 208 785 176 709 l 212 794 q 224 819 216 801 q 259 880 243 867 q 314 892 274 892 q 507 889 442 892 q 533 888 522 889 l 542 888 q 611 879 593 885 q 629 860 629 873 q 614 825 629 848 q 576 781 599 802 q 498 722 538 743 q 418 701 457 701 q 364 705 401 701 q 353 708 353 708 l 349 708 z "},"6":{"ha":708,"x_min":25,"x_max":700,"o":"m 339 526 q 290 498 315 526 q 249 428 265 471 q 233 343 233 385 q 255 239 233 288 q 314 162 276 191 q 392 134 351 134 q 427 146 414 134 q 462 227 448 171 q 476 347 476 283 q 459 444 476 404 q 413 505 443 484 q 339 526 382 526 m 415 648 l 374 600 l 376 597 q 532 657 467 657 q 619 633 581 657 q 679 569 657 610 q 700 475 700 528 q 679 343 700 411 q 619 211 658 275 q 529 98 581 148 q 415 27 483 54 q 282 1 347 1 q 91 55 157 1 q 25 210 25 108 q 83 433 25 300 q 264 753 142 566 q 343 863 312 829 q 372 886 359 880 q 415 897 386 893 q 518 905 466 905 q 597 863 597 905 q 547 796 597 841 q 453 693 518 772 l 415 648 z "},"7":{"ha":648,"x_min":39,"x_max":618,"o":"m 268 494 l 393 755 q 378 757 387 757 q 237 721 341 757 q 154 694 184 702 q 104 686 125 686 q 66 715 66 686 q 86 781 66 740 q 132 854 106 822 q 165 884 150 877 q 210 892 180 892 q 231 890 222 892 l 383 888 q 596 859 537 884 q 618 827 618 848 q 593 755 618 808 l 472 496 l 485 496 l 518 496 l 539 496 q 574 488 574 496 q 558 445 574 473 q 526 401 543 418 q 400 340 486 359 l 309 117 q 302 100 306 109 q 281 60 292 73 q 202 17 250 33 q 106 0 153 0 q 57 12 75 0 q 39 41 39 23 q 83 142 39 62 q 87 148 85 145 q 90 154 88 150 l 179 315 l 171 315 q 147 314 163 314 q 89 358 89 314 q 100 401 89 372 q 146 481 127 464 q 201 490 155 490 q 268 494 231 490 z "},"8":{"ha":681,"x_min":39,"x_max":660,"o":"m 212 389 l 264 424 q 161 542 193 488 q 129 653 129 596 q 151 744 129 701 q 212 821 172 787 q 303 873 251 854 q 411 892 355 892 q 497 863 497 892 q 476 851 497 853 q 408 808 434 844 q 374 743 389 783 q 359 672 359 703 q 415 561 359 602 q 475 645 453 601 q 497 728 497 689 q 476 789 497 765 q 471 798 471 794 q 494 823 471 808 q 568 847 530 847 q 615 834 593 847 q 648 799 637 822 q 660 747 660 777 q 623 630 660 686 q 493 497 585 574 q 574 393 549 442 q 600 293 600 343 q 570 182 600 237 q 490 83 541 127 q 377 13 439 39 q 254 -14 315 -14 q 98 35 158 -14 q 39 160 39 83 q 75 272 39 224 q 212 389 111 319 m 342 364 q 275 273 299 327 q 252 161 252 220 q 262 92 252 117 q 293 66 273 66 q 312 72 300 66 q 329 83 323 78 q 380 161 358 113 q 403 243 403 209 q 387 317 403 286 q 342 364 370 349 z "},"9":{"ha":681,"x_min":31,"x_max":664,"o":"m 389 460 q 430 590 416 525 q 444 713 444 654 q 428 795 444 764 q 386 825 412 825 q 358 815 375 825 q 328 791 341 806 q 271 705 292 754 q 250 608 250 655 q 289 510 250 551 q 389 460 327 469 m 374 422 l 374 419 l 371 422 q 274 369 313 384 q 192 354 235 354 q 76 404 121 354 q 31 533 31 454 q 86 706 31 622 q 231 844 142 791 q 411 896 321 897 q 582 825 510 896 q 664 602 664 743 q 613 392 664 500 q 479 195 562 284 q 294 51 395 105 q 97 -4 192 -4 q 66 1 75 -4 q 57 18 57 5 q 64 32 57 25 q 86 45 71 38 q 197 125 142 69 q 298 258 252 180 q 374 422 345 336 z "}," ":{"ha":369,"x_min":0,"x_max":0,"o":""},"!":{"ha":507,"x_min":39,"x_max":488,"o":"m 146 250 q 100 296 100 250 q 107 340 100 307 q 227 757 163 582 q 262 823 241 800 q 340 870 288 850 q 441 889 392 889 q 488 857 488 889 q 396 590 488 821 q 286 335 301 356 q 245 296 273 315 q 191 263 218 276 q 146 250 163 250 m 97 -3 q 55 12 71 -3 q 39 50 39 26 q 83 161 39 92 q 100 182 92 174 q 151 215 120 202 q 211 228 182 228 q 254 216 238 228 q 271 186 271 205 q 258 128 271 163 q 229 65 246 93 q 197 35 220 50 q 97 -3 142 -3 z "},"\"":{"ha":493,"x_min":182,"x_max":587,"o":"m 182 642 l 187 832 l 222 994 l 361 994 l 328 832 l 256 642 l 182 642 m 406 642 l 414 832 l 449 994 l 587 994 l 553 832 l 479 642 l 406 642 z "},"#":{"ha":928,"x_min":53,"x_max":873,"o":"m 53 690 l 262 690 l 319 950 l 447 950 l 390 690 l 631 690 l 686 950 l 815 950 l 760 690 l 873 690 l 873 561 l 734 561 l 692 355 l 873 355 l 873 228 l 668 228 l 611 -29 l 484 -29 l 539 228 l 296 228 l 243 -29 l 114 -29 l 168 228 l 53 228 l 53 355 l 195 355 l 237 561 l 53 561 l 53 690 m 366 561 l 323 357 l 564 357 l 607 561 l 366 561 z "},"$":{"ha":753,"x_min":36,"x_max":732,"o":"m 539 939 l 595 921 q 650 975 612 975 q 664 960 664 975 q 647 905 664 940 q 646 901 646 901 q 644 897 646 901 q 732 782 732 850 q 718 722 732 753 q 682 671 704 692 q 642 650 661 650 q 578 713 608 650 l 515 528 q 579 467 560 487 q 618 418 597 448 q 667 269 667 353 q 623 126 667 193 q 504 19 580 60 q 330 -32 427 -22 l 328 -40 q 277 -158 285 -150 q 268 -161 275 -161 q 258 -146 258 -161 q 264 -115 258 -140 q 283 -37 269 -90 l 286 -29 l 216 -16 q 164 -147 200 -75 q 153 -160 159 -160 q 143 -154 147 -160 q 139 -143 139 -148 q 164 -37 139 -127 q 172 -5 169 -15 l 175 3 q 36 104 36 64 q 52 144 36 118 q 85 187 67 170 q 117 215 98 201 q 151 238 136 230 q 175 245 165 245 q 221 214 195 245 q 235 199 228 205 l 297 390 q 220 451 241 432 q 168 505 199 471 q 109 657 109 575 q 161 811 109 735 q 220 876 188 850 q 298 918 253 901 q 444 945 374 945 q 462 944 454 945 q 481 943 471 944 q 501 964 486 955 q 533 974 517 974 q 543 960 543 974 q 539 939 543 956 m 392 661 l 449 833 q 425 836 426 836 q 361 747 361 836 q 392 661 361 702 m 427 262 l 382 122 q 425 113 411 113 q 453 163 453 113 q 427 262 453 207 m 497 812 l 428 614 l 469 571 l 543 768 l 539 774 q 497 812 512 802 m 343 354 l 279 170 l 334 138 l 387 311 l 343 354 z "},"%":{"ha":1186,"x_min":33,"x_max":1171,"o":"m 400 960 q 411 962 406 962 q 452 938 432 962 q 484 875 471 913 q 497 799 497 837 q 470 653 497 733 q 399 507 442 573 q 307 407 355 441 q 196 372 257 372 q 80 428 127 372 q 33 567 33 484 q 51 690 33 626 q 100 810 68 753 q 168 904 131 867 q 254 961 206 940 q 349 982 302 982 q 400 960 378 982 m 354 940 l 359 943 l 357 946 q 294 908 323 939 q 221 779 252 862 q 191 628 191 696 q 203 552 191 591 q 235 487 216 513 q 272 461 254 461 q 304 483 287 461 q 335 542 321 505 q 378 742 378 652 q 364 829 378 790 q 328 889 351 869 q 319 901 319 897 q 349 935 319 910 q 351 937 350 936 q 354 940 353 939 m 1072 431 q 1084 432 1078 432 q 1125 409 1105 432 q 1158 349 1145 386 q 1171 272 1171 312 q 1159 180 1171 232 q 1128 81 1147 129 q 1081 -11 1108 33 q 1026 -85 1055 -55 q 880 -157 958 -157 q 758 -104 804 -157 q 711 35 711 -51 q 737 191 711 114 q 806 326 762 267 q 904 418 849 384 q 1018 452 959 452 q 1072 431 1063 452 m 1038 414 l 1038 411 l 1035 414 q 997 401 1010 408 q 968 374 984 393 q 901 260 929 329 q 865 87 865 170 q 911 -43 865 14 q 947 -72 934 -72 q 979 -48 960 -72 q 1011 12 997 -24 q 1041 113 1030 61 q 1053 203 1053 164 q 989 371 1053 321 q 1038 414 1027 404 m 481 401 l 493 421 q 573 545 519 460 q 682 705 628 629 q 758 813 735 782 q 800 869 781 845 q 892 961 854 937 q 942 979 917 979 q 979 968 962 979 q 1006 936 996 956 q 1017 896 1017 916 q 1006 848 1017 873 q 974 787 996 823 q 904 684 952 752 q 891 664 899 675 q 882 652 883 653 l 859 616 l 836 586 q 446 65 635 298 q 378 -11 411 21 q 293 -58 332 -58 q 256 -44 271 -58 q 240 -11 240 -31 q 424 309 240 23 q 437 330 431 319 q 453 357 444 342 l 481 401 z "},"&":{"ha":796,"x_min":36,"x_max":775,"o":"m 410 571 q 463 634 439 597 q 498 712 486 671 q 510 798 510 753 q 488 847 510 847 q 443 821 465 847 q 408 753 421 794 q 395 664 395 711 q 398 618 395 639 q 410 571 401 598 m 292 315 q 258 262 268 286 q 249 208 249 239 q 273 145 249 171 q 335 119 298 119 q 401 140 366 119 q 385 163 390 153 q 359 201 372 180 q 311 282 346 222 q 300 301 304 295 q 292 315 296 308 m 458 75 l 424 54 q 305 -1 351 15 q 210 -17 259 -17 q 85 28 134 -17 q 36 142 36 73 q 78 260 36 199 q 216 404 120 321 q 236 420 230 416 q 248 431 241 425 q 229 579 229 517 q 270 754 229 672 q 378 886 311 837 q 521 935 446 935 q 621 916 577 935 q 687 861 664 897 q 710 779 710 825 q 696 711 710 745 q 657 648 682 677 q 582 570 614 599 q 450 463 549 541 q 490 392 466 425 q 524 349 505 371 q 604 269 555 311 q 627 283 615 273 q 635 289 632 289 q 646 282 641 289 q 648 275 648 277 q 642 262 648 271 q 632 248 635 256 q 737 178 690 203 q 775 147 775 160 q 761 102 775 130 q 724 50 746 73 q 670 13 701 27 q 611 -1 639 -1 q 558 6 581 -1 q 511 30 534 14 q 458 75 488 45 z "},"'":{"ha":265,"x_min":179,"x_max":361,"o":"m 179 642 l 187 828 l 222 994 l 361 994 l 326 828 l 254 642 l 179 642 z "},"(":{"ha":478,"x_min":32,"x_max":468,"o":"m 334 694 q 298 621 311 651 q 272 539 286 591 q 245 329 245 435 q 387 78 245 126 q 410 62 410 69 q 390 31 410 46 q 338 6 371 16 q 271 -3 305 -3 q 189 12 230 -3 q 122 50 147 26 q 56 156 80 92 q 32 293 32 220 q 56 468 32 378 q 124 638 80 557 q 230 790 168 720 q 363 907 292 859 q 431 937 409 937 q 457 932 446 937 q 468 920 468 928 q 432 857 468 909 q 354 732 390 793 q 334 694 349 723 z "},")":{"ha":449,"x_min":32,"x_max":428,"o":"m 147 187 q 245 513 245 353 q 229 634 245 578 q 181 731 212 690 q 104 798 150 772 q 81 814 87 807 q 75 831 75 821 q 110 889 75 852 q 161 926 133 912 q 214 940 189 940 q 330 882 273 940 q 428 590 428 783 q 402 407 428 493 q 323 241 377 321 q 227 119 283 180 q 121 24 170 59 q 85 3 104 11 q 54 -4 66 -4 q 38 2 44 -4 q 32 18 32 8 q 62 71 32 39 q 147 187 105 121 z "},"*":{"ha":463,"x_min":71,"x_max":449,"o":"m 187 768 l 180 775 l 175 782 q 113 869 113 850 q 144 909 113 890 q 227 945 201 945 q 263 923 245 945 q 294 861 281 901 l 310 875 q 395 937 370 937 q 425 925 412 937 q 437 896 437 913 q 423 860 437 880 q 367 799 409 841 l 358 790 l 351 782 q 416 725 377 754 q 441 705 433 713 q 449 692 449 698 q 397 665 449 665 q 347 672 369 665 q 279 704 324 680 l 271 708 l 262 714 q 204 690 222 696 q 161 685 186 685 q 100 701 130 685 q 71 732 71 716 q 77 746 71 741 q 93 751 84 751 l 100 751 l 107 751 q 187 768 151 751 z "},"+":{"ha":926,"x_min":85,"x_max":842,"o":"m 85 532 l 390 532 l 390 836 l 534 836 l 534 532 l 842 532 l 842 386 l 534 386 l 534 82 l 390 82 l 390 386 l 85 386 l 85 532 z "},",":{"ha":304,"x_min":32,"x_max":288,"o":"m 72 -121 q 32 -75 32 -121 q 63 50 32 -27 q 131 170 95 127 q 169 197 148 189 q 225 205 189 205 q 288 168 288 205 l 288 165 q 260 74 283 121 q 213 -17 233 15 q 174 -69 194 -49 q 123 -107 151 -94 q 72 -121 96 -121 z "},"-":{"ha":347,"x_min":35,"x_max":332,"o":"m 115 211 q 57 231 79 211 q 35 283 35 252 q 46 334 35 303 q 69 376 57 365 q 200 406 100 406 q 301 393 271 406 q 332 349 332 380 q 313 286 332 313 q 249 244 295 262 q 115 211 159 211 z "},".":{"ha":275,"x_min":31,"x_max":258,"o":"m 92 -1 q 31 40 31 -1 q 37 79 31 53 q 52 122 44 106 q 89 183 72 169 q 148 214 109 201 q 216 228 186 228 q 258 179 258 228 q 232 66 258 133 q 216 38 225 47 q 186 21 207 29 q 92 -1 128 -1 z "},"/":{"ha":652,"x_min":32,"x_max":629,"o":"m 143 257 l 319 692 q 396 851 357 785 q 474 949 435 916 q 549 982 512 982 q 607 957 585 982 q 629 892 629 931 q 599 786 629 865 q 529 632 568 707 l 382 342 q 292 173 339 258 q 206 23 245 88 q 153 -56 166 -41 q 119 -80 138 -71 q 81 -89 100 -89 q 46 -75 61 -89 q 32 -43 32 -62 q 131 227 32 -10 q 134 235 132 232 q 136 243 136 239 l 143 257 z "},":":{"ha":406,"x_min":29,"x_max":382,"o":"m 176 220 q 237 205 214 219 q 261 170 261 191 q 236 90 261 130 q 173 23 212 50 q 97 -4 134 -4 q 48 12 68 -4 q 29 54 29 28 q 41 110 29 77 q 71 170 54 144 q 119 208 90 198 q 175 220 149 220 l 176 220 m 220 392 q 170 412 191 392 q 149 460 149 433 q 165 525 149 486 q 201 582 182 564 q 254 614 221 602 q 318 627 288 627 q 382 590 382 627 l 382 589 q 355 498 380 551 q 314 429 332 444 q 270 404 298 415 q 220 392 241 392 z "},";":{"ha":406,"x_min":21,"x_max":401,"o":"m 87 -140 q 39 -121 57 -140 q 21 -72 21 -102 q 43 25 21 -33 q 104 147 66 84 q 134 184 112 161 q 212 218 169 218 q 248 210 232 218 q 273 185 264 201 q 282 150 282 169 q 255 53 282 118 q 193 -64 228 -12 q 136 -123 165 -104 q 87 -140 111 -140 m 220 421 q 172 464 172 421 q 186 517 172 484 q 218 581 199 550 q 221 585 219 582 q 228 595 224 589 q 272 618 243 608 q 328 628 301 628 q 401 558 401 628 q 384 490 401 522 q 340 449 366 458 q 272 429 308 436 q 220 421 237 421 z "},"<":{"ha":926,"x_min":86,"x_max":840,"o":"m 840 78 l 86 393 l 86 524 l 840 839 l 840 682 l 285 458 l 840 236 l 840 78 z "},"=":{"ha":926,"x_min":86,"x_max":840,"o":"m 86 694 l 840 694 l 840 549 l 86 549 l 86 694 m 86 371 l 840 371 l 840 225 l 86 225 l 86 371 z "},">":{"ha":926,"x_min":86,"x_max":840,"o":"m 86 839 l 840 525 l 840 393 l 86 78 l 86 236 l 642 458 l 86 682 l 86 839 z "},"?":{"ha":564,"x_min":35,"x_max":546,"o":"m 237 836 q 193 771 208 806 q 158 610 158 690 q 170 549 158 582 q 172 536 172 542 q 155 524 172 524 q 98 552 126 524 q 52 625 70 581 q 35 714 35 669 q 102 872 35 810 q 272 935 169 935 q 408 907 345 935 q 509 832 471 879 q 546 730 546 785 q 481 555 546 644 q 429 494 453 519 q 354 431 404 470 l 354 428 q 402 428 380 428 q 449 428 424 428 q 484 429 474 429 q 492 430 488 430 q 498 431 495 431 q 522 412 522 431 q 506 373 522 401 q 468 325 490 345 q 216 252 394 252 q 86 301 86 252 q 94 322 86 310 q 126 367 101 335 q 205 472 166 415 q 304 733 304 621 q 289 802 304 778 q 237 836 273 827 m 126 -7 q 82 11 101 -7 q 64 54 64 29 q 80 120 64 80 q 113 175 96 159 q 175 211 136 198 q 257 224 214 224 q 319 180 319 224 q 314 143 319 165 q 279 50 296 67 q 175 3 255 28 q 126 -7 145 -7 z "},"@":{"ha":1410,"x_min":79,"x_max":1362,"o":"m 1240 12 l 1362 12 q 1215 -155 1320 -77 q 1015 -259 1124 -226 q 764 -292 905 -292 q 478 -250 605 -292 q 262 -129 351 -208 q 126 64 173 -50 q 79 318 79 178 q 116 556 79 441 q 222 765 153 671 q 383 916 292 859 q 492 968 431 946 q 619 1001 553 990 q 750 1013 685 1013 q 1048 944 916 1013 q 1256 755 1181 876 q 1331 484 1331 633 q 1273 248 1331 361 q 1120 66 1215 136 q 922 -3 1025 -3 q 798 71 814 -3 q 791 111 793 87 q 690 27 745 58 q 583 -3 636 -3 q 459 38 515 -3 q 370 148 403 78 q 338 302 338 217 q 388 510 338 410 q 521 673 439 611 q 689 734 603 734 q 895 610 817 734 l 917 715 l 1039 715 l 940 260 q 935 234 937 243 q 930 212 933 226 q 921 154 921 172 q 935 123 921 137 q 968 110 949 110 q 1028 131 990 110 q 1099 180 1065 151 q 1154 245 1131 210 q 1194 318 1178 279 q 1219 399 1210 357 q 1229 486 1229 441 q 1166 705 1229 606 q 991 859 1103 803 q 743 914 880 914 q 520 871 623 914 q 340 749 416 828 q 221 562 263 669 q 179 329 179 454 q 249 48 179 165 q 450 -131 318 -69 q 766 -192 581 -192 q 958 -170 873 -192 q 1121 -98 1044 -147 q 1190 -49 1167 -69 q 1240 12 1212 -28 m 463 294 q 481 194 463 239 q 533 123 500 149 q 608 98 566 98 q 698 126 654 98 q 779 203 743 155 q 835 313 814 252 q 856 437 856 374 q 836 542 856 497 q 781 611 817 587 q 696 635 745 635 q 610 607 652 635 q 535 531 568 578 q 483 420 503 484 q 463 294 463 357 z "},"A":{"ha":1013,"x_min":24,"x_max":1011,"o":"m 557 648 l 432 385 l 616 385 l 559 648 l 557 648 m 498 827 l 457 901 q 486 918 473 913 q 612 936 538 936 q 728 893 687 936 q 785 789 763 856 q 827 597 808 722 q 844 503 837 534 q 876 389 868 414 q 904 310 884 364 q 922 266 911 294 q 943 214 933 238 q 1011 74 966 161 q 915 16 954 34 q 843 -1 876 -1 q 776 14 803 -1 q 728 64 749 30 q 676 189 702 110 q 670 208 673 197 q 661 233 666 220 q 538 200 582 200 q 494 201 513 200 q 350 205 479 203 l 343 192 q 273 71 305 113 q 198 13 240 30 q 92 -4 155 -4 q 39 4 55 -4 q 24 31 24 12 q 98 154 24 53 q 138 210 125 189 q 66 260 66 223 q 123 349 66 290 q 174 385 151 377 q 256 393 197 393 q 325 520 310 493 q 363 590 340 548 q 417 685 387 631 q 498 827 448 738 z "},"B":{"ha":911,"x_min":29,"x_max":892,"o":"m 490 781 l 403 484 q 419 482 411 482 q 503 515 455 482 q 595 604 562 557 q 628 696 628 651 q 530 789 628 789 q 490 781 503 789 m 389 432 q 383 412 386 423 q 378 392 380 401 q 319 217 346 284 q 262 103 292 150 q 214 43 245 75 q 331 10 296 18 q 400 3 366 3 q 471 15 440 3 q 529 53 502 26 q 594 146 569 92 q 619 252 619 201 q 581 346 619 307 q 538 375 562 365 q 473 392 515 385 q 420 406 435 399 q 389 432 406 413 m 93 343 l 172 587 q 228 715 195 653 q 212 708 224 715 q 146 689 165 689 q 118 710 118 689 q 140 774 118 732 q 183 838 161 817 q 334 909 233 883 q 561 936 435 936 q 698 923 637 936 q 803 885 760 910 q 869 823 846 859 q 892 743 892 787 q 866 633 892 682 q 785 543 840 585 q 668 482 723 497 q 647 478 662 480 l 647 475 q 885 278 885 444 q 874 209 885 245 q 841 138 863 173 q 790 75 820 104 q 637 -42 726 12 q 459 -130 549 -96 q 306 -163 370 -163 q 203 -151 252 -163 q 125 -118 154 -138 q 96 -75 96 -98 q 107 -36 96 -54 q 151 9 119 -18 l 149 12 q 113 5 130 5 q 52 27 75 5 q 29 86 29 49 q 48 184 29 107 q 93 343 67 261 z "},"C":{"ha":854,"x_min":37,"x_max":835,"o":"m 542 492 q 587 644 568 559 q 606 783 606 728 q 589 819 606 819 q 532 778 573 819 q 422 625 470 711 q 348 448 374 538 q 322 272 322 358 q 337 179 322 204 q 392 154 351 154 q 479 174 427 154 q 729 307 597 220 q 803 345 787 345 q 825 322 825 345 l 825 321 q 804 252 822 290 q 743 154 769 177 q 624 78 700 115 q 469 17 549 41 q 336 -7 390 -7 q 220 17 275 -7 q 124 81 165 40 q 60 176 83 121 q 37 292 37 230 q 52 393 37 338 q 96 507 67 448 q 160 619 124 567 q 204 679 181 650 q 254 734 227 707 q 314 787 281 762 q 374 829 347 812 q 472 885 421 861 q 566 920 523 909 q 646 932 610 932 q 785 886 734 932 q 835 758 835 840 q 793 579 835 673 q 681 416 751 486 q 585 338 633 367 q 500 310 538 310 q 467 342 467 310 q 485 383 467 357 q 542 492 511 420 z "},"D":{"ha":945,"x_min":31,"x_max":936,"o":"m 492 786 l 355 271 q 350 245 354 266 q 322 163 338 192 q 288 111 311 140 q 332 110 307 110 q 430 118 391 110 q 503 144 469 125 q 567 193 537 163 q 653 327 623 251 q 684 492 684 403 q 659 640 684 573 q 591 744 635 706 q 492 786 548 783 m 33 111 l 195 656 q 231 745 212 719 q 261 770 242 760 l 261 772 l 252 772 q 170 750 232 772 q 75 726 101 726 q 57 731 62 726 q 52 747 52 736 q 67 807 52 774 q 106 865 82 839 q 157 901 131 890 q 317 937 216 924 q 536 950 418 950 q 753 910 664 950 q 889 791 843 870 q 936 602 936 713 q 891 376 936 490 q 774 186 847 262 q 315 4 602 4 q 147 19 223 4 q 46 56 71 34 q 31 92 31 68 q 33 111 31 98 z "},"E":{"ha":854,"x_min":45,"x_max":840,"o":"m 599 307 l 351 309 l 351 292 q 380 202 351 242 q 443 161 408 161 q 545 187 478 161 q 697 261 612 213 l 721 275 q 754 296 745 289 q 804 321 794 321 q 817 298 817 321 q 808 243 817 274 q 785 183 799 212 q 758 142 772 154 q 626 66 720 107 q 436 3 532 26 q 376 -4 404 -4 q 207 34 283 -4 q 87 137 130 71 q 45 283 45 203 q 73 430 45 350 q 151 590 100 510 q 264 734 201 669 q 387 838 319 791 q 518 909 454 884 q 636 935 583 935 q 780 887 720 935 q 840 771 840 839 q 829 706 840 741 q 800 644 819 671 q 744 589 781 616 q 660 542 707 562 q 564 519 604 519 q 524 539 524 519 q 546 575 524 551 q 593 635 570 597 q 631 729 614 675 q 647 814 647 783 q 632 839 647 839 q 547 787 608 839 q 449 684 485 734 q 393 587 415 636 q 364 490 372 538 l 726 490 q 786 460 786 490 q 720 367 786 431 q 599 307 654 307 z "},"F":{"ha":694,"x_min":41,"x_max":681,"o":"m 236 671 l 252 710 q 145 725 176 712 q 115 771 115 739 q 136 823 115 798 q 187 883 160 856 q 237 921 214 909 q 292 929 257 929 q 482 920 376 929 q 523 918 507 918 q 558 916 539 917 q 615 914 603 916 q 644 905 627 912 q 664 893 656 901 q 681 838 681 876 q 632 747 681 767 q 581 731 604 735 q 497 722 557 728 l 424 479 q 509 482 476 479 q 571 484 529 484 q 641 473 621 484 q 661 436 661 463 q 642 377 661 416 q 599 315 622 338 q 568 301 588 304 q 501 297 549 297 l 492 297 l 475 297 q 371 293 429 297 q 315 135 340 190 q 252 43 289 81 q 197 2 226 16 q 143 -12 168 -12 q 72 12 102 -12 q 41 66 41 35 q 106 304 41 104 q 236 671 170 503 z "},"G":{"ha":868,"x_min":41,"x_max":851,"o":"m 513 125 q 386 31 445 60 q 268 1 328 1 q 146 35 197 1 q 68 133 95 69 q 41 283 41 197 q 98 506 41 391 q 250 719 155 621 q 458 875 346 817 q 677 933 571 933 q 848 783 848 933 q 817 670 848 725 q 733 582 785 615 q 623 549 681 549 q 599 566 599 549 q 607 589 599 570 q 635 667 625 625 q 646 758 646 726 q 632 815 646 815 q 543 770 600 815 q 449 671 486 724 q 388 559 416 624 q 343 429 359 495 q 328 309 328 363 q 350 223 328 256 q 408 189 372 189 q 547 346 470 189 q 580 401 572 389 q 604 422 589 413 q 710 470 646 449 q 810 490 774 490 q 851 449 851 490 q 847 419 851 446 q 730 56 799 220 q 597 -179 662 -109 q 509 -232 568 -211 q 390 -253 451 -253 q 288 -236 340 -253 q 203 -193 236 -219 q 170 -140 170 -166 q 189 -102 170 -123 q 240 -58 208 -80 q 309 -24 292 -24 q 358 -62 326 -24 q 440 -136 397 -107 q 486 0 464 -81 q 513 125 508 81 z "},"H":{"ha":1042,"x_min":37,"x_max":1028,"o":"m 358 306 l 345 261 q 334 221 341 246 q 273 53 297 93 q 256 29 269 45 q 149 -11 212 -11 q 68 11 98 -11 q 37 68 37 33 q 55 158 37 93 q 94 281 73 222 q 41 326 41 291 q 58 383 41 351 q 100 439 75 414 q 149 472 125 465 q 187 595 159 501 q 292 867 252 798 q 319 903 308 890 q 410 936 355 936 q 470 924 444 936 q 510 891 496 912 q 524 843 524 871 q 427 518 524 804 q 422 504 425 513 q 416 488 419 495 l 414 482 l 664 488 l 676 530 q 720 667 697 600 q 760 775 743 734 q 793 848 777 817 q 825 895 810 879 q 922 933 861 933 q 1028 842 1028 933 q 936 528 1028 755 q 920 486 922 494 q 924 487 922 487 q 929 488 926 488 q 988 474 966 488 q 1010 439 1010 461 q 991 396 1010 424 q 952 347 973 368 q 917 317 932 326 q 861 301 903 309 l 859 290 q 844 253 854 280 q 815 174 830 214 q 790 112 800 134 q 771 75 781 90 q 745 47 760 59 q 670 6 712 22 q 600 -9 628 -9 q 550 6 568 -9 q 532 50 532 22 q 583 253 532 99 q 600 302 595 287 l 358 306 z "},"I":{"ha":806,"x_min":31,"x_max":777,"o":"m 484 804 l 478 804 q 289 761 421 804 q 160 729 191 729 q 123 743 138 729 q 107 777 107 757 q 144 857 107 809 q 218 920 181 905 q 449 942 273 942 q 589 935 519 942 q 708 917 660 928 q 770 892 757 905 q 777 863 777 885 q 765 788 777 842 q 739 686 754 735 q 513 149 644 387 q 450 56 480 89 q 384 10 420 24 q 297 -4 347 -4 q 163 23 225 -4 q 66 98 102 51 q 31 201 31 145 q 47 286 31 241 q 85 355 64 331 q 109 368 95 368 q 151 347 131 368 q 193 275 170 326 q 269 147 227 199 q 290 123 274 141 q 339 240 322 195 q 379 363 357 286 q 432 551 395 412 q 484 804 461 669 z "},"J":{"ha":737,"x_min":41,"x_max":715,"o":"m 411 770 q 387 763 398 766 q 370 759 376 760 q 336 749 363 757 q 182 714 220 714 q 122 728 145 714 q 100 766 100 742 q 133 856 100 806 q 203 920 165 905 q 288 940 238 933 q 415 946 337 946 q 643 928 570 946 q 715 873 715 911 q 691 732 715 845 q 640 532 666 620 q 407 -72 538 168 q 345 -163 378 -125 q 276 -219 311 -200 q 201 -237 240 -237 q 94 -157 146 -237 q 41 9 41 -77 q 63 133 41 73 q 123 233 85 193 q 169 269 145 254 q 205 283 193 283 q 223 271 216 283 q 229 236 229 259 q 224 197 229 225 q 200 -24 200 68 q 211 -111 200 -74 q 250 -26 235 -70 q 314 201 289 97 q 374 485 355 373 q 411 770 393 597 z "},"K":{"ha":956,"x_min":29,"x_max":945,"o":"m 444 583 l 582 732 q 670 813 639 787 q 747 869 701 840 q 895 924 828 924 q 945 886 945 924 q 931 829 945 858 q 895 778 918 801 q 736 665 853 736 q 597 570 648 611 q 615 479 606 519 q 637 408 625 439 q 672 334 650 377 q 726 244 697 285 q 872 114 800 145 q 895 94 895 103 q 871 57 895 77 q 795 7 840 24 q 705 -11 751 -11 q 557 33 623 -11 q 456 155 491 77 q 403 371 415 244 q 400 419 400 393 l 397 419 q 357 354 370 379 q 319 265 345 330 q 263 139 289 183 q 204 66 237 94 q 135 21 173 39 q 72 3 97 3 q 41 17 54 3 q 29 50 29 31 q 31 69 29 62 q 100 329 62 197 q 177 578 138 461 q 250 777 216 695 q 301 880 283 858 q 366 921 323 905 q 454 937 408 937 q 514 926 496 937 q 532 889 532 915 q 460 656 532 854 q 444 611 455 642 q 428 567 433 581 l 431 564 l 444 583 z "},"L":{"ha":534,"x_min":28,"x_max":521,"o":"m 424 582 l 401 528 q 319 319 357 423 q 264 144 301 269 q 415 168 320 149 q 489 180 476 180 q 513 161 513 180 q 487 99 513 139 q 428 29 460 58 q 361 0 406 8 q 224 -8 317 -8 q 89 -3 136 -8 q 66 4 88 -3 q 28 72 28 20 q 49 208 28 109 q 111 454 71 307 q 250 860 203 783 q 288 901 265 886 q 350 924 311 916 q 437 932 388 932 q 502 920 484 932 q 521 879 521 908 q 496 775 521 851 q 424 582 472 699 z "},"M":{"ha":1504,"x_min":33,"x_max":1486,"o":"m 832 354 l 846 385 q 1078 854 1006 746 q 1097 878 1089 869 q 1116 893 1105 886 q 1143 907 1126 900 q 1270 928 1192 928 q 1320 921 1310 928 q 1331 890 1331 914 q 1329 851 1331 872 q 1324 677 1324 729 q 1341 431 1324 547 q 1375 298 1353 366 q 1421 207 1399 239 q 1464 155 1447 172 q 1486 122 1486 134 q 1450 65 1486 101 q 1329 7 1390 7 q 1175 79 1244 7 q 1119 158 1140 115 q 1088 264 1099 201 q 1075 425 1078 328 q 1069 545 1070 531 l 1067 545 q 996 408 1024 463 q 949 317 967 353 q 907 231 931 281 q 806 37 829 71 q 800 31 804 36 q 793 24 796 26 q 767 7 781 13 q 742 1 752 1 q 679 37 713 1 q 619 129 645 73 q 576 251 593 189 q 547 398 559 313 q 525 606 534 483 l 522 606 q 492 538 502 561 q 460 469 481 516 q 436 415 439 422 q 378 290 408 353 q 329 193 347 227 q 288 126 310 159 q 252 82 277 111 q 164 23 212 44 q 74 1 117 1 q 45 9 58 1 q 33 31 33 18 q 52 61 33 42 q 96 123 62 73 l 135 184 q 245 379 172 239 l 278 440 q 432 739 392 659 q 472 832 472 819 q 452 864 472 846 q 436 886 436 877 q 475 915 436 901 q 561 928 515 928 q 693 886 654 928 q 739 785 718 861 q 781 566 760 709 q 783 553 782 557 q 784 545 783 549 q 785 536 785 542 q 789 511 789 517 q 810 398 803 424 q 832 354 818 373 z "},"N":{"ha":1114,"x_min":33,"x_max":1101,"o":"m 164 322 l 211 450 l 275 614 q 335 754 309 703 q 354 806 354 791 q 322 848 354 825 q 301 873 301 863 q 343 903 301 887 q 425 929 379 918 q 500 940 471 940 q 586 909 557 940 q 669 694 620 875 q 714 553 690 621 q 755 454 739 484 q 781 412 760 444 q 833 599 803 484 q 916 844 878 781 q 942 880 927 865 q 1002 920 970 906 q 1067 933 1034 933 q 1094 923 1086 933 q 1101 886 1101 913 q 1099 857 1101 867 q 1075 766 1092 822 q 1027 622 1058 710 q 950 410 996 534 l 940 385 q 930 358 935 368 q 806 60 848 128 q 785 33 797 45 q 743 12 764 12 q 631 123 691 12 q 458 533 521 323 q 439 607 446 572 l 436 607 l 354 349 q 349 331 353 342 q 342 311 345 321 q 335 295 339 304 q 329 279 332 286 q 292 177 307 212 q 264 121 278 143 q 228 75 252 100 q 151 25 193 43 q 68 7 109 7 q 33 35 33 7 q 64 107 33 56 q 143 269 99 166 q 164 322 151 291 z "},"O":{"ha":882,"x_min":33,"x_max":867,"o":"m 449 737 q 381 660 402 690 q 335 574 359 630 q 309 488 317 533 q 298 385 298 448 q 315 236 298 296 q 366 147 332 177 q 446 117 399 117 q 523 144 484 117 q 595 217 563 172 q 647 318 627 262 q 667 425 667 374 q 603 619 667 518 q 579 675 579 660 q 610 730 579 703 q 689 789 644 764 q 760 815 734 815 q 791 808 774 815 q 817 790 808 801 q 852 708 838 768 q 867 581 867 648 q 801 285 867 420 q 624 71 736 150 q 380 -8 511 -8 q 231 20 305 -8 q 111 94 157 47 q 33 298 33 172 q 62 454 33 372 q 140 613 90 536 q 255 755 190 691 q 390 857 321 820 q 526 911 453 891 q 653 932 598 932 q 730 908 730 932 q 714 879 730 899 q 662 840 684 851 q 590 814 640 828 q 511 784 536 798 q 449 737 487 771 z "},"P":{"ha":825,"x_min":36,"x_max":810,"o":"m 256 777 l 265 800 q 227 797 243 800 q 191 785 212 793 q 155 775 165 775 q 136 784 144 775 q 129 806 129 793 q 150 860 129 832 q 203 900 172 888 q 308 926 243 916 q 435 936 372 936 q 563 926 506 936 q 663 893 619 916 q 741 838 707 871 q 792 760 774 804 q 810 667 810 716 q 792 566 810 622 q 742 458 774 511 q 672 368 710 405 q 561 296 628 326 q 437 267 493 267 q 396 275 414 267 q 378 296 378 283 q 392 331 378 315 q 444 372 406 348 q 505 418 477 391 q 555 497 539 455 q 571 597 571 539 q 552 692 571 653 q 490 761 533 730 l 397 460 l 380 407 q 351 300 370 376 q 289 118 318 169 q 256 74 276 96 q 173 24 223 45 q 87 3 123 3 q 50 17 64 3 q 36 56 36 31 q 50 137 36 83 q 107 329 64 191 l 119 367 l 132 408 l 256 777 z "},"Q":{"ha":940,"x_min":39,"x_max":925,"o":"m 640 90 q 555 40 600 61 q 465 7 511 18 q 380 -4 418 -4 q 203 36 281 -4 q 82 148 125 75 q 39 310 39 220 q 71 482 39 388 q 157 659 102 576 q 197 711 174 683 q 245 761 220 739 q 300 802 271 782 q 425 868 355 839 q 564 913 494 897 q 696 929 633 929 q 755 921 739 929 q 772 893 772 913 q 753 856 772 876 q 661 818 732 837 q 510 762 570 795 q 414 677 451 728 q 339 534 368 616 q 311 380 311 452 q 361 218 311 285 q 485 151 411 151 q 570 178 529 151 q 559 193 568 181 q 511 257 534 236 q 452 294 488 279 q 416 316 426 307 q 407 338 407 325 q 434 370 407 356 q 500 383 460 383 q 592 362 549 383 q 686 294 636 341 q 700 335 699 332 q 711 422 711 370 q 704 499 711 465 q 682 564 696 533 q 639 632 667 595 q 611 686 611 667 q 682 775 611 732 q 778 808 738 808 q 876 752 841 808 q 911 595 911 695 q 856 354 911 473 q 771 215 829 300 q 810 185 792 195 q 851 166 827 174 q 925 146 876 157 q 914 95 923 123 q 893 42 905 66 q 869 8 882 18 q 825 -5 854 -5 q 730 17 774 -5 q 640 90 687 39 z "},"R":{"ha":868,"x_min":35,"x_max":844,"o":"m 239 722 l 257 768 q 215 762 237 766 q 178 760 201 760 q 144 793 144 760 q 153 826 144 807 q 172 856 161 846 q 272 892 196 878 q 449 907 347 907 q 598 886 527 907 q 720 828 669 865 q 801 743 772 791 q 829 639 829 695 q 804 527 829 578 q 733 436 779 475 q 676 397 703 410 q 600 368 650 383 q 623 332 613 345 q 656 296 633 319 q 831 196 717 241 q 844 191 836 193 q 821 106 832 133 q 787 49 810 80 q 686 -7 745 -7 q 606 17 654 -7 q 528 74 558 41 q 484 133 504 102 q 444 204 464 164 q 409 281 423 243 q 387 347 394 319 q 386 363 386 353 q 394 385 386 377 q 424 400 402 393 q 474 424 454 411 q 524 465 494 437 q 577 552 557 503 q 596 653 596 602 q 568 747 596 713 q 479 794 541 781 q 364 395 421 582 l 350 343 q 291 162 315 221 q 243 79 267 103 q 169 33 219 56 q 90 9 119 9 q 35 72 35 9 q 50 160 35 98 q 97 325 65 223 q 164 523 129 426 q 239 722 199 620 z "},"S":{"ha":708,"x_min":33,"x_max":692,"o":"m 232 435 q 150 539 174 494 q 126 637 126 585 q 174 785 126 716 q 302 895 222 854 q 475 936 382 936 q 635 892 579 936 q 692 770 692 849 q 671 691 692 732 q 615 615 651 650 q 570 578 591 591 q 534 566 549 566 q 517 593 517 566 q 519 614 517 592 q 524 671 524 646 q 513 742 524 706 q 486 801 503 777 q 454 825 469 825 q 437 814 447 825 q 409 767 419 795 q 399 714 399 739 q 408 657 399 684 q 438 604 416 631 q 496 545 460 577 q 584 454 553 493 q 629 377 614 416 q 643 294 643 339 q 602 142 643 216 q 492 24 560 69 q 351 -21 424 -21 q 216 9 282 -21 q 93 94 151 39 q 33 199 33 153 q 60 253 33 227 q 126 299 87 280 q 193 318 166 318 q 220 310 209 318 q 239 284 231 302 q 256 233 248 265 q 279 166 269 188 q 310 122 290 144 q 353 102 330 102 q 395 123 380 102 q 411 182 411 144 q 370 298 411 240 q 343 333 357 318 q 279 392 328 349 q 232 435 264 404 z "},"T":{"ha":652,"x_min":37,"x_max":640,"o":"m 439 441 l 432 412 q 426 387 429 397 q 421 369 423 376 q 418 353 420 361 q 339 92 369 144 q 298 50 326 68 q 164 -5 213 -5 q 107 19 130 -5 q 83 81 83 44 q 142 326 83 147 q 174 425 159 383 q 209 520 189 467 q 256 633 230 573 q 293 717 282 692 q 121 704 203 704 q 37 762 37 704 q 92 857 37 800 q 159 909 128 895 q 235 924 191 924 q 313 922 263 924 q 450 914 362 920 l 469 913 l 488 911 q 586 901 562 907 q 627 880 610 896 q 640 844 640 865 q 632 800 640 823 q 611 766 623 777 q 515 734 594 747 q 501 733 509 734 l 488 730 q 504 694 504 714 q 485 612 504 675 q 456 510 479 597 l 446 469 l 439 441 z "},"U":{"ha":868,"x_min":33,"x_max":854,"o":"m 543 319 l 545 319 l 542 319 q 452 175 490 230 q 378 85 413 120 q 291 19 334 41 q 208 -4 248 -4 q 79 46 125 -4 q 33 186 33 96 q 97 529 33 302 q 141 670 119 604 q 189 798 163 736 q 229 885 215 859 q 257 913 239 903 q 306 930 274 924 q 397 940 355 940 q 469 878 469 940 q 439 772 469 842 q 395 657 411 706 q 390 643 393 653 q 382 619 387 633 q 347 497 369 578 q 313 359 326 416 q 301 285 301 302 q 315 260 301 260 q 386 330 331 260 q 505 501 438 397 q 615 685 572 604 q 657 756 644 737 q 684 786 670 776 q 768 812 720 812 q 831 755 831 812 q 827 708 831 744 q 808 435 808 560 q 812 332 808 378 q 822 241 815 286 q 840 149 829 197 q 854 68 854 83 q 847 47 854 57 q 804 21 836 31 q 714 -1 745 -1 q 640 27 675 -1 q 582 107 605 56 q 547 265 555 168 q 543 319 545 281 z "},"V":{"ha":755,"x_min":37,"x_max":741,"o":"m 595 821 q 670 884 633 858 q 720 909 706 909 q 741 869 741 909 q 730 768 741 823 q 701 661 720 713 q 623 464 671 572 q 528 273 574 356 q 450 147 498 221 q 384 63 413 90 q 315 20 355 37 q 254 1 280 6 q 204 -4 223 -4 q 153 12 170 -4 q 114 90 132 35 q 72 269 93 158 q 43 463 50 380 q 37 623 37 519 q 78 851 37 810 q 131 885 92 865 q 208 914 170 904 q 258 922 238 922 q 309 867 309 922 q 302 754 309 838 q 292 490 292 586 q 306 240 292 323 q 318 184 314 200 q 361 247 344 218 q 395 309 378 276 q 441 414 428 376 q 510 637 485 520 q 547 757 526 721 q 595 821 563 787 z "},"W":{"ha":1129,"x_min":36,"x_max":1114,"o":"m 500 400 l 497 400 q 389 214 445 298 q 275 65 321 113 q 213 23 250 41 q 149 5 176 5 q 131 10 142 5 q 113 22 119 14 q 57 214 78 60 q 36 589 36 368 q 62 827 36 768 q 94 868 73 852 q 154 900 114 884 q 227 924 189 914 q 286 933 264 933 q 316 924 305 933 q 328 897 328 914 q 325 879 328 890 q 298 701 311 816 q 286 578 290 625 q 280 448 283 530 q 277 286 277 366 l 279 283 q 345 378 310 323 q 368 416 357 398 q 393 457 380 433 q 449 566 425 513 q 471 615 461 590 q 614 878 572 842 q 683 910 633 895 q 774 925 734 925 q 817 913 800 925 q 833 882 833 901 q 815 811 833 864 q 758 587 780 709 q 736 371 736 466 q 811 178 736 178 q 855 210 833 178 q 893 293 878 243 q 920 410 909 343 q 930 547 930 477 q 926 647 930 589 q 925 676 925 663 q 1007 827 925 751 q 1067 865 1047 865 q 1114 689 1114 865 q 1086 449 1114 564 q 993 215 1053 311 q 919 115 962 163 q 833 37 876 66 q 720 0 780 0 q 554 86 608 0 q 500 354 500 173 l 500 400 z "},"X":{"ha":999,"x_min":33,"x_max":982,"o":"m 286 608 l 277 632 q 248 697 268 648 q 197 809 213 778 q 165 857 181 841 q 143 872 156 865 q 126 888 126 883 q 132 897 126 892 q 197 922 144 909 q 293 935 250 935 q 392 906 351 935 q 476 806 433 877 q 596 539 540 701 q 650 609 625 574 q 703 692 674 645 q 747 761 739 748 q 769 790 755 773 q 800 827 782 806 q 872 870 829 852 q 950 888 916 888 q 982 860 982 888 q 954 794 982 842 q 866 666 926 747 q 708 461 806 586 q 699 449 707 459 q 682 427 691 439 q 665 407 672 415 q 730 285 700 328 q 775 225 752 252 q 825 172 798 197 q 896 117 857 140 q 911 100 911 106 q 900 82 911 91 q 845 42 878 61 q 780 14 812 24 q 721 4 749 4 q 562 71 634 4 q 522 119 536 97 q 482 189 507 141 l 440 144 q 218 -66 324 20 q 78 -153 113 -153 q 46 -133 59 -153 q 33 -83 33 -113 q 47 -5 33 -45 q 82 54 62 34 q 150 106 94 66 q 326 239 253 172 q 415 329 359 268 l 307 561 l 286 608 z "},"Y":{"ha":956,"x_min":37,"x_max":949,"o":"m 395 765 l 400 714 q 404 672 403 702 q 453 340 420 486 q 489 222 468 279 q 547 345 517 279 q 568 391 558 369 q 580 420 577 412 q 593 449 583 427 q 639 568 607 483 q 666 644 659 625 q 694 707 673 662 q 762 806 720 763 q 818 854 787 831 q 877 890 849 877 q 922 903 905 903 q 949 882 949 903 q 935 832 949 863 q 832 604 897 739 q 700 341 768 469 q 586 139 633 213 q 510 25 548 76 q 380 -127 438 -75 q 250 -211 323 -180 q 167 -236 212 -228 q 114 -241 133 -241 q 58 -229 79 -241 q 37 -195 37 -217 q 61 -120 37 -170 q 111 -41 85 -70 q 172 -25 127 -25 q 254 -14 221 -25 q 302 4 277 -7 q 357 36 326 16 q 267 202 304 125 q 203 354 229 279 q 145 563 168 451 q 123 757 123 674 q 134 830 123 805 q 172 871 145 854 q 260 914 212 896 q 340 932 309 932 q 376 913 367 932 q 387 833 385 894 q 395 765 391 789 z "},"Z":{"ha":868,"x_min":41,"x_max":848,"o":"m 286 432 l 345 497 q 423 587 387 545 q 486 664 459 630 q 538 730 513 697 q 548 748 545 741 q 558 765 552 754 q 425 741 500 758 q 278 713 334 719 q 265 712 273 712 q 249 711 258 711 q 232 710 239 711 q 161 762 161 712 q 185 827 161 785 q 243 903 210 869 q 270 922 256 918 q 318 926 283 926 q 345 927 332 927 q 400 928 359 928 l 494 930 l 568 933 q 587 934 578 934 q 614 935 595 935 l 619 935 l 635 935 l 650 935 l 665 935 q 788 929 751 935 q 836 908 824 924 q 848 882 848 894 q 807 812 848 865 q 714 690 779 779 q 667 625 709 684 l 631 574 q 431 271 481 361 q 425 258 427 263 q 418 244 422 254 q 558 254 514 249 q 714 281 649 266 q 762 289 746 289 q 798 256 798 289 q 771 172 798 222 q 714 93 745 121 q 632 45 684 65 q 511 14 580 24 q 371 3 443 3 q 196 16 271 3 q 82 55 122 30 q 41 117 41 81 q 78 195 41 146 q 227 367 114 245 q 286 432 267 412 z "},"[":{"ha":534,"x_min":32,"x_max":525,"o":"m 78 465 l 82 528 q 86 585 84 564 q 98 726 92 669 q 112 826 104 784 q 130 889 121 869 q 153 918 140 909 q 283 939 181 939 q 471 920 418 939 q 525 852 525 901 q 512 795 525 815 q 475 775 499 775 q 449 778 464 775 q 364 785 410 785 q 322 783 343 785 l 317 755 l 281 542 l 269 485 q 205 170 220 235 q 199 139 201 151 l 243 140 q 286 142 257 142 q 376 132 351 142 q 400 98 400 123 q 391 54 400 81 q 371 17 382 28 q 327 1 358 6 q 243 -4 295 -4 q 94 -1 132 -4 q 44 16 56 3 q 32 62 32 28 q 52 237 32 100 q 78 465 73 416 z "},"\\":{"ha":652,"x_min":35,"x_max":631,"o":"m 579 111 l 582 102 l 586 92 q 631 -45 631 -21 q 616 -76 631 -63 q 581 -89 602 -89 q 545 -80 564 -89 q 511 -56 526 -71 q 413 98 487 -29 q 271 359 339 225 l 121 659 q 77 753 96 706 q 46 839 58 800 q 35 895 35 877 q 57 958 35 933 q 114 982 79 982 q 191 949 153 982 q 268 849 229 916 q 353 671 307 782 l 579 111 z "},"]":{"ha":564,"x_min":31,"x_max":549,"o":"m 277 -3 l 204 -5 l 174 -5 l 154 -5 q 81 0 107 -5 q 42 17 54 5 q 31 50 31 28 q 43 102 31 68 q 62 132 54 125 q 115 142 71 142 l 127 142 l 153 142 q 253 146 190 142 q 264 192 258 165 q 281 309 271 250 q 307 538 298 444 q 322 779 315 633 q 203 771 239 777 q 158 766 173 766 q 130 772 138 766 q 122 791 122 777 q 136 851 122 816 q 163 901 150 887 q 241 931 180 920 q 382 942 302 942 q 473 932 427 942 q 532 908 519 922 q 549 865 549 894 q 542 787 549 823 l 476 427 q 374 16 410 53 q 277 -3 360 1 z "},"^":{"ha":652,"x_min":36,"x_max":615,"o":"m 161 468 l 36 468 l 277 1011 l 375 1011 l 615 468 l 492 468 l 325 873 l 161 468 z "},"_":{"ha":694,"x_min":-8,"x_max":703,"o":"m -8 -174 l -8 -102 l 703 -102 l 703 -174 l -8 -174 z "},"`":{"ha":463,"x_min":193,"x_max":486,"o":"m 313 1003 q 336 993 326 1003 q 359 957 346 983 q 436 854 388 901 q 448 844 442 848 q 460 832 453 839 q 480 813 474 821 q 486 794 486 805 q 436 764 486 764 q 240 844 323 764 q 205 886 218 867 q 193 917 193 905 q 212 942 193 924 q 258 978 231 960 q 313 1003 296 1003 z "},"a":{"ha":766,"x_min":28,"x_max":757,"o":"m 541 353 l 528 349 q 457 335 479 335 q 431 349 431 335 q 441 374 431 353 q 479 482 479 431 q 469 535 479 511 q 447 559 459 559 q 414 536 436 559 q 314 396 351 468 q 277 268 277 324 q 292 206 277 231 q 330 182 307 182 q 404 224 350 182 q 525 335 458 266 l 543 350 l 541 353 m 500 197 l 500 195 l 497 197 q 381 76 434 123 q 284 5 329 29 q 203 -18 240 -18 q 77 33 127 -18 q 28 161 28 83 q 52 275 28 210 q 119 404 77 341 q 298 579 191 507 q 513 653 410 653 q 655 617 600 653 q 711 528 711 582 q 684 443 711 488 q 730 435 720 443 q 739 399 739 427 q 736 371 739 401 q 732 245 732 304 q 732 199 732 215 q 735 163 733 184 q 739 131 737 143 q 757 68 745 99 q 679 9 716 28 q 603 -9 642 -9 q 498 165 498 -9 q 500 197 498 186 z "},"b":{"ha":652,"x_min":31,"x_max":631,"o":"m 425 289 q 401 283 408 283 q 362 301 378 283 q 347 346 347 319 q 385 484 347 399 q 465 610 423 569 q 534 640 496 640 q 586 620 564 640 q 619 563 608 600 q 631 475 631 525 q 578 238 631 349 q 437 62 525 127 q 248 -4 349 -4 q 133 27 182 -4 q 57 117 84 58 q 31 253 31 176 q 54 417 31 326 q 121 603 78 509 q 222 787 163 698 q 366 939 285 884 q 482 978 421 978 q 582 940 545 978 q 619 839 619 902 q 585 745 619 794 q 499 664 551 696 q 397 632 447 632 q 374 644 374 632 q 393 679 374 654 q 448 773 426 720 q 471 865 471 826 q 460 901 471 901 q 418 857 446 901 q 367 754 389 812 q 286 491 314 616 q 257 279 257 367 q 278 169 257 214 q 330 123 300 123 q 395 167 369 123 q 425 289 420 211 z "},"c":{"ha":534,"x_min":36,"x_max":519,"o":"m 407 654 q 489 625 458 652 q 519 550 519 597 q 496 468 519 509 q 437 400 473 427 q 366 374 401 374 q 345 389 345 374 q 353 412 345 394 q 379 515 379 457 q 372 545 379 545 q 345 520 363 545 q 315 463 328 496 q 280 351 294 410 q 267 252 267 292 q 280 179 267 205 q 319 153 294 153 q 381 177 342 153 q 454 237 420 201 q 479 256 469 256 q 496 237 496 256 q 431 86 496 154 q 328 14 386 41 q 224 -14 270 -14 q 90 37 143 -14 q 36 165 36 88 q 70 328 36 243 q 164 490 104 413 q 298 618 223 566 q 404 654 353 654 l 407 654 z "},"d":{"ha":796,"x_min":31,"x_max":779,"o":"m 467 298 l 467 338 q 415 307 432 307 q 406 317 406 307 q 410 334 406 321 q 424 412 424 374 q 400 526 424 467 q 375 557 390 557 q 363 550 368 557 q 320 477 340 524 q 287 375 300 430 q 273 277 273 319 q 322 196 273 196 q 388 225 347 196 q 467 298 429 254 m 488 621 l 494 648 q 532 799 515 741 q 567 896 549 856 q 603 953 585 935 q 705 983 631 983 q 754 980 738 983 q 779 968 770 977 q 734 816 747 867 q 707 677 722 766 q 684 418 684 534 q 696 259 684 341 q 737 75 709 176 q 668 33 701 50 q 606 5 635 15 q 554 -5 576 -5 q 498 33 515 -5 q 481 84 485 65 q 467 192 477 104 q 293 42 376 97 q 160 -12 210 -12 q 67 34 103 -12 q 31 154 31 81 q 59 300 31 220 q 136 456 87 380 q 203 539 169 505 q 281 603 237 574 q 412 654 359 654 q 488 621 438 654 z "},"e":{"ha":593,"x_min":32,"x_max":583,"o":"m 269 211 q 317 253 300 232 q 372 354 353 297 q 397 437 388 391 q 406 524 406 484 q 390 561 406 561 q 323 465 368 561 q 280 350 297 408 q 264 252 264 293 q 269 211 264 237 m 271 189 q 323 149 278 149 q 456 208 374 149 q 519 243 503 243 q 557 232 540 243 q 575 210 575 221 q 555 178 575 197 q 473 107 519 142 q 382 51 426 73 q 296 15 339 28 q 218 1 252 1 q 83 50 134 1 q 32 179 32 98 q 59 318 32 241 q 131 464 85 396 q 262 596 184 543 q 447 660 359 660 q 547 620 511 660 q 583 509 583 579 q 554 394 583 454 q 469 279 526 334 q 379 208 423 233 q 301 182 334 182 q 271 189 286 182 z "},"f":{"ha":510,"x_min":43,"x_max":492,"o":"m 285 146 l 283 109 q 259 -111 274 -26 q 225 -215 244 -196 q 144 -243 199 -243 q 60 -220 85 -243 q 46 -199 50 -208 q 43 -164 43 -189 l 43 -158 l 43 -151 l 43 -143 q 79 240 45 47 q 171 591 114 433 q 296 842 228 749 q 431 935 363 935 q 476 914 461 935 q 492 854 492 893 q 479 732 492 797 q 450 627 467 667 q 415 586 433 586 q 399 643 399 586 l 399 656 l 399 664 q 396 739 399 721 q 386 762 394 756 q 375 728 378 747 q 349 581 359 646 q 318 367 338 515 q 316 349 317 359 q 314 330 315 338 l 323 330 q 338 331 332 331 q 359 332 345 332 q 406 335 385 335 q 486 293 486 335 q 471 240 486 271 q 435 189 456 210 q 387 160 414 169 q 310 147 360 151 q 295 147 299 147 q 285 146 290 146 z "},"g":{"ha":764,"x_min":29,"x_max":737,"o":"m 522 330 l 522 328 l 519 330 q 509 329 515 329 q 476 328 496 328 q 441 340 441 328 q 450 357 441 347 q 495 433 476 386 q 515 519 513 481 q 517 536 515 529 q 518 541 517 539 q 518 545 518 543 q 505 554 518 554 q 424 497 479 554 q 359 410 389 460 q 311 310 328 360 q 294 220 294 260 q 314 180 294 180 q 410 244 333 180 q 522 330 444 274 m 488 186 l 469 172 q 463 167 467 170 q 452 158 458 163 q 268 29 334 66 q 151 -8 201 -8 q 63 32 96 -8 q 29 139 29 72 q 76 312 29 222 q 201 475 123 401 q 370 595 278 550 q 549 640 463 640 q 678 611 633 640 q 722 524 722 582 q 684 403 722 475 q 724 386 711 401 q 737 338 737 370 q 715 190 737 285 q 663 16 694 96 q 554 -160 625 -85 q 421 -257 500 -216 q 285 -297 342 -297 q 200 -259 237 -297 q 163 -174 163 -221 q 179 -107 163 -142 q 221 -49 195 -73 q 376 53 274 5 q 406 62 395 62 q 413 59 410 62 q 416 52 416 56 q 408 33 416 47 q 372 -55 388 -1 q 357 -149 357 -109 q 371 -195 357 -195 q 390 -178 378 -195 q 410 -140 401 -161 q 484 131 467 6 q 488 186 486 149 z "},"h":{"ha":694,"x_min":35,"x_max":681,"o":"m 492 827 l 492 838 q 485 863 492 863 q 457 836 476 863 q 424 775 439 808 q 358 596 387 690 q 314 407 330 501 q 302 328 309 370 l 306 325 q 407 424 374 395 q 493 490 440 453 q 603 536 559 536 q 646 516 631 536 q 661 461 661 496 q 653 403 661 441 q 639 268 639 323 q 643 215 639 243 q 665 127 646 193 q 681 72 681 77 q 659 49 681 62 q 526 1 587 1 q 446 50 477 1 q 415 175 415 98 q 421 249 415 205 l 418 252 q 289 118 321 153 q 103 1 168 1 q 54 41 73 1 q 35 144 35 81 q 119 494 35 281 q 191 653 153 577 q 264 783 229 728 q 316 851 289 822 q 372 899 344 880 q 429 928 400 918 q 488 937 458 937 q 606 892 560 937 q 652 778 652 848 q 624 674 652 729 q 546 570 596 619 q 474 514 514 538 q 411 490 433 490 q 399 495 404 490 q 393 507 393 500 q 411 551 393 517 q 451 643 431 589 q 481 745 471 696 q 492 827 492 793 z "},"i":{"ha":347,"x_min":33,"x_max":336,"o":"m 135 -7 q 79 21 104 -5 q 44 80 54 48 q 33 161 33 111 q 75 414 33 273 q 170 618 117 555 q 228 644 191 644 q 291 608 267 644 q 315 514 315 572 q 291 312 315 428 q 221 72 266 197 q 178 4 203 22 q 136 -7 160 -7 l 135 -7 m 216 675 q 153 751 153 677 q 171 838 153 789 q 214 911 190 887 q 238 929 226 924 q 271 935 251 935 q 320 918 304 935 q 336 863 336 901 q 320 771 336 814 q 275 702 303 728 q 218 675 248 675 l 216 675 z "},"j":{"ha":406,"x_min":35,"x_max":392,"o":"m 224 608 q 296 644 262 644 q 356 619 333 644 q 379 553 379 593 q 367 431 379 494 q 327 276 355 368 q 236 5 298 184 q 186 -111 215 -57 q 129 -199 158 -165 q 106 -210 120 -210 q 56 -159 77 -210 q 35 -37 35 -108 q 49 99 35 40 q 81 158 64 158 q 97 150 87 158 q 101 148 100 149 q 104 146 102 147 q 107 173 106 158 q 110 199 109 188 q 137 409 121 334 q 176 538 152 485 q 224 608 192 572 m 273 676 q 229 697 245 677 q 212 750 212 717 q 230 839 212 791 q 272 911 248 886 q 328 933 294 933 q 377 916 363 933 q 392 860 392 899 q 357 731 392 786 q 275 676 322 676 l 273 676 z "},"k":{"ha":694,"x_min":47,"x_max":681,"o":"m 681 -121 q 536 -243 586 -243 q 461 -215 500 -243 q 387 -139 421 -186 q 332 -35 352 -91 q 311 71 311 20 q 321 109 311 99 q 339 122 325 113 q 453 256 453 193 q 424 289 453 289 q 343 229 393 289 q 254 82 294 169 q 214 12 231 27 q 165 -1 198 -1 q 103 19 130 -1 q 62 76 77 39 q 47 160 47 113 q 66 320 47 233 q 117 494 84 407 q 195 665 150 582 q 290 812 241 749 q 481 936 388 936 q 563 915 527 936 q 619 855 600 894 q 639 765 639 817 q 608 639 639 702 q 527 537 576 576 q 427 497 477 497 q 403 514 403 497 q 415 546 403 521 q 475 814 475 664 q 465 852 475 852 q 445 833 458 852 q 418 785 431 813 q 310 399 343 617 q 306 368 308 387 q 300 325 303 349 l 302 322 q 348 381 330 361 q 396 422 366 400 q 567 494 488 494 q 634 471 608 494 q 660 410 660 447 q 602 221 660 318 q 564 165 585 193 q 503 93 543 137 q 558 9 527 52 q 628 -64 586 -27 q 681 -121 665 -94 z "},"l":{"ha":636,"x_min":36,"x_max":621,"o":"m 401 507 q 447 668 429 584 q 465 796 465 751 q 458 808 465 808 q 420 760 448 808 q 375 661 393 711 q 314 478 336 551 q 285 355 293 405 q 277 254 277 306 q 287 190 277 210 q 318 170 296 170 q 401 202 355 170 q 485 289 448 235 q 530 329 514 329 q 551 296 551 329 q 506 154 551 223 q 389 42 460 85 q 243 -1 317 -1 q 94 56 151 -1 q 36 207 36 114 q 68 385 36 283 q 156 590 101 487 q 275 778 210 694 q 404 907 340 862 q 492 936 444 936 q 558 913 528 936 q 604 850 588 890 q 621 760 621 809 q 579 551 621 653 q 463 375 537 450 q 395 319 427 339 q 338 298 362 298 q 314 317 314 298 q 332 355 314 327 q 387 468 355 393 q 393 484 390 475 q 401 507 397 492 z "},"m":{"ha":1071,"x_min":32,"x_max":1043,"o":"m 775 245 l 590 56 q 532 6 554 20 q 484 -7 510 -7 q 414 24 442 -7 q 386 100 386 55 q 394 160 386 127 q 428 258 403 193 q 437 282 433 272 q 444 298 441 292 l 441 301 q 313 155 376 232 q 229 61 260 92 q 172 14 197 30 q 127 -1 147 -1 q 58 33 83 -1 q 32 127 32 68 q 97 371 32 203 q 187 571 155 520 q 294 642 234 642 q 355 624 331 642 q 379 579 379 607 q 340 424 379 528 q 310 336 326 385 l 313 334 q 393 429 338 361 q 538 590 489 547 q 653 648 601 648 q 697 633 676 648 q 731 591 718 617 q 743 536 743 565 q 701 387 743 507 q 688 348 692 362 q 679 323 683 334 l 682 321 q 699 338 692 330 q 716 354 707 345 q 733 370 725 362 q 825 463 751 387 q 902 537 874 517 q 956 557 930 557 q 1020 528 998 557 q 1042 443 1042 499 q 1031 334 1042 408 q 1018 202 1021 250 q 1014 135 1014 154 q 1016 99 1014 121 q 1021 52 1017 77 q 1032 -4 1025 26 q 1043 -62 1040 -41 q 1007 -104 1038 -87 q 942 -121 977 -121 q 838 -71 886 -121 q 804 -24 816 -47 q 787 32 792 -1 q 782 117 782 64 q 790 260 782 151 l 787 262 l 775 245 z "},"n":{"ha":708,"x_min":36,"x_max":690,"o":"m 326 358 l 367 406 q 465 508 429 474 q 530 556 501 541 q 589 571 559 571 q 656 545 637 571 q 676 456 676 519 q 671 378 676 429 q 663 249 663 309 q 669 139 663 181 q 684 87 674 113 q 690 54 690 63 q 682 37 690 43 q 627 5 661 19 q 568 -8 592 -8 q 498 18 530 -8 q 449 92 467 45 q 432 197 432 138 q 440 290 432 237 l 437 293 q 390 241 408 260 q 357 205 372 222 q 228 49 281 119 q 191 1 208 22 q 134 -24 165 -24 q 63 9 90 -24 q 36 93 36 41 q 43 171 36 125 q 63 270 51 217 q 93 378 76 322 q 131 484 111 433 q 207 614 162 567 q 281 644 237 644 q 351 553 351 644 q 323 361 351 486 l 326 358 z "},"o":{"ha":753,"x_min":37,"x_max":730,"o":"m 488 682 q 589 659 589 682 q 543 629 589 631 q 441 598 488 626 q 356 522 393 570 q 299 414 319 474 q 278 286 278 353 q 313 167 278 212 q 403 122 347 122 q 493 175 454 122 q 532 298 532 228 q 508 407 532 356 q 437 492 484 457 q 418 514 418 507 q 446 543 418 524 q 515 578 477 564 q 581 593 554 593 q 638 577 611 593 q 687 531 666 561 q 719 464 708 502 q 730 382 730 425 q 703 240 730 310 q 632 126 676 170 q 495 36 575 71 q 342 1 414 1 q 202 26 271 1 q 92 90 132 50 q 37 244 37 144 q 76 401 37 323 q 181 544 115 480 q 327 645 247 608 q 488 682 406 682 z "},"p":{"ha":766,"x_min":36,"x_max":750,"o":"m 307 155 q 379 100 326 100 q 449 133 416 100 q 500 224 481 167 q 519 345 519 281 q 512 431 519 395 q 494 468 504 468 q 460 432 488 468 q 404 349 432 396 q 318 186 347 256 q 307 155 311 168 m 359 446 l 380 485 q 436 572 410 537 q 481 623 461 607 q 528 650 500 640 q 576 659 550 659 q 668 628 628 659 q 729 541 707 597 q 750 410 750 484 q 702 205 750 303 q 577 47 654 107 q 416 -14 499 -14 q 336 7 368 -14 q 277 77 304 27 l 272 65 l 268 50 q 198 -158 224 -92 q 153 -240 172 -225 q 118 -254 138 -254 q 58 -216 79 -254 q 36 -110 36 -178 q 52 69 36 -35 q 97 282 68 174 q 161 479 126 391 q 212 574 184 534 q 265 633 240 615 q 304 644 283 644 q 353 627 336 644 q 370 579 370 610 q 364 521 370 553 q 357 449 360 490 l 359 446 z "},"q":{"ha":761,"x_min":39,"x_max":717,"o":"m 541 380 l 532 380 l 522 380 q 511 380 515 380 q 500 379 506 380 q 467 390 467 379 q 481 418 467 397 q 512 487 497 448 q 528 541 528 526 q 517 557 528 557 q 492 546 507 557 q 437 500 465 528 q 384 442 408 473 q 343 383 359 412 q 304 280 320 340 q 288 178 288 221 q 298 147 288 147 q 407 244 318 147 q 503 343 451 291 l 541 380 m 431 127 l 404 106 q 322 48 361 72 q 253 16 283 25 q 191 7 223 7 q 80 50 122 7 q 39 164 39 94 q 74 315 39 233 q 170 472 109 397 q 302 595 231 547 q 538 665 408 665 q 675 642 634 665 q 717 562 717 618 q 679 453 717 503 q 631 408 663 432 l 639 403 q 646 399 644 400 q 688 369 678 380 q 697 334 697 357 q 683 233 697 307 q 648 93 668 159 q 513 -215 574 -155 q 455 -243 498 -229 q 386 -258 412 -258 q 353 -244 365 -258 q 340 -207 340 -229 q 411 58 340 -144 q 429 113 426 102 l 433 125 l 431 127 z "},"r":{"ha":450,"x_min":33,"x_max":431,"o":"m 265 207 l 262 193 q 260 160 262 182 q 252 106 257 127 q 238 71 248 85 q 212 41 229 57 q 113 -4 163 -4 q 53 26 72 -4 q 33 122 33 56 q 45 253 33 175 q 74 392 57 330 l 79 410 q 83 427 79 414 q 130 563 109 519 q 180 635 151 608 q 240 656 207 656 q 298 597 288 656 q 317 616 308 606 q 347 648 336 640 q 372 656 358 656 q 431 541 431 656 q 417 418 431 477 q 383 322 404 359 q 342 285 362 285 q 319 370 319 285 q 314 440 319 414 q 298 479 309 465 q 272 306 278 441 q 265 207 267 227 z "},"s":{"ha":623,"x_min":39,"x_max":602,"o":"m 237 -29 q 310 10 277 -27 q 343 90 343 47 q 323 138 343 120 q 229 179 302 159 q 89 249 121 210 q 58 323 58 280 q 115 479 58 401 q 260 607 172 557 q 437 657 348 657 q 519 637 481 657 q 579 583 557 616 q 602 510 602 549 q 577 430 602 471 q 516 361 553 389 q 446 334 479 334 q 413 342 427 334 q 399 359 399 350 q 404 387 399 369 q 419 489 419 446 q 393 570 419 532 q 350 533 360 547 q 310 465 324 503 q 294 392 294 427 q 306 353 294 368 q 342 328 317 338 q 419 306 368 318 q 541 265 505 285 q 566 245 549 260 q 591 174 591 218 q 562 79 591 127 q 472 -20 533 31 q 342 -98 407 -75 q 200 -122 278 -122 q 82 -92 125 -122 q 39 -11 39 -62 q 67 63 39 26 q 138 125 96 101 q 221 149 180 149 q 252 135 252 149 q 243 113 252 128 q 216 25 216 65 q 237 -29 216 -3 z "},"t":{"ha":478,"x_min":41,"x_max":458,"o":"m 164 656 l 167 664 q 244 842 212 790 q 288 885 260 866 q 386 918 340 918 q 427 906 413 918 q 441 871 441 894 q 421 807 441 855 q 370 657 387 727 q 392 653 381 656 q 446 639 433 647 q 458 611 458 631 q 440 545 458 575 q 392 500 422 514 q 319 486 370 490 q 300 414 311 460 q 286 301 294 373 q 282 252 282 275 q 386 144 282 144 l 390 144 l 392 144 q 404 140 404 144 q 381 104 404 130 q 330 58 358 78 q 265 26 300 38 q 201 14 230 14 q 86 62 130 14 q 41 189 41 110 q 53 278 41 223 q 90 425 65 333 q 99 459 94 441 q 104 481 104 477 q 66 492 77 481 q 54 528 54 503 q 87 608 54 570 q 164 656 120 646 z "},"u":{"ha":737,"x_min":37,"x_max":711,"o":"m 454 212 l 443 203 q 397 168 439 201 q 263 67 316 104 q 175 13 210 31 q 118 -4 140 -4 q 59 26 81 -4 q 37 104 37 56 q 62 294 37 186 q 127 507 86 402 q 239 650 173 624 q 293 660 262 660 q 362 633 336 660 q 389 564 389 607 q 378 500 389 534 q 346 421 368 467 l 338 401 q 279 252 279 278 q 290 236 279 236 q 317 250 300 236 q 367 302 333 264 q 427 367 388 328 l 452 392 l 473 415 q 585 513 542 483 q 657 543 629 543 q 711 449 711 543 q 707 379 711 429 q 699 214 699 281 q 700 189 699 200 q 700 160 700 178 q 707 90 705 115 q 711 52 711 52 q 675 16 711 31 q 590 0 638 0 q 514 17 546 0 q 467 68 483 35 q 450 151 450 102 q 452 173 450 157 q 454 212 453 188 z "},"v":{"ha":599,"x_min":39,"x_max":576,"o":"m 452 574 l 463 595 q 491 642 479 630 q 521 653 502 653 q 576 528 576 653 q 571 465 576 491 q 553 414 566 438 q 511 339 537 381 q 451 251 484 298 q 379 158 417 205 q 264 32 311 72 q 186 -8 218 -8 q 102 64 127 -8 q 70 174 84 109 q 47 304 55 238 q 39 432 39 370 q 54 576 39 517 q 96 653 69 635 q 146 667 119 667 q 204 657 177 667 q 248 628 232 647 q 269 590 262 614 q 278 519 276 567 q 281 387 281 471 l 281 353 l 281 288 l 281 211 l 283 211 q 304 256 296 240 q 389 436 326 298 q 437 545 401 465 l 452 574 z "},"w":{"ha":940,"x_min":33,"x_max":924,"o":"m 419 281 l 390 220 q 317 86 350 138 q 255 13 283 35 q 195 -8 227 -8 q 138 20 162 -8 q 58 231 90 75 q 33 447 33 356 q 50 561 33 518 q 100 623 66 603 q 191 643 135 643 q 233 633 220 643 q 251 592 246 623 q 256 500 256 562 q 267 288 256 387 q 273 233 268 282 l 277 233 q 284 250 281 243 q 290 262 287 256 q 295 273 292 268 q 301 288 297 278 q 376 475 337 369 q 439 623 422 596 q 452 636 444 629 q 545 660 484 660 q 592 648 576 660 q 613 608 608 636 q 621 517 619 581 q 632 375 621 466 q 659 212 644 283 q 679 119 663 188 l 682 119 q 703 189 697 164 q 722 437 722 275 l 722 468 q 731 545 722 516 q 762 597 740 574 q 817 636 786 621 q 872 652 848 652 q 912 630 900 652 q 924 558 924 608 q 878 281 924 447 q 772 20 838 139 q 732 -41 751 -18 q 691 -75 712 -65 q 643 -85 670 -85 q 485 39 547 -85 q 452 125 467 77 q 428 236 438 173 q 422 281 425 247 l 419 281 z "},"x":{"ha":694,"x_min":31,"x_max":679,"o":"m 339 146 l 332 139 q 321 130 328 136 q 309 118 315 123 q 193 20 231 46 q 123 -5 155 -5 q 57 19 83 -5 q 31 81 31 43 q 66 158 31 123 q 115 199 76 168 q 201 269 177 247 q 250 322 228 296 q 195 432 222 382 q 161 486 176 461 q 118 541 138 519 q 75 576 97 562 q 49 606 49 592 q 75 628 49 618 q 140 637 102 637 q 296 591 231 637 q 326 569 313 579 q 358 540 339 559 q 397 501 377 522 q 505 610 452 572 q 599 648 557 648 q 653 638 627 648 q 679 615 679 627 q 657 554 679 589 q 585 461 635 519 q 535 401 543 412 q 503 353 526 390 l 664 94 q 677 56 677 72 q 634 4 677 28 q 539 -20 590 -20 q 397 47 447 -20 q 339 146 374 80 z "},"y":{"ha":694,"x_min":28,"x_max":684,"o":"m 469 465 l 478 494 q 532 599 496 562 q 585 637 555 622 q 639 652 614 652 q 684 614 684 652 q 671 555 684 595 q 639 464 659 515 q 592 353 619 414 q 533 229 566 293 q 414 25 474 109 q 326 -81 370 -35 q 232 -163 281 -127 q 139 -219 182 -200 q 58 -237 95 -237 q 28 -211 28 -237 q 37 -161 28 -190 q 64 -106 47 -132 q 110 -62 82 -81 q 214 -7 145 -38 q 152 102 173 62 q 106 201 131 142 q 50 441 50 334 q 71 575 50 524 q 138 637 89 619 q 208 653 177 653 q 268 620 252 653 q 294 463 283 586 q 334 201 307 330 q 345 147 338 182 l 347 147 q 387 244 366 187 q 435 364 394 260 q 469 465 458 427 z "},"z":{"ha":593,"x_min":28,"x_max":586,"o":"m 385 524 l 355 513 q 119 458 195 458 q 68 504 68 458 q 83 559 68 529 q 119 611 98 590 q 168 648 145 637 q 224 659 190 659 q 250 658 235 659 q 283 657 264 658 q 464 649 418 652 q 536 642 509 647 q 573 625 559 637 q 586 599 586 613 q 349 204 586 555 l 323 167 l 355 167 q 522 199 442 167 q 547 205 543 205 q 568 170 568 205 q 537 62 568 111 q 449 -14 505 14 q 326 -41 393 -41 q 175 -26 243 -41 q 67 15 106 -12 q 28 75 28 42 q 44 117 28 93 q 111 193 61 141 q 149 235 119 203 l 171 258 l 195 286 l 211 306 l 228 323 q 326 439 286 388 q 351 472 340 456 q 387 521 362 487 l 385 524 z "},"{":{"ha":541,"x_min":129,"x_max":593,"o":"m 129 386 l 129 549 q 212 568 184 551 q 257 623 241 585 q 274 689 270 656 q 278 791 278 722 l 278 803 l 278 815 q 280 900 278 866 q 287 960 282 935 q 300 1006 292 985 q 363 1079 319 1051 q 440 1110 401 1102 q 557 1118 480 1118 l 593 1118 l 593 957 l 583 957 q 499 949 525 957 q 464 922 473 942 q 454 859 454 903 q 452 777 454 877 q 450 732 451 753 q 448 696 449 711 q 446 667 447 681 q 429 587 444 627 q 393 521 414 546 q 326 467 372 496 q 429 346 403 422 q 444 280 441 309 q 452 158 448 250 q 454 77 454 59 q 467 10 454 31 q 514 -18 480 -11 q 583 -22 538 -22 l 591 -22 l 591 -184 l 557 -184 q 438 -176 478 -184 q 361 -144 398 -168 q 300 -71 317 -115 q 282 1 287 -39 q 277 118 277 41 l 277 131 l 277 142 q 273 247 277 213 q 256 311 269 281 q 205 370 235 353 q 129 386 176 383 z "},"|":{"ha":817,"x_min":335,"x_max":482,"o":"m 335 966 l 482 966 l 482 -187 l 335 -187 l 335 966 z "},"}":{"ha":542,"x_min":75,"x_max":539,"o":"m 539 549 l 539 386 q 478 376 502 384 q 439 353 455 368 q 412 311 424 338 q 396 249 400 282 q 392 142 392 216 l 392 131 l 392 118 q 387 0 392 38 q 368 -71 382 -39 q 307 -144 349 -118 q 229 -176 268 -168 q 111 -184 190 -184 l 77 -184 l 77 -22 l 85 -22 q 152 -19 130 -22 q 189 -3 174 -15 q 209 26 203 9 q 214 77 214 43 q 216 158 214 59 q 220 225 219 198 q 222 268 222 252 q 239 346 227 307 q 278 416 254 388 q 342 467 301 444 q 276 521 298 494 q 239 587 253 547 q 226 632 229 616 q 221 683 223 648 q 216 777 218 718 q 214 859 214 877 q 191 939 214 922 q 85 957 168 957 l 75 957 l 75 1118 l 111 1118 q 231 1110 190 1118 q 306 1079 271 1102 q 368 1006 351 1050 q 386 936 381 973 q 390 815 390 899 l 390 803 l 390 791 q 392 712 390 744 q 398 661 394 680 q 411 623 403 642 q 463 564 431 581 q 495 552 481 555 q 539 549 510 549 z "},"~":{"ha":926,"x_min":87,"x_max":840,"o":"m 791 583 l 840 583 q 813 452 838 509 q 744 366 788 395 q 643 336 701 336 q 585 342 614 336 q 511 364 555 347 q 385 415 466 380 q 245 456 290 456 q 171 425 199 456 q 135 336 143 395 l 87 336 q 105 451 90 407 q 150 528 119 495 q 209 569 175 555 q 281 583 243 583 q 449 542 346 583 q 541 505 501 523 q 675 463 636 463 q 756 494 726 463 q 791 583 786 525 z "},"":{"ha":1013,"x_min":24,"x_max":1011,"o":"m 557 648 l 432 385 l 616 385 l 559 648 l 557 648 m 498 827 l 457 901 q 486 918 473 913 q 612 936 538 936 q 728 893 687 936 q 785 789 763 856 q 827 597 808 722 q 844 503 837 534 q 876 389 868 414 q 904 310 884 364 q 922 266 911 294 q 943 214 933 238 q 1011 74 966 161 q 915 16 954 34 q 843 -1 876 -1 q 776 14 803 -1 q 728 64 749 30 q 676 189 702 110 q 670 208 673 197 q 661 233 666 220 q 538 200 582 200 q 494 201 513 200 q 350 205 479 203 l 343 192 q 273 71 305 113 q 198 13 240 30 q 92 -4 155 -4 q 39 4 55 -4 q 24 31 24 12 q 98 154 24 53 q 138 210 125 189 q 66 260 66 223 q 123 349 66 290 q 174 385 151 377 q 256 393 197 393 q 325 520 310 493 q 363 590 340 548 q 417 685 387 631 q 498 827 448 738 m 514 996 q 473 1007 488 996 q 457 1038 457 1019 q 474 1100 457 1059 q 507 1156 493 1143 q 559 1180 522 1170 q 636 1190 597 1190 q 681 1150 681 1190 q 629 1044 681 1092 q 514 996 578 996 m 781 966 q 698 1029 698 966 q 709 1084 698 1056 q 735 1128 720 1112 q 836 1154 761 1154 q 901 1118 901 1154 q 890 1078 901 1104 q 864 1026 879 1052 q 833 985 849 1000 q 781 966 817 966 z "},"":{"ha":1013,"x_min":24,"x_max":1011,"o":"m 557 648 l 432 385 l 616 385 l 559 648 l 557 648 m 498 827 l 457 901 q 486 918 473 913 q 612 936 538 936 q 728 893 687 936 q 785 789 763 856 q 827 597 808 722 q 844 503 837 534 q 876 389 868 414 q 904 310 884 364 q 922 266 911 294 q 943 214 933 238 q 1011 74 966 161 q 915 16 954 34 q 843 -1 876 -1 q 776 14 803 -1 q 728 64 749 30 q 676 189 702 110 q 670 208 673 197 q 661 233 666 220 q 538 200 582 200 q 494 201 513 200 q 350 205 479 203 l 343 192 q 273 71 305 113 q 198 13 240 30 q 92 -4 155 -4 q 39 4 55 -4 q 24 31 24 12 q 98 154 24 53 q 138 210 125 189 q 66 260 66 223 q 123 349 66 290 q 174 385 151 377 q 256 393 197 393 q 325 520 310 493 q 363 590 340 548 q 417 685 387 631 q 498 827 448 738 m 635 1178 q 720 1222 679 1222 q 773 1207 749 1222 q 811 1164 797 1192 q 825 1107 825 1137 q 778 1005 825 1047 q 663 964 730 964 q 563 991 600 964 q 527 1067 527 1019 q 557 1144 527 1112 q 635 1178 587 1175 m 698 1028 q 732 1044 716 1028 q 747 1079 747 1059 q 725 1122 747 1107 q 663 1137 702 1137 q 625 1118 625 1137 q 635 1063 625 1091 q 650 1047 638 1053 q 698 1028 679 1028 z "},"":{"ha":854,"x_min":37,"x_max":835,"o":"m 542 492 q 587 644 568 559 q 606 783 606 728 q 589 819 606 819 q 532 778 573 819 q 422 625 470 711 q 348 448 374 538 q 322 272 322 358 q 337 179 322 204 q 392 154 351 154 q 479 174 427 154 q 729 307 597 220 q 803 345 787 345 q 825 322 825 345 l 825 321 q 804 252 822 290 q 743 154 769 177 q 624 78 700 115 q 469 17 549 41 q 336 -7 390 -7 q 220 17 275 -7 q 124 81 165 40 q 60 176 83 121 q 37 292 37 230 q 52 393 37 338 q 96 507 67 448 q 160 619 124 567 q 204 679 181 650 q 254 734 227 707 q 314 787 281 762 q 374 829 347 812 q 472 885 421 861 q 566 920 523 909 q 646 932 610 932 q 785 886 734 932 q 835 758 835 840 q 793 579 835 673 q 681 416 751 486 q 585 338 633 367 q 500 310 538 310 q 467 342 467 310 q 485 383 467 357 q 542 492 511 420 m 277 -79 q 217 -60 217 -79 q 231 -28 217 -44 q 267 -4 244 -13 q 313 5 289 5 q 375 -18 351 5 q 400 -79 400 -41 q 377 -136 400 -106 q 319 -184 355 -165 q 249 -203 283 -203 q 214 -194 229 -203 q 199 -174 199 -184 q 213 -163 199 -166 q 277 -79 273 -144 z "},"":{"ha":854,"x_min":45,"x_max":840,"o":"m 599 307 l 351 309 l 351 292 q 380 202 351 242 q 443 161 408 161 q 545 187 478 161 q 697 261 612 213 l 721 275 q 754 296 745 289 q 804 321 794 321 q 817 298 817 321 q 808 243 817 274 q 785 183 799 212 q 758 142 772 154 q 626 66 720 107 q 436 3 532 26 q 376 -4 404 -4 q 207 34 283 -4 q 87 137 130 71 q 45 283 45 203 q 73 430 45 350 q 151 590 100 510 q 264 734 201 669 q 387 838 319 791 q 518 909 454 884 q 636 935 583 935 q 780 887 720 935 q 840 771 840 839 q 829 706 840 741 q 800 644 819 671 q 744 589 781 616 q 660 542 707 562 q 564 519 604 519 q 524 539 524 519 q 546 575 524 551 q 593 635 570 597 q 631 729 614 675 q 647 814 647 783 q 632 839 647 839 q 547 787 608 839 q 449 684 485 734 q 393 587 415 636 q 364 490 372 538 l 726 490 q 786 460 786 490 q 720 367 786 431 q 599 307 654 307 m 550 1046 q 619 1137 581 1078 q 642 1169 637 1164 q 656 1178 646 1174 q 734 1200 686 1188 q 798 1211 782 1211 q 819 1193 819 1211 q 744 1082 819 1153 q 630 997 686 1026 q 522 968 574 968 q 493 989 493 968 q 498 1003 493 997 q 519 1021 504 1009 q 550 1046 526 1025 z "},"":{"ha":1114,"x_min":33,"x_max":1101,"o":"m 164 322 l 211 450 l 275 614 q 335 754 309 703 q 354 806 354 791 q 322 848 354 825 q 301 873 301 863 q 343 903 301 887 q 425 929 379 918 q 500 940 471 940 q 586 909 557 940 q 669 694 620 875 q 714 553 690 621 q 755 454 739 484 q 781 412 760 444 q 833 599 803 484 q 916 844 878 781 q 942 880 927 865 q 1002 920 970 906 q 1067 933 1034 933 q 1094 923 1086 933 q 1101 886 1101 913 q 1099 857 1101 867 q 1075 766 1092 822 q 1027 622 1058 710 q 950 410 996 534 l 940 385 q 930 358 935 368 q 806 60 848 128 q 785 33 797 45 q 743 12 764 12 q 631 123 691 12 q 458 533 521 323 q 439 607 446 572 l 436 607 l 354 349 q 349 331 353 342 q 342 311 345 321 q 335 295 339 304 q 329 279 332 286 q 292 177 307 212 q 264 121 278 143 q 228 75 252 100 q 151 25 193 43 q 68 7 109 7 q 33 35 33 7 q 64 107 33 56 q 143 269 99 166 q 164 322 151 291 m 574 1044 q 540 1067 540 1044 q 619 1128 540 1097 q 728 1154 690 1154 q 773 1146 751 1154 q 819 1120 795 1138 q 873 1095 853 1095 q 916 1101 895 1095 q 936 1104 937 1104 q 950 1099 944 1104 q 956 1084 956 1094 q 926 1050 956 1070 q 805 1006 857 1006 q 709 1043 761 1006 q 661 1065 678 1065 q 622 1055 649 1065 q 574 1044 592 1044 z "},"":{"ha":882,"x_min":33,"x_max":867,"o":"m 449 737 q 381 660 402 690 q 335 574 359 630 q 309 488 317 533 q 298 385 298 448 q 315 236 298 296 q 366 147 332 177 q 446 117 399 117 q 523 144 484 117 q 595 217 563 172 q 647 318 627 262 q 667 425 667 374 q 603 619 667 518 q 579 675 579 660 q 610 730 579 703 q 689 789 644 764 q 760 815 734 815 q 791 808 774 815 q 817 790 808 801 q 852 708 838 768 q 867 581 867 648 q 801 285 867 420 q 624 71 736 150 q 380 -8 511 -8 q 231 20 305 -8 q 111 94 157 47 q 33 298 33 172 q 62 454 33 372 q 140 613 90 536 q 255 755 190 691 q 390 857 321 820 q 526 911 453 891 q 653 932 598 932 q 730 908 730 932 q 714 879 730 899 q 662 840 684 851 q 590 814 640 828 q 511 784 536 798 q 449 737 487 771 m 461 996 q 420 1007 435 996 q 404 1038 404 1019 q 421 1100 404 1059 q 454 1156 440 1143 q 507 1180 469 1170 q 583 1190 544 1190 q 628 1150 628 1190 q 576 1044 628 1092 q 461 996 525 996 m 728 966 q 645 1029 645 966 q 656 1084 645 1056 q 682 1128 667 1112 q 783 1154 708 1154 q 848 1118 848 1154 q 837 1078 848 1104 q 811 1026 826 1052 q 781 985 796 1000 q 728 966 764 966 z "},"":{"ha":868,"x_min":33,"x_max":854,"o":"m 543 319 l 545 319 l 542 319 q 452 175 490 230 q 378 85 413 120 q 291 19 334 41 q 208 -4 248 -4 q 79 46 125 -4 q 33 186 33 96 q 97 529 33 302 q 141 670 119 604 q 189 798 163 736 q 229 885 215 859 q 257 913 239 903 q 306 930 274 924 q 397 940 355 940 q 469 878 469 940 q 439 772 469 842 q 395 657 411 706 q 390 643 393 653 q 382 619 387 633 q 347 497 369 578 q 313 359 326 416 q 301 285 301 302 q 315 260 301 260 q 386 330 331 260 q 505 501 438 397 q 615 685 572 604 q 657 756 644 737 q 684 786 670 776 q 768 812 720 812 q 831 755 831 812 q 827 708 831 744 q 808 435 808 560 q 812 332 808 378 q 822 241 815 286 q 840 149 829 197 q 854 68 854 83 q 847 47 854 57 q 804 21 836 31 q 714 -1 745 -1 q 640 27 675 -1 q 582 107 605 56 q 547 265 555 168 q 543 319 545 281 m 454 996 q 412 1007 428 996 q 397 1038 397 1019 q 414 1100 397 1059 q 447 1156 433 1143 q 499 1180 462 1170 q 576 1190 536 1190 q 621 1150 621 1190 q 569 1044 621 1092 q 454 996 517 996 m 720 966 q 637 1029 637 966 q 648 1084 637 1056 q 675 1128 659 1112 q 776 1154 701 1154 q 840 1118 840 1154 q 829 1078 840 1104 q 804 1026 819 1052 q 773 985 789 1000 q 720 966 757 966 z "},"":{"ha":766,"x_min":28,"x_max":757,"o":"m 541 353 l 528 349 q 457 335 479 335 q 431 349 431 335 q 441 374 431 353 q 479 482 479 431 q 469 535 479 511 q 447 559 459 559 q 414 536 436 559 q 314 396 351 468 q 277 268 277 324 q 292 206 277 231 q 330 182 307 182 q 404 224 350 182 q 525 335 458 266 l 543 350 l 541 353 m 500 197 l 500 195 l 497 197 q 381 76 434 123 q 284 5 329 29 q 203 -18 240 -18 q 77 33 127 -18 q 28 161 28 83 q 52 275 28 210 q 119 404 77 341 q 298 579 191 507 q 513 653 410 653 q 655 617 600 653 q 711 528 711 582 q 684 443 711 488 q 730 435 720 443 q 739 399 739 427 q 736 371 739 401 q 732 245 732 304 q 732 199 732 215 q 735 163 733 184 q 739 131 737 143 q 757 68 745 99 q 679 9 716 28 q 603 -9 642 -9 q 498 165 498 -9 q 500 197 498 186 m 464 843 q 533 935 494 876 q 555 966 551 962 q 570 975 559 971 q 648 997 600 985 q 712 1008 696 1008 q 733 990 733 1008 q 658 879 733 950 q 544 794 600 823 q 436 765 488 765 q 407 786 407 765 q 412 800 407 794 q 433 818 418 806 q 464 843 440 823 z "},"":{"ha":766,"x_min":28,"x_max":757,"o":"m 541 353 l 528 349 q 457 335 479 335 q 431 349 431 335 q 441 374 431 353 q 479 482 479 431 q 469 535 479 511 q 447 559 459 559 q 414 536 436 559 q 314 396 351 468 q 277 268 277 324 q 292 206 277 231 q 330 182 307 182 q 404 224 350 182 q 525 335 458 266 l 543 350 l 541 353 m 500 197 l 500 195 l 497 197 q 381 76 434 123 q 284 5 329 29 q 203 -18 240 -18 q 77 33 127 -18 q 28 161 28 83 q 52 275 28 210 q 119 404 77 341 q 298 579 191 507 q 513 653 410 653 q 655 617 600 653 q 711 528 711 582 q 684 443 711 488 q 730 435 720 443 q 739 399 739 427 q 736 371 739 401 q 732 245 732 304 q 732 199 732 215 q 735 163 733 184 q 739 131 737 143 q 757 68 745 99 q 679 9 716 28 q 603 -9 642 -9 q 498 165 498 -9 q 500 197 498 186 m 465 1003 q 488 993 478 1003 q 512 957 498 983 q 589 854 541 901 q 600 844 595 848 q 612 832 606 839 q 633 813 627 821 q 639 794 639 805 q 589 764 639 764 q 393 844 475 764 q 358 886 370 867 q 346 917 346 905 q 365 942 346 924 q 411 978 384 960 q 465 1003 449 1003 z "},"":{"ha":766,"x_min":28,"x_max":757,"o":"m 541 353 l 528 349 q 457 335 479 335 q 431 349 431 335 q 441 374 431 353 q 479 482 479 431 q 469 535 479 511 q 447 559 459 559 q 414 536 436 559 q 314 396 351 468 q 277 268 277 324 q 292 206 277 231 q 330 182 307 182 q 404 224 350 182 q 525 335 458 266 l 543 350 l 541 353 m 500 197 l 500 195 l 497 197 q 381 76 434 123 q 284 5 329 29 q 203 -18 240 -18 q 77 33 127 -18 q 28 161 28 83 q 52 275 28 210 q 119 404 77 341 q 298 579 191 507 q 513 653 410 653 q 655 617 600 653 q 711 528 711 582 q 684 443 711 488 q 730 435 720 443 q 739 399 739 427 q 736 371 739 401 q 732 245 732 304 q 732 199 732 215 q 735 163 733 184 q 739 131 737 143 q 757 68 745 99 q 679 9 716 28 q 603 -9 642 -9 q 498 165 498 -9 q 500 197 498 186 m 498 859 l 486 850 q 378 807 416 807 q 332 842 332 807 q 365 887 332 865 q 481 939 397 909 q 581 970 564 970 q 622 943 599 970 q 668 897 635 928 q 704 864 694 872 q 733 831 733 839 q 704 800 733 814 q 640 786 675 786 q 571 802 603 786 q 498 859 540 819 z "},"":{"ha":766,"x_min":28,"x_max":757,"o":"m 541 353 l 528 349 q 457 335 479 335 q 431 349 431 335 q 441 374 431 353 q 479 482 479 431 q 469 535 479 511 q 447 559 459 559 q 414 536 436 559 q 314 396 351 468 q 277 268 277 324 q 292 206 277 231 q 330 182 307 182 q 404 224 350 182 q 525 335 458 266 l 543 350 l 541 353 m 500 197 l 500 195 l 497 197 q 381 76 434 123 q 284 5 329 29 q 203 -18 240 -18 q 77 33 127 -18 q 28 161 28 83 q 52 275 28 210 q 119 404 77 341 q 298 579 191 507 q 513 653 410 653 q 655 617 600 653 q 711 528 711 582 q 684 443 711 488 q 730 435 720 443 q 739 399 739 427 q 736 371 739 401 q 732 245 732 304 q 732 199 732 215 q 735 163 733 184 q 739 131 737 143 q 757 68 745 99 q 679 9 716 28 q 603 -9 642 -9 q 498 165 498 -9 q 500 197 498 186 m 361 793 q 319 804 335 793 q 304 835 304 816 q 321 897 304 857 q 354 953 340 941 q 406 977 369 967 q 483 987 444 987 q 528 947 528 987 q 476 841 528 889 q 361 793 425 793 m 627 764 q 545 827 545 764 q 555 881 545 853 q 582 925 566 909 q 683 951 608 951 q 747 916 747 951 q 736 875 747 901 q 711 823 726 849 q 680 782 696 798 q 627 764 664 764 z "},"":{"ha":766,"x_min":28,"x_max":757,"o":"m 541 353 l 528 349 q 457 335 479 335 q 431 349 431 335 q 441 374 431 353 q 479 482 479 431 q 469 535 479 511 q 447 559 459 559 q 414 536 436 559 q 314 396 351 468 q 277 268 277 324 q 292 206 277 231 q 330 182 307 182 q 404 224 350 182 q 525 335 458 266 l 543 350 l 541 353 m 500 197 l 500 195 l 497 197 q 381 76 434 123 q 284 5 329 29 q 203 -18 240 -18 q 77 33 127 -18 q 28 161 28 83 q 52 275 28 210 q 119 404 77 341 q 298 579 191 507 q 513 653 410 653 q 655 617 600 653 q 711 528 711 582 q 684 443 711 488 q 730 435 720 443 q 739 399 739 427 q 736 371 739 401 q 732 245 732 304 q 732 199 732 215 q 735 163 733 184 q 739 131 737 143 q 757 68 745 99 q 679 9 716 28 q 603 -9 642 -9 q 498 165 498 -9 q 500 197 498 186 m 358 842 q 323 864 323 842 q 403 925 323 894 q 511 951 473 951 q 557 943 535 951 q 603 917 578 935 q 657 892 637 892 q 700 899 678 892 q 720 901 720 901 q 733 896 728 901 q 739 882 739 891 q 710 847 739 867 q 589 803 640 803 q 493 840 545 803 q 444 863 462 863 q 406 852 433 863 q 358 842 376 842 z "},"":{"ha":766,"x_min":28,"x_max":757,"o":"m 541 353 l 528 349 q 457 335 479 335 q 431 349 431 335 q 441 374 431 353 q 479 482 479 431 q 469 535 479 511 q 447 559 459 559 q 414 536 436 559 q 314 396 351 468 q 277 268 277 324 q 292 206 277 231 q 330 182 307 182 q 404 224 350 182 q 525 335 458 266 l 543 350 l 541 353 m 500 197 l 500 195 l 497 197 q 381 76 434 123 q 284 5 329 29 q 203 -18 240 -18 q 77 33 127 -18 q 28 161 28 83 q 52 275 28 210 q 119 404 77 341 q 298 579 191 507 q 513 653 410 653 q 655 617 600 653 q 711 528 711 582 q 684 443 711 488 q 730 435 720 443 q 739 399 739 427 q 736 371 739 401 q 732 245 732 304 q 732 199 732 215 q 735 163 733 184 q 739 131 737 143 q 757 68 745 99 q 679 9 716 28 q 603 -9 642 -9 q 498 165 498 -9 q 500 197 498 186 m 481 975 q 566 1019 526 1019 q 620 1004 595 1019 q 658 961 644 989 q 672 904 672 934 q 624 803 672 844 q 509 761 576 761 q 410 788 446 761 q 374 864 374 816 q 404 941 374 909 q 481 975 434 972 m 545 825 q 578 841 563 825 q 594 876 594 857 q 571 919 594 904 q 509 935 549 935 q 472 916 472 935 q 481 860 472 888 q 497 844 485 850 q 545 825 526 825 z "},"":{"ha":534,"x_min":36,"x_max":519,"o":"m 407 654 q 489 625 458 652 q 519 550 519 597 q 496 468 519 509 q 437 400 473 427 q 366 374 401 374 q 345 389 345 374 q 353 412 345 394 q 379 515 379 457 q 372 545 379 545 q 345 520 363 545 q 315 463 328 496 q 280 351 294 410 q 267 252 267 292 q 280 179 267 205 q 319 153 294 153 q 381 177 342 153 q 454 237 420 201 q 479 256 469 256 q 496 237 496 256 q 431 86 496 154 q 328 14 386 41 q 224 -14 270 -14 q 90 37 143 -14 q 36 165 36 88 q 70 328 36 243 q 164 490 104 413 q 298 618 223 566 q 404 654 353 654 l 407 654 m 117 -79 q 57 -60 57 -79 q 71 -28 57 -44 q 106 -4 84 -13 q 153 5 129 5 q 215 -18 191 5 q 240 -79 240 -41 q 217 -136 240 -106 q 159 -184 195 -165 q 89 -203 123 -203 q 54 -194 69 -203 q 39 -174 39 -184 q 53 -163 39 -166 q 117 -79 113 -144 z "},"":{"ha":593,"x_min":32,"x_max":646,"o":"m 269 211 q 317 253 300 232 q 372 354 353 297 q 397 437 388 391 q 406 524 406 484 q 390 561 406 561 q 323 465 368 561 q 280 350 297 408 q 264 252 264 293 q 269 211 264 237 m 271 189 q 323 149 278 149 q 456 208 374 149 q 519 243 503 243 q 557 232 540 243 q 575 210 575 221 q 555 178 575 197 q 473 107 519 142 q 382 51 426 73 q 296 15 339 28 q 218 1 252 1 q 83 50 134 1 q 32 179 32 98 q 59 318 32 241 q 131 464 85 396 q 262 596 184 543 q 447 660 359 660 q 547 620 511 660 q 583 509 583 579 q 554 394 583 454 q 469 279 526 334 q 379 208 423 233 q 301 182 334 182 q 271 189 286 182 m 376 843 q 446 935 407 876 q 468 966 464 962 q 483 975 472 971 q 560 997 512 985 q 625 1008 608 1008 q 646 990 646 1008 q 570 879 646 950 q 456 794 513 823 q 349 765 400 765 q 319 786 319 765 q 325 800 319 794 q 346 818 330 806 q 376 843 353 823 z "},"":{"ha":593,"x_min":32,"x_max":583,"o":"m 269 211 q 317 253 300 232 q 372 354 353 297 q 397 437 388 391 q 406 524 406 484 q 390 561 406 561 q 323 465 368 561 q 280 350 297 408 q 264 252 264 293 q 269 211 264 237 m 271 189 q 323 149 278 149 q 456 208 374 149 q 519 243 503 243 q 557 232 540 243 q 575 210 575 221 q 555 178 575 197 q 473 107 519 142 q 382 51 426 73 q 296 15 339 28 q 218 1 252 1 q 83 50 134 1 q 32 179 32 98 q 59 318 32 241 q 131 464 85 396 q 262 596 184 543 q 447 660 359 660 q 547 620 511 660 q 583 509 583 579 q 554 394 583 454 q 469 279 526 334 q 379 208 423 233 q 301 182 334 182 q 271 189 286 182 m 378 1003 q 401 993 391 1003 q 425 957 411 983 q 501 854 453 901 q 513 844 507 848 q 525 832 518 839 q 545 813 539 821 q 551 794 551 805 q 501 764 551 764 q 305 844 388 764 q 271 886 283 867 q 258 917 258 905 q 277 942 258 924 q 323 978 296 960 q 378 1003 361 1003 z "},"":{"ha":593,"x_min":32,"x_max":646,"o":"m 269 211 q 317 253 300 232 q 372 354 353 297 q 397 437 388 391 q 406 524 406 484 q 390 561 406 561 q 323 465 368 561 q 280 350 297 408 q 264 252 264 293 q 269 211 264 237 m 271 189 q 323 149 278 149 q 456 208 374 149 q 519 243 503 243 q 557 232 540 243 q 575 210 575 221 q 555 178 575 197 q 473 107 519 142 q 382 51 426 73 q 296 15 339 28 q 218 1 252 1 q 83 50 134 1 q 32 179 32 98 q 59 318 32 241 q 131 464 85 396 q 262 596 184 543 q 447 660 359 660 q 547 620 511 660 q 583 509 583 579 q 554 394 583 454 q 469 279 526 334 q 379 208 423 233 q 301 182 334 182 q 271 189 286 182 m 411 859 l 399 850 q 290 807 328 807 q 244 842 244 807 q 277 887 244 865 q 394 939 310 909 q 493 970 477 970 q 534 943 511 970 q 581 897 548 928 q 616 864 607 872 q 646 831 646 839 q 617 800 646 814 q 553 786 588 786 q 484 802 515 786 q 411 859 452 819 z "},"":{"ha":593,"x_min":32,"x_max":660,"o":"m 269 211 q 317 253 300 232 q 372 354 353 297 q 397 437 388 391 q 406 524 406 484 q 390 561 406 561 q 323 465 368 561 q 280 350 297 408 q 264 252 264 293 q 269 211 264 237 m 271 189 q 323 149 278 149 q 456 208 374 149 q 519 243 503 243 q 557 232 540 243 q 575 210 575 221 q 555 178 575 197 q 473 107 519 142 q 382 51 426 73 q 296 15 339 28 q 218 1 252 1 q 83 50 134 1 q 32 179 32 98 q 59 318 32 241 q 131 464 85 396 q 262 596 184 543 q 447 660 359 660 q 547 620 511 660 q 583 509 583 579 q 554 394 583 454 q 469 279 526 334 q 379 208 423 233 q 301 182 334 182 q 271 189 286 182 m 273 793 q 232 804 248 793 q 216 835 216 816 q 233 897 216 857 q 267 953 252 941 q 319 977 281 967 q 395 987 356 987 q 440 947 440 987 q 389 841 440 889 q 273 793 337 793 m 540 764 q 457 827 457 764 q 468 881 457 853 q 494 925 479 909 q 595 951 520 951 q 660 916 660 951 q 649 875 660 901 q 623 823 638 849 q 593 782 608 798 q 540 764 576 764 z "},"":{"ha":347,"x_min":37,"x_max":524,"o":"m 143 -5 l 135 -5 q 82 22 109 -5 q 47 81 58 49 q 37 163 37 113 q 47 283 37 220 q 79 417 58 346 q 123 540 100 488 q 171 623 146 593 q 228 647 191 647 q 315 510 315 647 q 296 327 315 431 q 248 134 277 222 q 189 12 218 45 q 143 -5 174 -5 m 254 843 q 323 935 285 876 q 346 966 342 962 q 361 975 350 971 q 438 997 390 985 q 503 1008 486 1008 q 524 990 524 1008 q 448 879 524 950 q 334 794 391 823 q 227 765 278 765 q 197 786 197 765 q 203 800 197 794 q 224 818 208 806 q 254 843 231 823 z "},"":{"ha":347,"x_min":37,"x_max":429,"o":"m 143 -5 l 135 -5 q 82 22 109 -5 q 47 81 58 49 q 37 163 37 113 q 47 283 37 220 q 79 417 58 346 q 123 540 100 488 q 171 623 146 593 q 228 647 191 647 q 315 510 315 647 q 296 327 315 431 q 248 134 277 222 q 189 12 218 45 q 143 -5 174 -5 m 256 1003 q 279 993 269 1003 q 302 957 289 983 q 379 854 331 901 q 391 844 385 848 q 403 832 396 839 q 423 813 417 821 q 429 794 429 805 q 379 764 429 764 q 183 844 266 764 q 149 886 161 867 q 136 917 136 905 q 155 942 136 924 q 201 978 174 960 q 256 1003 239 1003 z "},"":{"ha":347,"x_min":37,"x_max":524,"o":"m 143 -5 l 135 -5 q 82 22 109 -5 q 47 81 58 49 q 37 163 37 113 q 47 283 37 220 q 79 417 58 346 q 123 540 100 488 q 171 623 146 593 q 228 647 191 647 q 315 510 315 647 q 296 327 315 431 q 248 134 277 222 q 189 12 218 45 q 143 -5 174 -5 m 289 859 l 277 850 q 168 807 206 807 q 122 842 122 807 q 155 887 122 865 q 272 939 188 909 q 371 970 355 970 q 412 943 389 970 q 458 897 426 928 q 494 864 485 872 q 524 831 524 839 q 495 800 524 814 q 431 786 466 786 q 362 802 393 786 q 289 859 330 819 z "},"":{"ha":347,"x_min":37,"x_max":538,"o":"m 143 -5 l 135 -5 q 82 22 109 -5 q 47 81 58 49 q 37 163 37 113 q 47 283 37 220 q 79 417 58 346 q 123 540 100 488 q 171 623 146 593 q 228 647 191 647 q 315 510 315 647 q 296 327 315 431 q 248 134 277 222 q 189 12 218 45 q 143 -5 174 -5 m 151 793 q 110 804 125 793 q 94 835 94 816 q 111 897 94 857 q 144 953 130 941 q 197 977 159 967 q 273 987 234 987 q 318 947 318 987 q 267 841 318 889 q 151 793 215 793 m 418 764 q 335 827 335 764 q 346 881 335 853 q 372 925 357 909 q 473 951 398 951 q 538 916 538 951 q 527 875 538 901 q 501 823 516 849 q 471 782 486 798 q 418 764 454 764 z "},"":{"ha":708,"x_min":36,"x_max":710,"o":"m 326 358 l 367 406 q 465 508 429 474 q 530 556 501 541 q 589 571 559 571 q 656 545 637 571 q 676 456 676 519 q 671 378 676 429 q 663 249 663 309 q 669 139 663 181 q 684 87 674 113 q 690 54 690 63 q 682 37 690 43 q 627 5 661 19 q 568 -8 592 -8 q 498 18 530 -8 q 449 92 467 45 q 432 197 432 138 q 440 290 432 237 l 437 293 q 390 241 408 260 q 357 205 372 222 q 228 49 281 119 q 191 1 208 22 q 134 -24 165 -24 q 63 9 90 -24 q 36 93 36 41 q 43 171 36 125 q 63 270 51 217 q 93 378 76 322 q 131 484 111 433 q 207 614 162 567 q 281 644 237 644 q 351 553 351 644 q 323 361 351 486 l 326 358 m 329 842 q 294 864 294 842 q 374 925 294 894 q 482 951 444 951 q 528 943 506 951 q 574 917 549 935 q 628 892 608 892 q 671 899 649 892 q 690 901 691 901 q 704 896 699 901 q 710 882 710 891 q 681 847 710 867 q 559 803 611 803 q 464 840 515 803 q 415 863 433 863 q 376 852 404 863 q 329 842 347 842 z "},"":{"ha":753,"x_min":37,"x_max":730,"o":"m 488 682 q 589 659 589 682 q 543 629 589 631 q 441 598 488 626 q 356 522 393 570 q 299 414 319 474 q 278 286 278 353 q 313 167 278 212 q 403 122 347 122 q 493 175 454 122 q 532 298 532 228 q 508 407 532 356 q 437 492 484 457 q 418 514 418 507 q 446 543 418 524 q 515 578 477 564 q 581 593 554 593 q 638 577 611 593 q 687 531 666 561 q 719 464 708 502 q 730 382 730 425 q 703 240 730 310 q 632 126 676 170 q 495 36 575 71 q 342 1 414 1 q 202 26 271 1 q 92 90 132 50 q 37 244 37 144 q 76 401 37 323 q 181 544 115 480 q 327 645 247 608 q 488 682 406 682 m 457 843 q 526 935 488 876 q 549 966 545 962 q 564 975 553 971 q 641 997 593 985 q 705 1008 689 1008 q 726 990 726 1008 q 651 879 726 950 q 537 794 593 823 q 429 765 481 765 q 400 786 400 765 q 406 800 400 794 q 427 818 411 806 q 457 843 433 823 z "},"":{"ha":753,"x_min":37,"x_max":730,"o":"m 488 682 q 589 659 589 682 q 543 629 589 631 q 441 598 488 626 q 356 522 393 570 q 299 414 319 474 q 278 286 278 353 q 313 167 278 212 q 403 122 347 122 q 493 175 454 122 q 532 298 532 228 q 508 407 532 356 q 437 492 484 457 q 418 514 418 507 q 446 543 418 524 q 515 578 477 564 q 581 593 554 593 q 638 577 611 593 q 687 531 666 561 q 719 464 708 502 q 730 382 730 425 q 703 240 730 310 q 632 126 676 170 q 495 36 575 71 q 342 1 414 1 q 202 26 271 1 q 92 90 132 50 q 37 244 37 144 q 76 401 37 323 q 181 544 115 480 q 327 645 247 608 q 488 682 406 682 m 458 1003 q 481 993 471 1003 q 505 957 492 983 q 582 854 534 901 q 593 844 588 848 q 606 832 599 839 q 626 813 620 821 q 632 794 632 805 q 582 764 632 764 q 386 844 469 764 q 351 886 363 867 q 339 917 339 905 q 358 942 339 924 q 404 978 377 960 q 458 1003 442 1003 z "},"":{"ha":753,"x_min":37,"x_max":730,"o":"m 488 682 q 589 659 589 682 q 543 629 589 631 q 441 598 488 626 q 356 522 393 570 q 299 414 319 474 q 278 286 278 353 q 313 167 278 212 q 403 122 347 122 q 493 175 454 122 q 532 298 532 228 q 508 407 532 356 q 437 492 484 457 q 418 514 418 507 q 446 543 418 524 q 515 578 477 564 q 581 593 554 593 q 638 577 611 593 q 687 531 666 561 q 719 464 708 502 q 730 382 730 425 q 703 240 730 310 q 632 126 676 170 q 495 36 575 71 q 342 1 414 1 q 202 26 271 1 q 92 90 132 50 q 37 244 37 144 q 76 401 37 323 q 181 544 115 480 q 327 645 247 608 q 488 682 406 682 m 492 859 l 479 850 q 371 807 409 807 q 325 842 325 807 q 358 887 325 865 q 475 939 391 909 q 574 970 557 970 q 615 943 592 970 q 661 897 629 928 q 697 864 688 872 q 726 831 726 839 q 697 800 726 814 q 633 786 669 786 q 565 802 596 786 q 492 859 533 819 z "},"":{"ha":753,"x_min":37,"x_max":741,"o":"m 488 682 q 589 659 589 682 q 543 629 589 631 q 441 598 488 626 q 356 522 393 570 q 299 414 319 474 q 278 286 278 353 q 313 167 278 212 q 403 122 347 122 q 493 175 454 122 q 532 298 532 228 q 508 407 532 356 q 437 492 484 457 q 418 514 418 507 q 446 543 418 524 q 515 578 477 564 q 581 593 554 593 q 638 577 611 593 q 687 531 666 561 q 719 464 708 502 q 730 382 730 425 q 703 240 730 310 q 632 126 676 170 q 495 36 575 71 q 342 1 414 1 q 202 26 271 1 q 92 90 132 50 q 37 244 37 144 q 76 401 37 323 q 181 544 115 480 q 327 645 247 608 q 488 682 406 682 m 354 793 q 313 804 328 793 q 297 835 297 816 q 314 897 297 857 q 347 953 333 941 q 399 977 362 967 q 476 987 437 987 q 521 947 521 987 q 469 841 521 889 q 354 793 418 793 m 621 764 q 538 827 538 764 q 549 881 538 853 q 575 925 559 909 q 676 951 601 951 q 741 916 741 951 q 730 875 741 901 q 704 823 719 849 q 673 782 689 798 q 621 764 657 764 z "},"":{"ha":753,"x_min":37,"x_max":732,"o":"m 488 682 q 589 659 589 682 q 543 629 589 631 q 441 598 488 626 q 356 522 393 570 q 299 414 319 474 q 278 286 278 353 q 313 167 278 212 q 403 122 347 122 q 493 175 454 122 q 532 298 532 228 q 508 407 532 356 q 437 492 484 457 q 418 514 418 507 q 446 543 418 524 q 515 578 477 564 q 581 593 554 593 q 638 577 611 593 q 687 531 666 561 q 719 464 708 502 q 730 382 730 425 q 703 240 730 310 q 632 126 676 170 q 495 36 575 71 q 342 1 414 1 q 202 26 271 1 q 92 90 132 50 q 37 244 37 144 q 76 401 37 323 q 181 544 115 480 q 327 645 247 608 q 488 682 406 682 m 351 842 q 317 864 317 842 q 396 925 317 894 q 505 951 467 951 q 550 943 528 951 q 596 917 572 935 q 650 892 630 892 q 693 899 671 892 q 713 901 713 901 q 727 896 721 901 q 732 882 732 891 q 703 847 732 867 q 582 803 633 803 q 486 840 538 803 q 437 863 455 863 q 399 852 426 863 q 351 842 369 842 z "},"":{"ha":737,"x_min":37,"x_max":718,"o":"m 454 212 l 443 203 q 397 168 439 201 q 263 67 316 104 q 175 13 210 31 q 118 -4 140 -4 q 59 26 81 -4 q 37 104 37 56 q 62 294 37 186 q 127 507 86 402 q 239 650 173 624 q 293 660 262 660 q 362 633 336 660 q 389 564 389 607 q 378 500 389 534 q 346 421 368 467 l 338 401 q 279 252 279 278 q 290 236 279 236 q 317 250 300 236 q 367 302 333 264 q 427 367 388 328 l 452 392 l 473 415 q 585 513 542 483 q 657 543 629 543 q 711 449 711 543 q 707 379 711 429 q 699 214 699 281 q 700 189 699 200 q 700 160 700 178 q 707 90 705 115 q 711 52 711 52 q 675 16 711 31 q 590 0 638 0 q 514 17 546 0 q 467 68 483 35 q 450 151 450 102 q 452 173 450 157 q 454 212 453 188 m 449 843 q 518 935 479 876 q 541 966 536 962 q 555 975 545 971 q 633 997 585 985 q 697 1008 681 1008 q 718 990 718 1008 q 643 879 718 950 q 529 794 585 823 q 421 765 473 765 q 392 786 392 765 q 397 800 392 794 q 418 818 403 806 q 449 843 425 823 z "},"":{"ha":737,"x_min":37,"x_max":711,"o":"m 454 212 l 443 203 q 397 168 439 201 q 263 67 316 104 q 175 13 210 31 q 118 -4 140 -4 q 59 26 81 -4 q 37 104 37 56 q 62 294 37 186 q 127 507 86 402 q 239 650 173 624 q 293 660 262 660 q 362 633 336 660 q 389 564 389 607 q 378 500 389 534 q 346 421 368 467 l 338 401 q 279 252 279 278 q 290 236 279 236 q 317 250 300 236 q 367 302 333 264 q 427 367 388 328 l 452 392 l 473 415 q 585 513 542 483 q 657 543 629 543 q 711 449 711 543 q 707 379 711 429 q 699 214 699 281 q 700 189 699 200 q 700 160 700 178 q 707 90 705 115 q 711 52 711 52 q 675 16 711 31 q 590 0 638 0 q 514 17 546 0 q 467 68 483 35 q 450 151 450 102 q 452 173 450 157 q 454 212 453 188 m 450 1003 q 473 993 463 1003 q 497 957 484 983 q 574 854 526 901 q 585 844 580 848 q 597 832 591 839 q 618 813 612 821 q 624 794 624 805 q 574 764 624 764 q 378 844 460 764 q 343 886 355 867 q 331 917 331 905 q 350 942 331 924 q 396 978 369 960 q 450 1003 434 1003 z "},"":{"ha":737,"x_min":37,"x_max":718,"o":"m 454 212 l 443 203 q 397 168 439 201 q 263 67 316 104 q 175 13 210 31 q 118 -4 140 -4 q 59 26 81 -4 q 37 104 37 56 q 62 294 37 186 q 127 507 86 402 q 239 650 173 624 q 293 660 262 660 q 362 633 336 660 q 389 564 389 607 q 378 500 389 534 q 346 421 368 467 l 338 401 q 279 252 279 278 q 290 236 279 236 q 317 250 300 236 q 367 302 333 264 q 427 367 388 328 l 452 392 l 473 415 q 585 513 542 483 q 657 543 629 543 q 711 449 711 543 q 707 379 711 429 q 699 214 699 281 q 700 189 699 200 q 700 160 700 178 q 707 90 705 115 q 711 52 711 52 q 675 16 711 31 q 590 0 638 0 q 514 17 546 0 q 467 68 483 35 q 450 151 450 102 q 452 173 450 157 q 454 212 453 188 m 484 859 l 471 850 q 363 807 401 807 q 317 842 317 807 q 350 887 317 865 q 467 939 382 909 q 566 970 549 970 q 607 943 584 970 q 653 897 621 928 q 689 864 680 872 q 718 831 718 839 q 689 800 718 814 q 625 786 661 786 q 556 802 588 786 q 484 859 525 819 z "},"":{"ha":737,"x_min":37,"x_max":732,"o":"m 454 212 l 443 203 q 397 168 439 201 q 263 67 316 104 q 175 13 210 31 q 118 -4 140 -4 q 59 26 81 -4 q 37 104 37 56 q 62 294 37 186 q 127 507 86 402 q 239 650 173 624 q 293 660 262 660 q 362 633 336 660 q 389 564 389 607 q 378 500 389 534 q 346 421 368 467 l 338 401 q 279 252 279 278 q 290 236 279 236 q 317 250 300 236 q 367 302 333 264 q 427 367 388 328 l 452 392 l 473 415 q 585 513 542 483 q 657 543 629 543 q 711 449 711 543 q 707 379 711 429 q 699 214 699 281 q 700 189 699 200 q 700 160 700 178 q 707 90 705 115 q 711 52 711 52 q 675 16 711 31 q 590 0 638 0 q 514 17 546 0 q 467 68 483 35 q 450 151 450 102 q 452 173 450 157 q 454 212 453 188 m 346 793 q 304 804 320 793 q 289 835 289 816 q 306 897 289 857 q 339 953 325 941 q 391 977 354 967 q 468 987 429 987 q 513 947 513 987 q 461 841 513 889 q 346 793 410 793 m 612 764 q 530 827 530 764 q 541 881 530 853 q 567 925 551 909 q 668 951 593 951 q 732 916 732 951 q 722 875 732 901 q 696 823 711 849 q 665 782 681 798 q 612 764 649 764 z "},"":{"ha":636,"x_min":33,"x_max":623,"o":"m 174 453 l 182 488 q 67 511 100 495 q 33 557 33 526 q 74 618 33 597 q 220 650 115 638 q 251 777 235 722 q 282 867 267 831 q 310 917 297 903 q 370 949 330 937 q 450 962 410 962 q 506 945 490 962 q 522 886 522 928 q 507 784 522 849 q 469 661 491 718 q 487 661 481 661 q 498 660 492 661 q 596 645 570 658 q 623 599 623 632 q 571 514 623 542 q 408 485 519 487 l 400 456 q 325 223 367 339 q 245 21 283 106 q 183 -89 206 -65 q 150 -103 169 -103 q 113 -92 129 -103 q 89 -60 98 -81 q 79 -16 79 -39 q 174 453 79 82 z "},"":{"ha":555,"x_min":90,"x_max":465,"o":"m 90 823 q 115 917 90 873 q 184 986 140 960 q 278 1011 227 1011 q 371 986 328 1011 q 440 917 415 961 q 465 823 465 873 q 440 729 465 773 q 372 660 415 686 q 278 635 328 635 q 145 690 199 635 q 90 823 90 745 m 164 823 q 198 742 164 777 q 278 708 231 708 q 359 742 326 708 q 392 823 392 775 q 377 880 392 854 q 336 922 362 906 q 278 937 310 937 q 198 904 231 937 q 164 823 164 871 z "},"":{"ha":534,"x_min":32,"x_max":518,"o":"m 366 650 l 372 677 q 447 854 416 854 q 461 845 456 854 q 467 821 467 836 q 439 672 467 784 l 435 656 l 433 652 q 518 547 518 625 q 495 465 518 506 q 434 398 471 425 q 361 372 397 372 q 342 387 342 372 q 350 410 342 391 q 378 515 378 454 q 370 545 378 545 q 342 517 360 545 q 311 458 323 490 q 264 253 264 343 q 277 176 264 203 q 314 149 291 149 q 378 173 338 149 q 453 236 417 198 q 476 254 469 254 q 493 225 493 254 q 375 40 493 119 q 254 -12 307 -6 q 231 -16 244 -16 q 199 -108 215 -68 q 165 -179 183 -148 q 136 -205 152 -205 q 119 -189 119 -205 q 154 -47 119 -159 q 158 -35 157 -39 q 160 -28 159 -31 l 165 -9 q 67 55 102 8 q 32 168 32 102 q 82 361 32 257 q 211 547 133 466 q 366 650 290 627 z "},"":{"ha":1042,"x_min":31,"x_max":1026,"o":"m 218 191 l 264 306 q 215 353 215 326 q 227 397 215 367 q 267 461 248 444 q 323 482 289 482 l 334 482 q 510 775 422 684 q 676 893 582 848 q 850 939 770 939 q 942 919 902 939 q 1004 864 981 899 q 1026 785 1026 829 q 1014 716 1026 753 q 982 650 1002 680 q 890 564 950 602 q 760 509 810 509 q 735 515 745 509 q 725 530 725 521 q 743 564 725 543 q 803 647 766 588 q 868 810 868 755 q 847 836 868 836 q 775 787 819 836 q 686 655 732 739 q 607 481 641 572 l 823 481 q 850 471 841 481 q 859 444 859 461 q 830 373 859 410 q 760 318 801 336 q 615 301 715 301 l 604 301 l 578 301 q 521 300 547 301 l 464 187 q 610 175 520 175 q 864 214 787 175 q 942 264 903 235 q 968 279 960 279 q 982 265 982 279 q 952 189 982 235 q 869 90 922 142 q 659 -17 760 -17 q 478 -3 588 -17 q 264 14 404 5 q 180 -38 214 -23 q 114 -53 145 -53 q 53 -31 75 -53 q 31 26 31 -9 q 84 132 31 85 q 218 191 138 178 z "},"":{"ha":753,"x_min":46,"x_max":746,"o":"m 367 475 q 342 386 342 422 q 372 314 342 350 q 471 232 402 277 q 506 275 496 256 q 515 318 515 294 q 475 405 515 363 q 367 475 435 448 m 248 578 q 226 613 230 605 q 212 647 222 621 q 201 720 201 685 q 250 860 201 793 q 376 958 298 926 q 524 983 437 983 q 640 964 589 983 q 718 910 690 945 q 746 831 746 876 q 725 750 746 788 q 668 689 703 711 q 590 667 632 667 q 551 685 551 667 q 555 704 551 690 q 574 806 574 760 q 545 888 574 888 q 486 851 523 888 q 447 798 462 825 q 432 749 432 770 q 464 682 432 713 q 551 625 488 658 q 656 557 625 584 q 730 385 730 475 q 575 121 730 233 q 612 -7 612 48 q 588 -111 612 -59 q 519 -204 564 -162 q 410 -272 472 -250 q 261 -294 349 -294 q 108 -252 170 -294 q 46 -149 46 -210 q 74 -83 46 -117 q 145 -26 102 -49 q 229 -3 189 -3 q 246 -9 239 -3 q 253 -25 253 -15 q 243 -54 253 -33 q 220 -135 220 -100 q 232 -178 220 -158 q 257 -199 244 -199 q 301 -175 278 -199 q 354 -107 335 -143 q 374 -40 374 -71 q 355 16 374 -9 q 329 47 345 32 q 272 97 313 62 q 187 174 240 125 q 130 250 148 214 q 113 326 113 286 q 133 436 113 380 q 187 530 153 491 q 248 578 208 555 z "},"":{"ha":486,"x_min":71,"x_max":415,"o":"m 71 486 q 94 573 71 533 q 156 635 117 612 q 243 659 195 659 q 309 646 279 659 q 365 608 340 633 q 402 553 390 583 q 415 486 415 522 q 365 366 415 416 q 243 315 315 315 q 121 366 172 315 q 71 486 71 416 z "},"":{"ha":747,"x_min":-3,"x_max":747,"o":"m 272 -277 l 272 432 q 158 457 208 436 q 72 514 108 477 q 16 602 35 551 q -3 713 -3 652 q 37 863 -3 796 q 147 962 77 930 q 221 987 186 981 q 318 994 255 994 l 747 994 l 747 876 l 650 876 l 650 -277 l 534 -277 l 534 876 l 383 876 l 383 -277 l 272 -277 z "},"":{"ha":810,"x_min":37,"x_max":790,"o":"m 453 449 l 431 473 q 493 534 475 511 q 526 587 511 556 q 546 668 546 623 q 531 733 546 701 q 493 785 517 765 q 447 806 470 806 q 422 791 422 806 q 425 765 422 796 q 433 682 433 718 q 420 644 433 659 q 375 611 408 629 l 375 608 q 371 550 375 586 q 332 340 352 433 q 324 298 328 318 q 318 267 320 279 l 321 264 q 375 317 343 294 q 424 340 406 340 q 431 328 431 340 l 431 314 q 428 272 428 300 q 448 170 428 212 q 504 107 468 127 q 547 202 534 158 q 561 297 561 247 q 535 400 561 364 q 453 449 509 437 m 294 632 q 283 692 283 664 q 317 818 283 760 q 408 907 350 875 q 536 940 467 940 q 641 913 593 940 q 715 841 688 886 q 743 741 743 795 q 711 640 743 684 q 680 600 692 614 q 625 546 668 587 q 721 522 684 539 q 773 472 757 504 q 790 387 790 439 q 759 255 790 323 q 675 127 728 186 q 561 33 623 68 q 443 -3 498 -3 q 337 23 379 -3 q 268 103 295 48 q 121 -9 217 -9 q 60 7 83 -9 q 37 49 37 23 q 58 195 37 115 q 125 435 105 363 q 152 526 145 507 q 164 551 158 545 q 186 572 170 557 q 210 593 193 580 q 294 632 243 619 z "},"":{"ha":1025,"x_min":0,"x_max":1023,"o":"m 0 500 q 69 756 0 639 q 255 942 138 873 q 511 1011 372 1011 q 710 971 616 1011 q 874 862 804 932 q 984 697 945 791 q 1023 500 1023 604 q 955 243 1023 360 q 768 57 886 125 q 511 -12 650 -12 q 255 57 372 -12 q 68 243 137 125 q 0 500 0 360 m 86 500 q 143 285 86 384 q 298 129 201 186 q 511 72 395 72 q 726 130 628 72 q 880 286 823 187 q 937 500 937 384 q 904 666 937 588 q 812 802 871 744 q 677 893 754 861 q 511 926 600 926 q 347 893 424 926 q 211 802 270 861 q 119 664 152 743 q 86 500 86 585 m 288 216 l 288 766 l 476 766 q 568 763 541 766 q 625 749 595 760 q 670 718 650 739 q 701 671 690 698 q 713 618 713 645 q 668 511 713 554 q 554 464 623 468 l 554 461 q 608 427 586 450 q 684 323 639 393 l 750 216 l 642 216 l 591 302 q 510 422 541 395 q 429 450 479 450 l 376 450 l 376 216 l 288 216 m 376 526 l 485 526 q 572 539 546 526 q 605 567 591 547 q 618 610 618 587 q 605 654 618 633 q 571 682 592 674 q 538 691 551 690 q 478 692 526 692 l 376 692 l 376 526 z "},"":{"ha":1025,"x_min":0,"x_max":1023,"o":"m 676 416 l 760 392 q 672 256 739 307 q 514 205 606 205 q 372 241 433 205 q 277 343 310 277 q 244 498 244 410 q 277 651 244 587 q 371 751 309 716 q 515 786 433 786 q 666 744 606 786 q 749 627 726 703 l 668 607 q 609 684 648 657 q 515 711 570 711 q 385 652 433 711 q 336 494 336 593 q 383 342 336 398 q 509 286 429 286 q 584 302 549 286 q 642 347 618 318 q 676 416 666 376 m 0 500 q 69 756 0 639 q 255 942 138 873 q 511 1011 372 1011 q 710 971 616 1011 q 874 862 804 932 q 984 697 945 791 q 1023 500 1023 604 q 955 243 1023 360 q 768 57 886 125 q 511 -12 650 -12 q 255 57 372 -12 q 68 243 137 125 q 0 500 0 360 m 86 500 q 143 285 86 384 q 298 129 201 186 q 511 72 395 72 q 726 130 628 72 q 880 286 823 187 q 937 500 937 384 q 904 666 937 588 q 812 802 871 744 q 677 893 754 861 q 511 926 600 926 q 347 893 424 926 q 211 802 270 861 q 119 664 152 743 q 86 500 86 585 z "},"":{"ha":1389,"x_min":153,"x_max":1210,"o":"m 332 441 l 332 913 l 153 913 l 153 994 l 604 994 l 604 913 l 424 913 l 424 441 l 332 441 m 667 441 l 667 994 l 803 994 l 940 553 l 943 553 l 1076 994 l 1210 994 l 1210 441 l 1125 441 l 1125 905 l 1122 905 l 983 441 l 900 441 l 754 913 l 751 913 l 751 441 l 667 441 z "},"":{"ha":463,"x_min":254,"x_max":581,"o":"m 311 843 q 380 935 342 876 q 403 966 399 962 q 418 975 407 971 q 495 997 447 985 q 559 1008 543 1008 q 581 990 581 1008 q 505 879 581 950 q 391 794 448 823 q 283 765 335 765 q 254 786 254 765 q 260 800 254 794 q 281 818 265 806 q 311 843 288 823 z "},"":{"ha":463,"x_min":151,"x_max":595,"o":"m 208 793 q 167 804 182 793 q 151 835 151 816 q 168 897 151 857 q 201 953 187 941 q 254 977 216 967 q 330 987 291 987 q 375 947 375 987 q 323 841 375 889 q 208 793 272 793 m 475 764 q 392 827 392 764 q 403 881 392 853 q 429 925 414 909 q 530 951 455 951 q 595 916 595 951 q 584 875 595 901 q 558 823 573 849 q 528 782 543 798 q 475 764 511 764 z "},"":{"ha":762,"x_min":21,"x_max":750,"o":"m 750 189 l 329 189 l 204 -35 l 136 4 l 239 189 l 21 189 l 21 265 l 282 265 l 389 458 l 21 458 l 21 534 l 432 534 l 558 762 l 627 724 l 521 534 l 750 534 l 750 458 l 479 458 l 371 265 l 750 265 l 750 189 z "},"":{"ha":1402,"x_min":33,"x_max":1390,"o":"m 566 648 l 547 615 q 522 566 538 598 q 489 503 505 534 q 461 446 473 471 q 441 407 448 420 l 427 375 l 624 375 l 616 408 q 572 615 590 546 l 566 648 m 138 207 l 143 215 q 99 240 109 230 q 89 268 89 250 q 107 322 89 296 q 157 361 126 348 q 252 378 186 376 q 500 831 393 631 q 456 872 480 863 q 443 886 443 879 q 447 895 443 890 q 542 928 474 916 q 582 933 564 933 q 688 901 642 933 q 745 833 718 882 q 793 730 772 788 q 797 717 793 727 q 803 697 800 707 q 917 820 846 764 q 1067 908 987 876 q 1219 940 1147 940 q 1342 898 1293 940 q 1390 791 1390 856 q 1351 658 1390 723 q 1248 552 1312 593 q 1118 511 1184 511 q 1084 530 1084 511 q 1122 604 1084 555 q 1177 685 1152 642 q 1183 697 1179 689 q 1192 711 1188 706 q 1219 802 1219 770 q 1208 823 1219 823 q 1095 770 1177 823 q 960 637 1009 713 q 908 514 915 569 q 908 500 908 507 q 907 486 907 494 q 1054 478 1022 479 q 1135 476 1085 476 q 1232 479 1151 476 q 1258 481 1249 481 q 1336 453 1336 481 q 1313 401 1336 437 q 1264 340 1291 366 q 1222 313 1242 319 q 1156 307 1202 307 q 1108 307 1130 307 q 1030 308 1086 307 q 942 309 975 308 l 913 309 q 1043 149 923 149 q 1123 165 1076 149 q 1223 210 1171 181 q 1275 241 1248 222 q 1339 273 1326 273 q 1364 245 1364 273 q 1347 182 1364 220 q 1312 127 1331 144 q 1202 60 1278 96 q 1046 2 1127 24 q 911 -21 965 -21 q 736 61 814 -21 q 690 131 707 94 q 659 237 674 168 l 656 245 l 654 256 q 606 216 627 229 q 579 212 597 212 l 551 211 q 447 210 498 208 l 408 210 q 347 208 371 210 q 329 176 342 199 q 218 18 255 45 q 104 -11 176 -11 q 53 4 73 -11 q 33 43 33 20 q 52 89 33 58 q 115 178 71 119 q 138 207 125 189 z "},"":{"ha":886,"x_min":28,"x_max":872,"o":"m 300 301 l 615 593 l 611 600 l 608 607 q 576 677 576 659 q 610 733 576 701 q 687 789 645 766 q 755 812 729 812 q 825 779 794 812 l 829 782 q 859 796 852 796 q 872 768 872 796 l 872 764 l 872 761 l 872 760 q 868 734 872 744 q 848 708 863 725 q 864 576 864 651 q 843 408 864 492 q 783 253 822 324 q 690 127 744 181 q 543 29 631 68 q 379 -9 456 -9 q 236 15 308 -9 q 121 78 163 40 l 113 72 q 88 56 100 62 q 66 49 76 49 q 50 61 50 49 q 78 103 50 73 l 82 107 l 86 111 q 28 290 28 194 q 80 521 28 407 q 225 729 133 635 q 429 878 317 824 q 653 932 541 932 q 708 924 688 932 q 729 904 729 917 q 718 885 729 898 q 674 851 697 864 q 596 818 651 839 q 491 771 529 795 q 419 708 454 748 q 343 599 381 665 q 308 506 318 551 q 297 389 297 460 q 300 301 297 346 m 650 521 l 610 485 q 357 269 498 383 q 314 236 349 263 q 368 146 335 176 q 441 115 400 115 q 545 162 492 115 q 631 280 597 210 q 665 422 665 351 q 650 521 665 463 z "},"":{"ha":990,"x_min":36,"x_max":954,"o":"m 443 453 q 551 604 491 568 q 694 640 610 640 q 879 561 804 640 q 954 357 954 482 q 879 151 954 231 q 717 72 803 72 q 601 115 652 72 q 489 267 550 157 q 269 109 410 109 q 102 179 168 109 q 36 358 36 250 q 96 536 36 465 q 244 607 157 607 q 345 578 298 607 q 443 453 392 550 m 509 315 q 600 179 552 222 q 720 136 648 136 q 860 198 805 136 q 916 357 916 260 q 859 519 916 452 q 724 587 802 587 q 657 573 686 587 q 607 531 629 558 q 564 452 585 503 l 509 315 m 416 378 l 424 400 q 243 546 359 546 q 121 494 168 546 q 74 359 74 442 q 119 219 74 276 q 229 161 164 161 q 331 205 285 161 q 416 378 376 250 z "},"":{"ha":928,"x_min":85,"x_max":842,"o":"m 85 653 l 390 653 l 390 958 l 536 958 l 536 653 l 842 653 l 842 509 l 536 509 l 536 203 l 390 203 l 390 509 l 85 509 l 85 653 m 85 106 l 842 106 l 842 -40 l 85 -40 l 85 106 z "},"":{"ha":762,"x_min":40,"x_max":730,"o":"m 730 163 l 40 482 l 40 568 l 730 888 l 730 802 l 129 525 l 730 249 l 730 163 m 730 0 l 40 0 l 40 76 l 730 76 l 730 0 z "},"":{"ha":762,"x_min":40,"x_max":730,"o":"m 730 482 l 40 163 l 40 249 l 642 525 l 40 802 l 40 888 l 730 568 l 730 482 m 730 0 l 40 0 l 40 76 l 730 76 l 730 0 z "},"":{"ha":956,"x_min":-16,"x_max":949,"o":"m 283 170 l 272 191 q 229 286 246 245 q 164 481 191 375 q 123 757 123 642 q 134 829 123 804 q 172 871 145 854 q 260 914 212 896 q 340 932 309 932 q 376 913 367 932 q 387 833 385 894 q 395 765 391 789 l 401 714 q 403 699 403 701 q 406 672 403 696 q 424 498 412 580 q 453 340 436 416 q 489 222 468 279 q 547 345 517 279 q 568 391 558 369 q 580 420 577 412 q 593 449 583 427 q 639 568 604 474 q 666 644 659 625 q 694 707 673 662 q 762 806 724 767 q 818 854 787 831 q 877 890 849 877 q 922 903 905 903 q 949 882 949 903 q 932 823 949 866 q 877 695 916 780 q 794 524 838 611 q 690 323 751 437 q 643 233 668 280 q 625 202 635 219 q 614 183 616 186 l 606 170 l 861 170 q 900 158 891 170 q 908 109 908 147 q 899 51 908 65 q 861 37 890 37 l 518 37 q 392 -117 459 -50 q 333 -166 364 -144 q 262 -205 301 -187 q 185 -232 224 -223 q 114 -241 146 -241 q 58 -229 79 -241 q 37 -195 37 -217 q 62 -120 37 -172 q 113 -41 87 -68 q 172 -25 127 -25 q 254 -14 221 -25 q 357 33 298 -1 l 357 36 l 36 36 q -6 47 4 36 q -16 94 -16 58 q -12 143 -16 129 q 3 164 -7 158 q 36 170 14 170 l 283 170 z "},"":{"ha":848,"x_min":-26,"x_max":836,"o":"m 184 720 l 378 720 l 310 386 l 298 343 q 288 253 288 292 q 319 164 288 200 q 397 129 351 129 q 470 151 435 129 q 522 210 505 174 q 564 343 546 254 l 644 720 l 836 720 l 685 0 l 511 0 l 525 64 l 522 66 q 448 0 479 18 q 375 -17 416 -17 q 271 33 310 -17 q 243 77 264 41 l 168 -279 l -26 -279 l 184 720 z "},"":{"ha":686,"x_min":45,"x_max":675,"o":"m 200 760 l 170 760 q 427 965 258 965 q 605 879 536 965 q 675 624 675 793 q 563 180 675 381 q 273 -21 452 -21 q 106 41 168 -21 q 45 207 45 102 q 158 492 45 369 q 418 615 271 615 q 629 486 568 615 l 632 486 q 639 612 639 584 q 576 800 639 731 q 404 868 513 868 q 200 760 273 868 m 618 427 q 425 579 563 579 q 231 450 304 579 q 158 179 158 321 q 195 62 158 106 q 292 18 231 18 q 481 129 384 18 q 618 427 578 239 z "},"":{"ha":990,"x_min":20,"x_max":965,"o":"m 965 161 q 928 -1 943 77 q 905 -150 913 -79 q 836 -139 863 -142 q 799 -135 809 -135 l 100 -135 q 60 -137 86 -135 q 20 -139 33 -139 l 504 414 l 22 1044 q 106 1037 70 1040 q 167 1035 142 1035 l 857 1035 l 865 814 l 838 814 q 802 909 817 883 q 747 954 787 936 q 696 968 726 963 q 625 972 666 972 l 260 972 l 639 475 l 231 4 l 746 4 q 866 39 832 4 q 933 161 901 75 l 965 161 z "},"":{"ha":1143,"x_min":35,"x_max":1116,"o":"m 1116 -140 l 689 -140 l 689 -109 q 797 -81 770 -109 q 824 4 824 -53 l 824 966 l 326 966 l 326 4 q 353 -81 326 -53 q 461 -109 380 -109 l 461 -140 l 35 -140 l 35 -109 q 143 -81 117 -109 q 170 4 170 -53 l 170 873 q 137 977 170 942 q 37 1011 104 1011 l 37 1043 l 1113 1043 l 1113 1011 q 1014 977 1046 1011 q 981 873 981 942 l 981 4 q 1007 -81 981 -53 q 1116 -109 1033 -109 l 1116 -140 z "},"":{"ha":762,"x_min":14,"x_max":736,"o":"m 736 210 q 685 41 732 104 q 571 -22 637 -22 q 477 40 517 -22 q 437 231 437 102 q 438 285 437 259 q 441 334 439 311 l 465 557 l 309 557 q 242 53 268 134 q 153 -27 216 -27 q 103 -6 127 -27 q 79 50 79 15 q 129 137 79 81 q 183 239 178 193 l 224 557 l 158 557 q 105 544 131 557 q 66 513 79 530 l 37 469 l 14 469 q 95 624 47 572 q 207 676 144 676 l 725 676 l 725 557 l 550 557 q 537 394 542 475 q 533 231 533 313 q 559 140 533 175 q 623 106 585 106 q 673 125 647 106 q 703 176 699 144 q 706 199 705 191 q 707 210 707 208 l 736 210 z "},"":{"ha":380,"x_min":7,"x_max":408,"o":"m 408 1194 q 388 1150 408 1167 q 337 1133 368 1133 q 296 1150 312 1133 q 267 1167 281 1167 q 248 1157 254 1167 q 241 1128 241 1147 q 255 954 241 1105 q 268 581 268 804 q 248 99 268 238 q 194 -92 227 -39 q 148 -134 176 -120 q 90 -149 120 -149 q 32 -125 57 -149 q 7 -67 7 -101 q 24 -23 7 -41 q 68 -5 41 -5 q 112 -27 91 -5 q 142 -50 134 -50 q 169 -19 159 -50 q 179 85 179 11 q 175 218 179 110 q 171 600 171 327 q 182 1033 171 926 q 210 1179 194 1139 q 257 1249 230 1226 q 314 1272 284 1272 q 380 1250 353 1272 q 408 1194 408 1228 z "},"":{"ha":507,"x_min":127,"x_max":603,"o":"m 443 718 l 463 733 l 460 736 q 408 725 426 725 q 392 733 392 725 q 401 757 392 740 q 421 823 421 790 q 415 858 421 844 q 401 871 410 871 q 378 856 393 871 q 376 854 378 854 q 315 768 340 818 q 290 681 290 718 q 300 642 290 658 q 325 627 311 627 q 443 718 355 627 m 586 673 l 586 672 q 603 551 586 598 q 555 515 583 530 q 504 500 527 500 q 447 539 463 500 q 439 575 441 554 q 437 636 437 597 q 322 528 368 562 q 243 494 276 494 q 160 528 193 494 q 127 614 127 562 q 152 705 127 654 q 215 804 176 757 q 301 882 255 850 q 446 932 374 932 q 510 921 480 932 q 557 892 541 910 q 574 851 574 873 q 554 794 574 829 l 555 794 l 562 794 l 567 794 q 586 789 581 794 q 591 766 591 783 l 591 751 q 587 690 587 688 q 587 680 587 683 q 586 673 587 677 z "},"":{"ha":492,"x_min":131,"x_max":582,"o":"m 376 823 q 428 860 396 845 q 484 875 459 875 q 533 857 510 875 q 569 806 556 838 q 582 734 582 774 q 547 613 582 669 q 454 523 513 556 q 329 490 396 490 q 238 506 283 490 q 170 545 194 522 q 131 647 131 579 q 174 783 131 717 q 286 890 217 849 q 429 932 355 932 q 489 916 489 932 q 457 899 489 902 q 402 885 422 895 q 359 854 382 876 q 286 673 286 774 q 309 597 286 626 q 367 568 331 568 q 427 602 401 568 q 452 681 452 635 q 376 823 452 767 z "},"":{"ha":1067,"x_min":47,"x_max":1021,"o":"m 1021 0 l 612 0 l 634 211 q 787 347 743 251 q 831 559 831 442 q 759 812 831 713 q 534 911 686 911 q 310 812 382 911 q 237 559 237 713 q 281 347 237 442 q 435 211 326 251 l 457 0 l 47 0 l 47 225 l 68 225 q 95 160 79 180 q 160 140 111 140 l 379 140 l 376 179 q 145 329 215 223 q 75 554 75 435 q 205 843 75 730 q 534 956 336 956 q 863 843 733 956 q 994 554 994 730 q 924 329 994 435 q 692 179 854 223 l 690 140 l 909 140 q 974 160 958 140 q 1001 225 990 180 l 1021 225 l 1021 0 z "},"":{"ha":1071,"x_min":26,"x_max":1057,"o":"m 762 374 q 848 392 813 378 q 902 428 883 406 q 921 478 921 451 q 911 502 921 492 q 886 511 901 511 q 817 475 850 511 q 762 374 784 438 m 515 519 q 441 502 482 519 q 375 457 401 484 q 311 362 338 420 q 285 261 285 304 q 300 202 285 224 q 339 180 315 180 q 389 200 357 180 q 453 253 420 220 q 545 449 545 347 q 515 519 545 519 m 726 576 l 745 589 q 918 660 848 660 q 990 641 958 660 q 1040 589 1022 623 q 1057 511 1057 555 q 1002 374 1057 427 q 900 312 965 338 q 781 286 834 286 q 743 289 761 286 q 732 220 732 243 q 751 151 732 175 q 808 127 771 127 q 875 150 838 127 q 939 204 912 172 q 961 224 955 224 q 974 205 974 224 q 954 136 974 178 q 908 69 933 94 q 802 6 868 30 q 664 -17 735 -17 q 525 49 550 -17 q 511 95 514 77 q 505 184 509 113 l 503 184 q 476 141 488 156 q 443 106 465 125 q 378 54 411 75 q 178 -12 271 -12 q 69 33 112 -12 q 26 150 26 79 q 92 347 26 252 q 220 485 136 414 q 371 585 304 555 l 486 635 q 637 673 578 673 q 669 659 651 673 q 703 621 687 645 q 726 576 720 597 z "},"":{"ha":753,"x_min":29,"x_max":728,"o":"m 279 231 l 489 418 q 459 460 476 442 q 410 501 442 478 q 578 578 498 578 q 657 547 623 578 q 663 552 663 551 q 671 558 664 553 q 695 575 686 570 q 710 579 703 579 q 723 571 718 579 q 728 549 728 562 q 723 528 728 536 q 704 503 718 519 l 697 494 q 728 363 728 448 q 699 223 728 294 q 624 107 671 153 q 490 22 570 56 q 339 -12 410 -12 q 227 3 284 -12 q 123 45 170 18 l 118 41 q 111 39 113 39 q 61 18 75 18 q 52 21 56 18 q 47 29 47 27 q 68 58 47 40 q 86 78 79 66 q 29 222 29 131 q 63 377 29 302 q 161 517 97 451 q 320 634 244 598 q 486 671 397 671 q 525 669 505 671 q 561 665 545 667 q 581 659 576 662 q 587 644 587 654 q 539 616 587 623 q 446 593 488 612 q 386 549 420 581 q 358 517 368 529 q 340 492 349 506 q 323 463 332 478 q 275 275 275 372 q 279 231 275 264 m 518 350 l 298 167 q 344 124 316 140 q 404 107 372 107 q 491 164 454 107 q 529 294 529 220 q 518 350 529 317 z "},"":{"ha":564,"x_min":29,"x_max":541,"o":"m 222 258 q 178 260 201 260 q 111 257 141 260 q 83 256 102 256 q 59 259 65 256 q 53 269 53 262 q 68 311 53 285 q 102 355 84 338 q 359 433 177 433 q 489 385 489 433 q 437 304 489 367 q 375 220 415 277 q 272 -53 272 64 q 336 -153 272 -135 q 362 -124 353 -136 q 379 -93 371 -111 q 407 -13 396 -56 q 418 66 418 31 q 408 136 418 104 q 404 153 404 146 q 418 161 404 161 q 457 144 431 161 q 541 -24 541 89 q 525 -117 541 -74 q 482 -186 509 -160 q 403 -233 450 -216 q 306 -250 356 -250 q 182 -227 243 -250 q 78 -164 120 -203 q 29 -40 29 -117 q 58 72 29 12 q 139 183 87 132 q 222 258 172 216 m 313 461 q 256 504 256 463 q 262 550 256 521 q 281 608 269 578 q 294 633 286 623 q 350 664 308 647 q 429 689 391 681 q 450 692 446 692 q 495 673 478 692 q 513 625 513 654 q 476 526 513 582 q 421 482 458 498 q 314 461 368 461 l 313 461 z "},"":{"ha":507,"x_min":33,"x_max":484,"o":"m 310 457 q 268 469 284 457 q 252 497 252 480 q 264 553 252 516 q 294 616 277 589 q 306 631 301 627 q 364 670 330 654 q 429 685 399 685 q 470 671 456 685 q 484 632 484 658 q 466 565 484 604 q 425 503 448 526 q 373 470 406 483 q 311 457 340 457 l 310 457 m 349 78 l 343 61 q 340 52 342 56 q 338 45 339 49 q 284 -101 304 -60 q 236 -163 264 -142 q 165 -194 210 -180 q 85 -207 121 -207 q 48 -198 62 -207 q 33 -174 33 -190 q 127 98 33 -138 q 146 142 134 112 q 236 345 200 289 q 262 375 248 363 q 324 416 292 399 q 375 432 356 432 q 410 420 397 432 q 422 387 422 408 q 393 237 422 370 q 349 78 363 121 z "},"":{"ha":926,"x_min":85,"x_max":842,"o":"m 85 701 l 842 701 l 842 225 l 696 225 l 696 555 l 85 555 l 85 701 z "},"":{"ha":762,"x_min":14,"x_max":715,"o":"m 715 1267 l 507 -53 l 170 644 l 36 579 l 14 625 l 216 725 l 490 165 l 667 1274 l 715 1267 z "},"":{"ha":772,"x_min":-11,"x_max":778,"o":"m 191 576 l 215 720 l 351 720 l 363 781 q 383 884 378 864 q 404 929 389 904 q 475 991 429 971 q 596 1011 521 1011 q 690 1004 642 1011 q 778 983 738 997 l 741 831 q 636 848 680 848 q 572 825 589 848 q 550 758 559 806 l 543 720 l 684 720 l 659 576 l 519 576 l 403 -86 q 377 -186 391 -151 q 336 -244 362 -220 q 178 -292 285 -292 q 80 -284 132 -292 q -11 -265 28 -277 l 28 -115 l 37 -118 q 146 -131 102 -131 q 197 -111 179 -131 q 213 -77 208 -97 q 225 -16 218 -56 l 326 576 l 191 576 z "},"":{"ha":762,"x_min":35,"x_max":728,"o":"m 693 593 l 728 593 q 663 431 713 488 q 536 375 612 375 q 330 454 471 375 q 187 507 236 507 q 66 380 86 507 l 35 380 q 98 542 48 485 q 221 599 148 599 q 294 586 253 599 q 446 513 334 572 q 576 471 526 471 q 693 593 674 471 m 693 330 l 728 330 q 663 169 713 225 q 536 113 612 113 q 354 178 471 113 q 187 244 237 244 q 66 118 86 244 l 35 118 q 98 278 48 222 q 221 335 148 335 q 297 320 253 335 q 446 250 341 306 q 576 208 526 208 q 693 330 674 208 z "},"":{"ha":850,"x_min":8,"x_max":844,"o":"m 453 956 l 844 0 l 8 0 l 453 956 m 403 718 l 100 68 l 672 68 l 403 718 z "},"":{"ha":449,"x_min":33,"x_max":436,"o":"m 119 292 q 152 237 134 259 q 199 193 170 216 q 231 154 231 168 q 220 137 231 145 q 196 129 209 129 q 156 145 182 129 q 107 183 130 161 q 69 234 87 206 q 37 289 51 261 q 33 306 33 299 q 72 368 33 331 q 127 414 89 385 q 198 466 165 444 q 253 497 231 487 q 264 500 261 500 q 282 493 273 500 q 290 478 290 486 q 215 390 290 455 q 158 340 173 355 q 119 292 142 324 m 326 315 l 297 286 q 392 170 392 200 q 382 152 392 161 q 361 143 372 143 q 298 183 336 143 q 218 293 218 269 q 238 326 218 301 q 292 383 258 351 l 301 392 q 408 472 382 472 q 428 462 419 472 q 436 439 436 452 q 416 409 436 431 q 350 340 397 387 q 340 330 347 337 q 326 315 334 322 z "},"":{"ha":449,"x_min":33,"x_max":429,"o":"m 229 469 l 229 471 q 236 487 229 479 q 252 496 243 496 q 343 425 276 496 q 429 301 429 337 q 419 282 429 296 q 399 260 410 269 q 309 191 361 226 q 207 129 257 155 q 196 126 199 126 q 179 134 186 126 q 171 149 171 142 q 197 190 171 162 q 262 244 224 218 q 315 290 293 267 q 338 321 338 313 q 314 361 338 329 q 258 428 290 393 q 229 469 229 459 m 161 330 q 97 404 141 362 q 62 449 62 437 q 69 464 62 458 q 85 469 75 469 q 167 422 120 469 q 213 367 195 395 q 232 326 232 340 q 213 286 232 313 q 163 230 193 259 q 97 176 133 201 q 56 157 71 157 q 33 189 33 157 q 50 228 33 209 q 87 268 75 256 q 161 330 100 279 z "},"":{"ha":1389,"x_min":140,"x_max":1280,"o":"m 252 -16 q 174 18 207 -16 q 140 96 140 51 q 173 175 140 142 q 252 208 205 208 q 331 175 298 208 q 363 96 363 142 q 330 17 363 50 q 252 -16 297 -16 m 713 -16 q 633 17 666 -16 q 600 97 600 50 q 633 176 600 143 q 713 208 665 208 q 791 176 760 208 q 823 97 823 143 q 791 17 823 50 q 713 -16 759 -16 m 1169 -16 q 1089 19 1120 -12 q 1059 96 1059 50 q 1090 174 1059 142 q 1169 207 1122 207 q 1249 174 1217 207 q 1280 96 1280 142 q 1249 18 1280 51 q 1173 -16 1217 -16 l 1169 -16 z "},"":{"ha":369,"x_min":0,"x_max":0,"o":""},"":{"ha":1013,"x_min":24,"x_max":1011,"o":"m 557 648 l 432 385 l 616 385 l 559 648 l 557 648 m 498 827 l 457 901 q 486 918 473 913 q 612 936 538 936 q 728 893 687 936 q 785 789 763 856 q 827 597 808 722 q 844 503 837 534 q 876 389 868 414 q 904 310 884 364 q 922 266 911 294 q 943 214 933 238 q 1011 74 966 161 q 915 16 954 34 q 843 -1 876 -1 q 776 14 803 -1 q 728 64 749 30 q 676 189 702 110 q 670 208 673 197 q 661 233 666 220 q 538 200 582 200 q 494 201 513 200 q 350 205 479 203 l 343 192 q 273 71 305 113 q 198 13 240 30 q 92 -4 155 -4 q 39 4 55 -4 q 24 31 24 12 q 98 154 24 53 q 138 210 125 189 q 66 260 66 223 q 123 349 66 290 q 174 385 151 377 q 256 393 197 393 q 325 520 310 493 q 363 590 340 548 q 417 685 387 631 q 498 827 448 738 m 616 1206 q 640 1197 629 1206 q 663 1160 650 1187 q 740 1058 692 1104 q 751 1047 746 1052 q 764 1036 757 1042 q 784 1017 778 1025 q 790 998 790 1008 q 740 967 790 967 q 544 1048 627 967 q 509 1089 522 1070 q 497 1120 497 1109 q 516 1145 497 1128 q 562 1181 535 1163 q 616 1206 600 1206 z "},"":{"ha":1013,"x_min":24,"x_max":1011,"o":"m 557 648 l 432 385 l 616 385 l 559 648 l 557 648 m 498 827 l 457 901 q 486 918 473 913 q 612 936 538 936 q 728 893 687 936 q 785 789 763 856 q 827 597 808 722 q 844 503 837 534 q 876 389 868 414 q 904 310 884 364 q 922 266 911 294 q 943 214 933 238 q 1011 74 966 161 q 915 16 954 34 q 843 -1 876 -1 q 776 14 803 -1 q 728 64 749 30 q 676 189 702 110 q 670 208 673 197 q 661 233 666 220 q 538 200 582 200 q 494 201 513 200 q 350 205 479 203 l 343 192 q 273 71 305 113 q 198 13 240 30 q 92 -4 155 -4 q 39 4 55 -4 q 24 31 24 12 q 98 154 24 53 q 138 210 125 189 q 66 260 66 223 q 123 349 66 290 q 174 385 151 377 q 256 393 197 393 q 325 520 310 493 q 363 590 340 548 q 417 685 387 631 q 498 827 448 738 m 511 1044 q 476 1067 476 1044 q 555 1128 476 1097 q 664 1154 626 1154 q 709 1146 688 1154 q 755 1120 731 1138 q 810 1095 789 1095 q 852 1101 831 1095 q 872 1104 873 1104 q 886 1099 880 1104 q 892 1084 892 1094 q 863 1050 892 1070 q 741 1006 793 1006 q 646 1043 697 1006 q 597 1065 614 1065 q 558 1055 585 1065 q 511 1044 528 1044 z "},"":{"ha":882,"x_min":33,"x_max":867,"o":"m 449 737 q 381 660 402 690 q 335 574 359 630 q 309 488 317 533 q 298 385 298 448 q 315 236 298 296 q 366 147 332 177 q 446 117 399 117 q 523 144 484 117 q 595 217 563 172 q 647 318 627 262 q 667 425 667 374 q 603 619 667 518 q 579 675 579 660 q 610 730 579 703 q 689 789 644 764 q 760 815 734 815 q 791 808 774 815 q 817 790 808 801 q 852 708 838 768 q 867 581 867 648 q 801 285 867 420 q 624 71 736 150 q 380 -8 511 -8 q 231 20 305 -8 q 111 94 157 47 q 33 298 33 172 q 62 454 33 372 q 140 613 90 536 q 255 755 190 691 q 390 857 321 820 q 526 911 453 891 q 653 932 598 932 q 730 908 730 932 q 714 879 730 899 q 662 840 684 851 q 590 814 640 828 q 511 784 536 798 q 449 737 487 771 m 458 1044 q 423 1067 423 1044 q 503 1128 423 1097 q 611 1154 573 1154 q 656 1146 635 1154 q 703 1120 678 1138 q 757 1095 736 1095 q 800 1101 778 1095 q 819 1104 820 1104 q 833 1099 827 1104 q 839 1084 839 1094 q 810 1050 839 1070 q 688 1006 740 1006 q 593 1043 644 1006 q 544 1065 562 1065 q 505 1055 532 1065 q 458 1044 475 1044 z "},"":{"ha":1432,"x_min":36,"x_max":1407,"o":"m 461 107 q 559 150 521 111 q 641 304 608 200 q 673 504 673 408 q 650 640 673 578 q 584 736 626 701 q 490 771 541 771 q 392 718 439 771 q 317 576 345 665 q 289 392 289 487 q 312 230 289 292 q 385 134 335 167 q 460 107 422 107 l 461 107 m 1044 878 q 1250 942 1156 942 q 1366 903 1324 942 q 1407 796 1407 865 q 1388 702 1407 748 q 1336 621 1369 656 q 1229 541 1291 572 q 1118 510 1168 510 q 1083 529 1083 510 q 1126 578 1083 543 q 1147 597 1143 593 q 1211 695 1187 641 q 1235 803 1235 750 q 1215 842 1235 842 q 1150 816 1191 842 q 1067 751 1109 791 q 996 671 1024 711 q 924 505 939 589 q 921 478 924 503 q 993 478 960 478 q 1062 478 1025 478 q 1114 479 1099 479 q 1271 482 1245 482 q 1328 478 1318 482 q 1346 452 1346 470 q 1324 408 1346 438 q 1272 349 1302 378 q 1211 311 1237 315 q 1174 309 1198 310 q 1110 307 1150 308 q 971 306 1070 307 q 904 304 956 304 q 947 203 920 234 q 1023 172 974 172 q 1144 198 1074 172 q 1282 267 1214 224 q 1348 297 1329 297 q 1369 277 1369 297 q 1352 208 1369 250 q 1315 149 1334 166 q 1236 92 1286 122 q 1127 39 1185 62 q 1017 3 1070 16 q 929 -9 964 -9 q 747 53 814 -9 q 718 85 728 71 q 690 132 708 100 q 629 70 653 89 q 555 28 605 52 q 372 -12 467 -12 q 235 13 296 -12 q 128 85 173 37 q 59 201 83 134 q 36 351 36 268 q 88 556 36 451 q 224 747 140 662 q 412 884 309 831 q 615 936 515 936 q 735 909 680 936 q 823 836 789 883 q 867 725 857 789 q 882 740 874 732 q 901 760 889 747 q 991 844 965 823 q 1044 878 1016 863 z "},"":{"ha":1114,"x_min":29,"x_max":1092,"o":"m 747 205 q 825 291 800 256 q 878 385 851 326 q 905 467 893 416 q 911 515 911 495 q 896 561 911 561 q 866 546 886 561 q 827 511 846 532 q 755 400 781 463 q 729 277 729 338 q 732 243 729 256 q 747 205 736 230 m 545 62 q 496 21 515 35 q 444 -5 477 8 q 309 -35 372 -35 q 161 -2 225 -35 q 63 91 98 31 q 29 232 29 152 q 46 340 29 285 q 93 437 64 395 q 161 515 117 474 q 265 596 205 555 q 380 656 328 636 q 479 676 433 676 q 528 665 508 676 q 547 637 547 654 q 504 603 547 617 q 377 531 430 578 q 298 418 325 484 q 271 273 271 352 q 309 152 271 201 q 403 103 347 103 q 492 153 456 103 q 529 275 529 203 q 509 360 529 315 q 453 450 489 406 q 428 490 428 479 q 453 518 428 499 q 519 550 481 538 q 587 562 556 562 q 635 552 617 562 q 675 515 654 543 q 800 618 733 581 q 928 656 867 656 q 1011 635 972 656 q 1070 579 1049 615 q 1092 501 1092 543 q 1043 359 1092 434 q 1006 311 1025 332 q 962 269 987 290 q 899 222 937 248 q 789 172 821 172 q 757 175 783 172 q 787 140 772 150 q 822 131 801 131 q 935 178 864 131 q 999 207 982 207 q 1023 195 1013 207 q 1034 168 1034 182 q 1016 127 1034 149 q 962 82 998 106 q 684 -25 804 -25 q 625 -15 652 -25 q 578 15 598 -5 q 545 62 557 35 z "},"":{"ha":694,"x_min":3,"x_max":710,"o":"m 3 436 l 710 436 l 710 267 l 3 267 l 3 436 z "},"":{"ha":1389,"x_min":-4,"x_max":1409,"o":"m -4 436 l 1409 436 l 1409 268 l -4 268 l -4 436 z "},"":{"ha":463,"x_min":37,"x_max":446,"o":"m 149 754 l 253 886 q 271 908 264 900 l 272 908 q 285 914 279 914 q 296 899 296 914 q 232 761 296 884 q 221 740 227 751 q 210 718 216 729 q 149 615 171 640 q 104 583 128 596 q 62 570 79 570 q 37 593 37 570 q 149 754 37 617 m 393 764 l 321 614 q 288 581 313 597 q 248 566 264 566 q 215 597 215 566 q 314 758 215 616 q 327 776 315 760 q 346 804 338 792 q 421 907 409 895 q 440 918 432 918 q 446 908 446 918 l 446 907 q 393 764 439 859 z "},"":{"ha":463,"x_min":35,"x_max":447,"o":"m 180 745 l 171 730 l 161 715 q 64 581 81 597 q 43 567 50 567 q 35 575 35 567 l 35 576 q 83 708 39 622 l 163 871 q 195 905 170 888 q 237 921 220 921 q 259 911 249 921 q 269 890 269 902 q 200 774 269 874 l 191 758 l 180 745 m 332 726 l 321 713 q 232 603 272 651 q 223 592 229 599 q 214 581 218 585 q 211 578 214 581 q 200 572 205 572 q 187 587 187 572 q 194 611 187 597 q 235 692 201 625 q 245 711 241 701 l 257 733 l 265 749 l 273 764 q 342 878 321 855 q 386 904 360 893 q 425 916 411 916 q 447 895 447 916 q 359 762 447 873 q 354 756 357 760 q 346 745 351 751 l 332 726 z "},"":{"ha":289,"x_min":66,"x_max":272,"o":"m 153 647 q 93 683 120 647 q 66 764 66 719 q 134 899 66 830 q 199 940 174 940 q 216 931 208 940 q 224 913 224 922 q 215 888 224 905 q 201 843 201 863 q 240 781 201 814 q 272 732 272 751 q 229 681 272 709 q 153 647 181 647 z "},"":{"ha":289,"x_min":66,"x_max":272,"o":"m 143 653 l 142 653 q 123 661 132 653 q 115 679 115 669 q 123 701 115 688 q 138 746 138 725 q 129 780 138 766 q 98 811 119 795 q 73 837 79 827 q 66 860 66 847 q 83 895 66 878 q 135 930 103 913 q 183 946 168 946 q 227 929 206 946 q 260 883 248 912 q 272 825 272 854 q 204 693 272 762 q 143 653 166 655 z "},"":{"ha":928,"x_min":86,"x_max":842,"o":"m 374 745 q 399 805 374 781 q 461 829 425 829 q 505 818 486 829 q 537 787 525 806 q 549 743 549 767 q 537 699 549 719 q 506 667 526 679 q 461 656 486 656 q 400 682 427 656 q 374 745 374 709 m 375 178 q 401 241 375 215 q 463 267 427 267 q 507 255 487 267 q 538 223 527 243 q 550 179 550 203 q 524 117 550 142 q 463 92 498 92 q 401 117 427 92 q 375 178 375 142 m 86 528 l 842 528 l 842 389 l 86 389 l 86 528 z "},"":{"ha":686,"x_min":31,"x_max":652,"o":"m 652 517 l 383 0 l 300 0 l 31 517 l 300 1035 l 383 1035 l 652 517 m 569 517 l 342 960 l 115 517 l 342 75 l 569 517 z "},"":{"ha":694,"x_min":28,"x_max":711,"o":"m 469 465 l 478 494 q 532 599 496 562 q 585 637 555 622 q 639 652 614 652 q 684 614 684 652 q 671 555 684 595 q 639 464 659 515 q 592 353 619 414 q 533 229 566 293 q 414 25 474 109 q 326 -81 370 -35 q 232 -163 281 -127 q 139 -219 182 -200 q 58 -237 95 -237 q 28 -211 28 -237 q 37 -161 28 -190 q 64 -106 47 -132 q 110 -62 82 -81 q 214 -7 145 -38 q 152 102 173 62 q 106 201 131 142 q 50 441 50 334 q 71 575 50 524 q 138 637 89 619 q 208 653 177 653 q 268 620 252 653 q 294 463 283 586 q 334 201 307 330 q 345 147 338 182 l 347 147 q 387 244 366 187 q 435 364 394 260 q 469 465 458 427 m 325 793 q 283 804 299 793 q 268 835 268 816 q 285 897 268 857 q 318 953 304 941 q 370 977 333 967 q 447 987 408 987 q 492 947 492 987 q 440 841 492 889 q 325 793 389 793 m 591 764 q 509 827 509 764 q 519 881 509 853 q 546 925 530 909 q 647 951 572 951 q 711 916 711 951 q 701 875 711 901 q 675 823 690 849 q 644 782 660 798 q 591 764 628 764 z "},"":{"ha":956,"x_min":37,"x_max":949,"o":"m 395 765 l 400 714 q 404 672 403 702 q 453 340 420 486 q 489 222 468 279 q 547 345 517 279 q 568 391 558 369 q 580 420 577 412 q 593 449 583 427 q 639 568 607 483 q 666 644 659 625 q 694 707 673 662 q 762 806 720 763 q 818 854 787 831 q 877 890 849 877 q 922 903 905 903 q 949 882 949 903 q 935 832 949 863 q 832 604 897 739 q 700 341 768 469 q 586 139 633 213 q 510 25 548 76 q 380 -127 438 -75 q 250 -211 323 -180 q 167 -236 212 -228 q 114 -241 133 -241 q 58 -229 79 -241 q 37 -195 37 -217 q 61 -120 37 -170 q 111 -41 85 -70 q 172 -25 127 -25 q 254 -14 221 -25 q 302 4 277 -7 q 357 36 326 16 q 267 202 304 125 q 203 354 229 279 q 145 563 168 451 q 123 757 123 674 q 134 830 123 805 q 172 871 145 854 q 260 914 212 896 q 340 932 309 932 q 376 913 367 932 q 387 833 385 894 q 395 765 391 789 m 498 996 q 457 1007 473 996 q 441 1038 441 1019 q 458 1100 441 1059 q 492 1156 477 1143 q 544 1180 507 1170 q 621 1190 581 1190 q 665 1150 665 1190 q 614 1044 665 1092 q 498 996 562 996 m 765 966 q 682 1029 682 966 q 693 1084 682 1056 q 720 1128 704 1112 q 821 1154 745 1154 q 885 1118 885 1154 q 874 1078 885 1104 q 848 1026 863 1052 q 818 985 833 1000 q 765 966 802 966 z "},"":{"ha":131,"x_min":-338,"x_max":440,"o":"m 265 575 l 244 545 q -136 20 45 245 q -204 -58 -166 -20 q -289 -107 -251 -107 q -323 -94 -308 -107 q -338 -62 -338 -81 q -275 75 -338 -37 q -103 358 -213 187 q 86 655 21 553 q 167 780 151 756 q 202 831 183 804 q 245 889 221 859 q 312 958 285 939 q 367 978 338 978 q 405 968 389 978 q 431 938 421 958 q 440 895 440 918 q 428 842 440 873 q 386 761 415 810 q 304 633 357 712 q 285 604 304 633 l 265 575 z "},"":{"ha":954,"x_min":20,"x_max":893,"o":"m 411 450 l 628 450 q 660 446 650 450 q 669 431 669 443 q 657 394 669 406 q 615 383 646 383 l 396 383 q 385 262 385 319 q 402 175 385 196 q 452 154 420 154 q 562 180 495 154 q 764 290 628 207 q 867 345 852 345 q 881 338 875 345 q 888 323 888 332 q 690 77 888 161 q 396 -7 493 -7 q 189 79 279 -7 q 100 279 100 164 q 113 383 100 331 l 60 383 q 20 403 20 383 q 30 438 20 427 q 75 450 41 450 l 132 450 q 165 525 146 487 l 74 525 q 33 545 33 525 q 46 582 33 573 q 89 591 60 591 l 204 591 q 454 841 307 750 q 714 932 600 932 q 839 889 784 932 q 893 783 893 847 q 844 663 893 724 q 739 602 795 602 q 722 631 722 602 q 726 668 722 643 q 730 707 730 694 q 711 779 730 739 q 656 819 691 819 q 574 755 634 819 q 465 591 515 691 l 642 591 q 674 588 665 591 q 684 572 684 585 q 671 536 684 547 q 629 525 659 525 l 436 525 q 411 450 422 487 z "},"":{"ha":304,"x_min":33,"x_max":290,"o":"m 117 290 q 148 235 132 255 q 197 189 165 214 q 228 153 228 167 q 218 136 228 144 q 196 127 208 127 q 156 144 182 127 q 107 182 130 160 q 37 288 64 228 q 33 304 33 298 q 72 366 33 328 q 163 439 110 401 q 253 496 216 477 q 264 498 261 498 q 282 491 273 498 q 290 475 290 483 q 214 390 290 452 q 157 340 174 358 q 117 290 140 323 z "},"":{"ha":304,"x_min":33,"x_max":290,"o":"m 90 467 q 97 484 90 475 q 111 492 104 492 q 149 472 123 492 q 204 421 175 452 q 290 297 290 328 q 280 279 290 293 q 260 256 270 266 q 172 189 226 224 q 66 127 117 153 q 56 123 60 123 q 41 131 49 123 q 33 144 33 138 q 60 186 33 158 q 123 240 87 214 q 199 317 199 295 q 176 359 199 327 q 131 411 153 391 q 102 445 115 429 q 90 467 90 462 z "},"":{"ha":737,"x_min":29,"x_max":711,"o":"m 218 -186 q 176 -216 195 -208 q 126 -224 157 -224 q 51 -198 72 -224 q 29 -109 29 -172 q 42 47 29 -42 q 90 307 56 137 q 117 430 104 379 q 144 524 130 481 q 178 610 159 566 q 232 718 208 675 q 326 842 276 794 q 440 917 375 889 q 568 943 511 943 q 711 825 711 943 q 697 754 711 785 q 660 704 684 722 q 607 685 635 685 q 552 706 572 685 q 532 760 532 726 q 545 823 532 781 q 548 835 547 831 q 550 843 549 839 q 533 846 534 846 q 469 811 502 846 q 351 567 409 743 q 306 364 319 463 l 325 364 q 443 396 412 364 q 472 458 456 408 q 524 571 495 526 q 551 606 532 585 q 615 639 585 639 q 688 511 688 639 q 677 377 688 452 q 650 233 667 301 q 611 110 633 165 q 570 33 589 54 q 525 17 555 17 q 442 60 475 17 q 408 168 408 104 q 416 239 408 189 l 414 241 q 349 193 374 203 q 294 180 327 184 q 288 144 291 161 q 281 109 284 126 q 276 73 279 92 q 271 37 273 53 q 225 -175 243 -142 q 222 -180 224 -178 q 218 -186 220 -183 z "},"":{"ha":1017,"x_min":26,"x_max":1006,"o":"m 660 351 q 715 393 696 372 q 814 557 778 462 q 860 771 860 673 q 855 798 860 787 q 843 808 850 808 q 756 669 812 808 q 660 351 700 530 m 306 346 l 427 342 q 454 434 440 401 q 500 530 467 467 q 574 657 537 600 q 646 763 610 715 q 720 852 682 812 q 798 913 759 894 q 878 933 837 933 q 972 883 938 933 q 1006 745 1006 833 q 925 476 1006 597 q 844 376 892 427 q 749 294 795 325 q 654 245 708 269 q 699 189 654 189 q 783 222 738 189 q 895 335 827 256 l 900 335 q 929 293 929 335 q 906 214 929 258 q 842 126 883 170 q 631 21 739 21 q 461 71 500 21 q 444 96 450 85 q 430 126 437 106 q 414 178 423 146 q 372 171 401 176 q 283 161 319 163 q 267 46 275 113 q 247 -98 258 -39 q 225 -178 235 -157 q 214 -193 220 -186 q 178 -214 197 -209 q 123 -220 159 -220 q 50 -196 74 -220 q 32 -162 37 -181 q 26 -104 26 -143 q 28 -93 26 -97 l 28 -83 l 28 -74 q 34 16 28 -37 q 55 148 40 69 q 83 294 69 226 q 135 501 111 422 q 197 669 159 581 q 269 817 234 756 q 341 906 304 878 q 425 933 378 933 q 498 869 498 933 q 484 765 498 830 q 449 636 470 700 q 435 611 444 621 q 419 604 428 604 q 401 612 408 604 q 395 631 395 619 q 397 659 395 643 q 401 715 401 692 q 387 774 401 746 q 346 610 370 766 q 343 591 346 609 l 340 574 l 306 346 z "},"":{"ha":636,"x_min":-28,"x_max":631,"o":"m 227 672 l 228 679 q 231 691 229 683 q 235 705 233 700 q 297 892 269 839 q 313 911 300 899 q 454 958 363 958 q 522 882 522 958 q 484 708 522 836 l 478 688 q 574 681 543 686 q 617 663 604 675 q 631 624 631 650 q 582 544 631 570 q 418 514 534 519 l 387 411 l 427 411 q 525 397 496 411 q 553 350 553 384 q 499 267 553 294 q 329 236 446 239 q 266 61 299 142 q 210 -58 233 -19 q 150 -102 183 -102 q 103 -78 121 -102 q 85 -9 85 -54 q 94 78 85 24 q 123 218 102 132 l 127 237 q 10 258 47 241 q -28 306 -28 275 q 17 369 -28 347 q 164 399 62 391 l 195 514 q 81 537 114 520 q 47 585 47 553 q 92 644 47 623 q 227 672 136 665 z "},"":{"ha":694,"x_min":258,"x_max":479,"o":"m 370 581 q 448 549 416 581 q 479 471 479 517 q 447 392 479 425 q 370 359 415 359 q 292 393 325 359 q 258 471 258 426 q 291 549 258 517 q 370 581 323 581 z "},"":{"ha":304,"x_min":32,"x_max":288,"o":"m 72 -121 q 32 -75 32 -121 q 63 50 32 -27 q 131 170 95 127 q 169 197 148 189 q 225 205 189 205 q 288 168 288 205 l 288 165 q 260 74 283 121 q 213 -17 233 15 q 174 -69 194 -49 q 123 -107 151 -94 q 72 -121 96 -121 z "},"":{"ha":460,"x_min":36,"x_max":431,"o":"m 253 12 l 264 36 q 275 61 272 53 l 286 85 q 327 165 315 145 q 349 192 338 186 q 421 211 378 211 q 431 199 431 211 q 410 143 431 184 q 355 48 389 102 q 286 -52 321 -7 q 218 -132 248 -104 q 205 -139 212 -139 q 193 -123 193 -139 q 241 -9 193 -103 q 253 12 244 -2 m 268 193 q 217 89 264 170 q 94 -98 169 7 q 52 -135 70 -135 q 36 -111 36 -135 q 44 -73 36 -101 q 61 -26 52 -45 q 180 187 146 154 q 240 214 207 214 q 268 195 268 214 l 268 193 z "},"":{"ha":1779,"x_min":33,"x_max":1757,"o":"m 1659 532 q 1671 534 1672 534 q 1710 510 1690 534 q 1744 448 1731 486 q 1757 371 1757 411 q 1730 226 1757 305 q 1658 79 1702 146 q 1567 -21 1615 12 q 1513 -46 1543 -37 q 1455 -56 1482 -56 q 1340 0 1387 -56 q 1293 139 1293 56 q 1311 262 1293 198 q 1359 382 1329 326 q 1428 475 1390 438 q 1513 533 1465 511 q 1609 554 1561 554 q 1659 532 1636 554 m 1614 513 l 1619 514 l 1617 517 q 1554 481 1581 512 q 1481 351 1513 435 q 1450 199 1450 266 q 1463 123 1450 162 q 1495 59 1476 84 q 1532 33 1514 33 q 1564 56 1546 33 q 1594 114 1582 79 q 1625 216 1613 159 q 1636 314 1636 273 q 1588 461 1636 414 q 1579 473 1579 468 q 1607 507 1579 481 q 1614 513 1610 509 m 1088 532 q 1100 534 1099 534 q 1139 510 1119 534 q 1173 448 1160 486 q 1186 371 1186 411 q 1159 226 1186 305 q 1086 79 1131 147 q 994 -21 1042 12 q 942 -46 972 -37 q 885 -56 912 -56 q 768 1 816 -56 q 721 139 721 57 q 739 262 721 198 q 788 382 756 326 q 857 475 820 439 q 942 533 894 511 q 1038 554 989 554 q 1088 532 1065 554 m 1042 513 l 1047 514 l 1044 517 q 982 481 1013 513 q 909 351 941 435 q 878 199 878 266 q 891 123 878 162 q 923 59 904 84 q 960 33 942 33 q 991 55 974 33 q 1023 114 1008 76 q 1054 215 1042 160 q 1065 314 1065 271 q 1015 461 1065 415 q 1007 473 1007 469 q 1036 507 1007 480 q 1042 513 1042 513 m 400 960 q 411 962 406 962 q 452 938 431 962 q 485 876 472 913 q 498 799 498 838 q 439 578 498 701 q 307 407 380 456 q 196 372 257 372 q 80 428 127 372 q 33 567 33 484 q 51 690 33 626 q 100 810 68 753 q 168 904 131 867 q 255 961 206 940 q 350 982 304 982 q 400 960 378 982 m 354 940 l 359 943 l 357 946 q 294 908 323 939 q 221 779 252 862 q 191 628 191 696 q 203 552 191 591 q 235 487 216 513 q 272 461 254 461 q 304 483 287 461 q 335 542 321 505 q 378 742 378 652 q 364 829 378 790 q 328 889 351 869 q 319 901 319 897 q 349 935 319 910 q 351 937 350 936 q 354 940 353 939 m 481 401 l 494 421 q 621 615 571 541 q 717 757 670 690 q 800 869 764 825 q 892 961 854 937 q 942 979 917 979 q 979 968 962 979 q 1006 936 996 956 q 1017 896 1017 916 q 1006 848 1017 873 q 974 787 996 823 q 904 684 952 752 q 891 664 899 675 q 882 652 883 653 l 859 616 l 838 586 q 706 404 775 498 q 569 222 637 311 q 446 65 501 134 q 378 -11 411 21 q 293 -58 332 -58 q 256 -44 271 -58 q 240 -11 240 -31 q 424 309 240 23 q 434 325 431 319 q 454 357 438 332 l 481 401 z "},"":{"ha":1013,"x_min":24,"x_max":1011,"o":"m 557 648 l 432 385 l 616 385 l 559 648 l 557 648 m 498 827 l 457 901 q 486 918 473 913 q 612 936 538 936 q 728 893 687 936 q 785 789 763 856 q 827 597 808 722 q 844 503 837 534 q 876 389 868 414 q 904 310 884 364 q 922 266 911 294 q 943 214 933 238 q 1011 74 966 161 q 915 16 954 34 q 843 -1 876 -1 q 776 14 803 -1 q 728 64 749 30 q 676 189 702 110 q 670 208 673 197 q 661 233 666 220 q 538 200 582 200 q 494 201 513 200 q 350 205 479 203 l 343 192 q 273 71 305 113 q 198 13 240 30 q 92 -4 155 -4 q 39 4 55 -4 q 24 31 24 12 q 98 154 24 53 q 138 210 125 189 q 66 260 66 223 q 123 349 66 290 q 174 385 151 377 q 256 393 197 393 q 325 520 310 493 q 363 590 340 548 q 417 685 387 631 q 498 827 448 738 m 652 1061 l 640 1053 q 531 1010 569 1010 q 485 1044 485 1010 q 518 1090 485 1068 q 635 1141 551 1112 q 734 1173 718 1173 q 775 1146 752 1173 q 821 1100 789 1131 q 857 1067 848 1075 q 886 1034 886 1042 q 858 1003 886 1017 q 793 989 829 989 q 725 1005 756 989 q 652 1061 693 1021 z "},"":{"ha":854,"x_min":45,"x_max":840,"o":"m 599 307 l 351 309 l 351 292 q 380 202 351 242 q 443 161 408 161 q 545 187 478 161 q 697 261 612 213 l 721 275 q 754 296 745 289 q 804 321 794 321 q 817 298 817 321 q 808 243 817 274 q 785 183 799 212 q 758 142 772 154 q 626 66 720 107 q 436 3 532 26 q 376 -4 404 -4 q 207 34 283 -4 q 87 137 130 71 q 45 283 45 203 q 73 430 45 350 q 151 590 100 510 q 264 734 201 669 q 387 838 319 791 q 518 909 454 884 q 636 935 583 935 q 780 887 720 935 q 840 771 840 839 q 829 706 840 741 q 800 644 819 671 q 744 589 781 616 q 660 542 707 562 q 564 519 604 519 q 524 539 524 519 q 546 575 524 551 q 593 635 570 597 q 631 729 614 675 q 647 814 647 783 q 632 839 647 839 q 547 787 608 839 q 449 684 485 734 q 393 587 415 636 q 364 490 372 538 l 726 490 q 786 460 786 490 q 720 367 786 431 q 599 307 654 307 m 585 1061 l 572 1053 q 464 1010 502 1010 q 418 1044 418 1010 q 451 1090 418 1068 q 568 1141 484 1112 q 667 1173 650 1173 q 708 1146 685 1173 q 754 1100 722 1131 q 790 1067 781 1075 q 819 1034 819 1042 q 790 1003 819 1017 q 726 989 762 989 q 657 1005 689 989 q 585 1061 626 1021 z "},"":{"ha":1013,"x_min":24,"x_max":1011,"o":"m 557 648 l 432 385 l 616 385 l 559 648 l 557 648 m 498 827 l 457 901 q 486 918 473 913 q 612 936 538 936 q 728 893 687 936 q 785 789 763 856 q 827 597 808 722 q 844 503 837 534 q 876 389 868 414 q 904 310 884 364 q 922 266 911 294 q 943 214 933 238 q 1011 74 966 161 q 915 16 954 34 q 843 -1 876 -1 q 776 14 803 -1 q 728 64 749 30 q 676 189 702 110 q 670 208 673 197 q 661 233 666 220 q 538 200 582 200 q 494 201 513 200 q 350 205 479 203 l 343 192 q 273 71 305 113 q 198 13 240 30 q 92 -4 155 -4 q 39 4 55 -4 q 24 31 24 12 q 98 154 24 53 q 138 210 125 189 q 66 260 66 223 q 123 349 66 290 q 174 385 151 377 q 256 393 197 393 q 325 520 310 493 q 363 590 340 548 q 417 685 387 631 q 498 827 448 738 m 617 1046 q 686 1137 648 1078 q 709 1169 705 1164 q 724 1178 713 1174 q 801 1200 753 1188 q 865 1211 849 1211 q 886 1193 886 1211 q 811 1082 886 1153 q 697 997 753 1026 q 589 968 641 968 q 560 989 560 968 q 566 1003 560 997 q 587 1021 571 1009 q 617 1046 593 1025 z "},"":{"ha":854,"x_min":45,"x_max":840,"o":"m 599 307 l 351 309 l 351 292 q 380 202 351 242 q 443 161 408 161 q 545 187 478 161 q 697 261 612 213 l 721 275 q 754 296 745 289 q 804 321 794 321 q 817 298 817 321 q 808 243 817 274 q 785 183 799 212 q 758 142 772 154 q 626 66 720 107 q 436 3 532 26 q 376 -4 404 -4 q 207 34 283 -4 q 87 137 130 71 q 45 283 45 203 q 73 430 45 350 q 151 590 100 510 q 264 734 201 669 q 387 838 319 791 q 518 909 454 884 q 636 935 583 935 q 780 887 720 935 q 840 771 840 839 q 829 706 840 741 q 800 644 819 671 q 744 589 781 616 q 660 542 707 562 q 564 519 604 519 q 524 539 524 519 q 546 575 524 551 q 593 635 570 597 q 631 729 614 675 q 647 814 647 783 q 632 839 647 839 q 547 787 608 839 q 449 684 485 734 q 393 587 415 636 q 364 490 372 538 l 726 490 q 786 460 786 490 q 720 367 786 431 q 599 307 654 307 m 447 996 q 406 1007 421 996 q 390 1038 390 1019 q 407 1100 390 1059 q 440 1156 426 1143 q 492 1180 455 1170 q 569 1190 530 1190 q 614 1150 614 1190 q 562 1044 614 1092 q 447 996 511 996 m 713 966 q 631 1029 631 966 q 642 1084 631 1056 q 668 1128 652 1112 q 769 1154 694 1154 q 833 1118 833 1154 q 823 1078 833 1104 q 797 1026 812 1052 q 766 985 782 1000 q 713 966 750 966 z "},"":{"ha":854,"x_min":45,"x_max":840,"o":"m 599 307 l 351 309 l 351 292 q 380 202 351 242 q 443 161 408 161 q 545 187 478 161 q 697 261 612 213 l 721 275 q 754 296 745 289 q 804 321 794 321 q 817 298 817 321 q 808 243 817 274 q 785 183 799 212 q 758 142 772 154 q 626 66 720 107 q 436 3 532 26 q 376 -4 404 -4 q 207 34 283 -4 q 87 137 130 71 q 45 283 45 203 q 73 430 45 350 q 151 590 100 510 q 264 734 201 669 q 387 838 319 791 q 518 909 454 884 q 636 935 583 935 q 780 887 720 935 q 840 771 840 839 q 829 706 840 741 q 800 644 819 671 q 744 589 781 616 q 660 542 707 562 q 564 519 604 519 q 524 539 524 519 q 546 575 524 551 q 593 635 570 597 q 631 729 614 675 q 647 814 647 783 q 632 839 647 839 q 547 787 608 839 q 449 684 485 734 q 393 587 415 636 q 364 490 372 538 l 726 490 q 786 460 786 490 q 720 367 786 431 q 599 307 654 307 m 551 1206 q 574 1196 564 1206 q 598 1160 585 1186 q 675 1057 627 1103 q 686 1046 681 1051 q 699 1035 692 1042 q 719 1016 713 1024 q 725 997 725 1008 q 675 966 725 966 q 479 1047 562 966 q 444 1089 456 1069 q 432 1120 432 1108 q 451 1145 432 1127 q 497 1181 470 1162 q 551 1206 535 1206 z "},"":{"ha":806,"x_min":31,"x_max":795,"o":"m 484 804 l 478 804 q 289 761 421 804 q 160 729 191 729 q 123 743 138 729 q 107 777 107 757 q 144 857 107 809 q 218 920 181 905 q 449 942 273 942 q 589 935 519 942 q 708 917 660 928 q 770 892 757 905 q 777 863 777 885 q 765 788 777 842 q 739 686 754 735 q 513 149 644 387 q 450 56 480 89 q 384 10 420 24 q 297 -4 347 -4 q 163 23 225 -4 q 66 98 102 51 q 31 201 31 145 q 47 286 31 241 q 85 355 64 331 q 109 368 95 368 q 151 347 131 368 q 193 275 170 326 q 269 147 227 199 q 290 123 274 141 q 339 240 322 195 q 379 363 357 286 q 432 551 395 412 q 484 804 461 669 m 526 1046 q 595 1137 557 1078 q 618 1169 614 1164 q 633 1178 622 1174 q 710 1200 662 1188 q 774 1211 758 1211 q 795 1193 795 1211 q 720 1082 795 1153 q 606 997 663 1026 q 498 968 550 968 q 469 989 469 968 q 475 1003 469 997 q 496 1021 480 1009 q 526 1046 503 1025 z "},"":{"ha":806,"x_min":31,"x_max":795,"o":"m 484 804 l 478 804 q 289 761 421 804 q 160 729 191 729 q 123 743 138 729 q 107 777 107 757 q 144 857 107 809 q 218 920 181 905 q 449 942 273 942 q 589 935 519 942 q 708 917 660 928 q 770 892 757 905 q 777 863 777 885 q 765 788 777 842 q 739 686 754 735 q 513 149 644 387 q 450 56 480 89 q 384 10 420 24 q 297 -4 347 -4 q 163 23 225 -4 q 66 98 102 51 q 31 201 31 145 q 47 286 31 241 q 85 355 64 331 q 109 368 95 368 q 151 347 131 368 q 193 275 170 326 q 269 147 227 199 q 290 123 274 141 q 339 240 322 195 q 379 363 357 286 q 432 551 395 412 q 484 804 461 669 m 561 1061 l 549 1053 q 440 1010 478 1010 q 394 1044 394 1010 q 427 1090 394 1068 q 544 1141 460 1112 q 643 1173 627 1173 q 684 1146 661 1173 q 730 1100 698 1131 q 766 1067 757 1075 q 795 1034 795 1042 q 767 1003 795 1017 q 703 989 738 989 q 634 1005 665 989 q 561 1061 602 1021 z "},"":{"ha":806,"x_min":31,"x_max":810,"o":"m 484 804 l 478 804 q 289 761 421 804 q 160 729 191 729 q 123 743 138 729 q 107 777 107 757 q 144 857 107 809 q 218 920 181 905 q 449 942 273 942 q 589 935 519 942 q 708 917 660 928 q 770 892 757 905 q 777 863 777 885 q 765 788 777 842 q 739 686 754 735 q 513 149 644 387 q 450 56 480 89 q 384 10 420 24 q 297 -4 347 -4 q 163 23 225 -4 q 66 98 102 51 q 31 201 31 145 q 47 286 31 241 q 85 355 64 331 q 109 368 95 368 q 151 347 131 368 q 193 275 170 326 q 269 147 227 199 q 290 123 274 141 q 339 240 322 195 q 379 363 357 286 q 432 551 395 412 q 484 804 461 669 m 423 996 q 382 1007 397 996 q 366 1038 366 1019 q 383 1100 366 1059 q 416 1156 402 1143 q 469 1180 431 1170 q 545 1190 506 1190 q 590 1150 590 1190 q 538 1044 590 1092 q 423 996 487 996 m 690 966 q 607 1029 607 966 q 618 1084 607 1056 q 644 1128 629 1112 q 745 1154 670 1154 q 810 1118 810 1154 q 799 1078 810 1104 q 773 1026 788 1052 q 743 985 758 1000 q 690 966 726 966 z "},"":{"ha":806,"x_min":31,"x_max":777,"o":"m 484 804 l 478 804 q 289 761 421 804 q 160 729 191 729 q 123 743 138 729 q 107 777 107 757 q 144 857 107 809 q 218 920 181 905 q 449 942 273 942 q 589 935 519 942 q 708 917 660 928 q 770 892 757 905 q 777 863 777 885 q 765 788 777 842 q 739 686 754 735 q 513 149 644 387 q 450 56 480 89 q 384 10 420 24 q 297 -4 347 -4 q 163 23 225 -4 q 66 98 102 51 q 31 201 31 145 q 47 286 31 241 q 85 355 64 331 q 109 368 95 368 q 151 347 131 368 q 193 275 170 326 q 269 147 227 199 q 290 123 274 141 q 339 240 322 195 q 379 363 357 286 q 432 551 395 412 q 484 804 461 669 m 528 1206 q 551 1196 541 1206 q 574 1160 561 1186 q 651 1057 603 1103 q 663 1046 657 1051 q 675 1035 668 1042 q 695 1016 689 1024 q 701 997 701 1008 q 651 966 701 966 q 455 1047 538 966 q 420 1089 433 1069 q 408 1120 408 1108 q 427 1145 408 1127 q 473 1181 446 1162 q 528 1206 511 1206 z "},"":{"ha":882,"x_min":33,"x_max":867,"o":"m 449 737 q 381 660 402 690 q 335 574 359 630 q 309 488 317 533 q 298 385 298 448 q 315 236 298 296 q 366 147 332 177 q 446 117 399 117 q 523 144 484 117 q 595 217 563 172 q 647 318 627 262 q 667 425 667 374 q 603 619 667 518 q 579 675 579 660 q 610 730 579 703 q 689 789 644 764 q 760 815 734 815 q 791 808 774 815 q 817 790 808 801 q 852 708 838 768 q 867 581 867 648 q 801 285 867 420 q 624 71 736 150 q 380 -8 511 -8 q 231 20 305 -8 q 111 94 157 47 q 33 298 33 172 q 62 454 33 372 q 140 613 90 536 q 255 755 190 691 q 390 857 321 820 q 526 911 453 891 q 653 932 598 932 q 730 908 730 932 q 714 879 730 899 q 662 840 684 851 q 590 814 640 828 q 511 784 536 798 q 449 737 487 771 m 564 1046 q 633 1137 595 1078 q 656 1169 652 1164 q 671 1178 660 1174 q 748 1200 700 1188 q 812 1211 796 1211 q 833 1193 833 1211 q 758 1082 833 1153 q 644 997 701 1026 q 536 968 588 968 q 507 989 507 968 q 513 1003 507 997 q 534 1021 518 1009 q 564 1046 541 1025 z "},"":{"ha":882,"x_min":33,"x_max":867,"o":"m 449 737 q 381 660 402 690 q 335 574 359 630 q 309 488 317 533 q 298 385 298 448 q 315 236 298 296 q 366 147 332 177 q 446 117 399 117 q 523 144 484 117 q 595 217 563 172 q 647 318 627 262 q 667 425 667 374 q 603 619 667 518 q 579 675 579 660 q 610 730 579 703 q 689 789 644 764 q 760 815 734 815 q 791 808 774 815 q 817 790 808 801 q 852 708 838 768 q 867 581 867 648 q 801 285 867 420 q 624 71 736 150 q 380 -8 511 -8 q 231 20 305 -8 q 111 94 157 47 q 33 298 33 172 q 62 454 33 372 q 140 613 90 536 q 255 755 190 691 q 390 857 321 820 q 526 911 453 891 q 653 932 598 932 q 730 908 730 932 q 714 879 730 899 q 662 840 684 851 q 590 814 640 828 q 511 784 536 798 q 449 737 487 771 m 599 1061 l 587 1053 q 478 1010 516 1010 q 432 1044 432 1010 q 465 1090 432 1068 q 582 1141 498 1112 q 681 1173 665 1173 q 722 1146 699 1173 q 768 1100 736 1131 q 804 1067 795 1075 q 833 1034 833 1042 q 805 1003 833 1017 q 741 989 776 989 q 672 1005 703 989 q 599 1061 640 1021 z "},"":{"ha":1097,"x_min":70,"x_max":1018,"o":"m 568 41 q 472 14 533 41 q 374 -1 424 -10 q 286 40 321 7 q 205 132 235 87 q 135 262 175 178 q 88 423 106 328 q 82 583 70 517 q 201 806 111 736 q 324 856 252 845 q 444 854 396 867 q 496 834 454 852 q 568 817 538 817 q 640 834 599 817 q 692 854 680 852 q 814 856 742 867 q 936 806 886 845 q 989 753 954 792 q 942 716 954 727 q 918 691 929 705 q 896 659 907 677 q 860 519 858 597 q 873 447 861 484 q 905 383 886 409 q 945 338 927 354 q 990 310 964 323 q 1018 296 1017 296 q 961 180 981 218 q 918 111 941 142 q 867 54 895 81 q 840 29 851 40 q 811 10 828 18 q 764 -1 794 3 q 664 14 715 -10 q 568 41 605 41 m 786 1122 q 787 1077 787 1101 q 783 1036 787 1053 q 766 984 779 1011 q 736 942 753 958 q 642 868 695 901 q 564 856 632 862 q 571 926 559 898 q 619 1022 597 994 q 661 1066 642 1050 q 694 1089 680 1082 q 786 1122 751 1116 z "},"":{"ha":882,"x_min":33,"x_max":867,"o":"m 449 737 q 381 660 402 690 q 335 574 359 630 q 309 488 317 533 q 298 385 298 448 q 315 236 298 296 q 366 147 332 177 q 446 117 399 117 q 523 144 484 117 q 595 217 563 172 q 647 318 627 262 q 667 425 667 374 q 603 619 667 518 q 579 675 579 660 q 610 730 579 703 q 689 789 644 764 q 760 815 734 815 q 791 808 774 815 q 817 790 808 801 q 852 708 838 768 q 867 581 867 648 q 801 285 867 420 q 624 71 736 150 q 380 -8 511 -8 q 231 20 305 -8 q 111 94 157 47 q 33 298 33 172 q 62 454 33 372 q 140 613 90 536 q 255 755 190 691 q 390 857 321 820 q 526 911 453 891 q 653 932 598 932 q 730 908 730 932 q 714 879 730 899 q 662 840 684 851 q 590 814 640 828 q 511 784 536 798 q 449 737 487 771 m 566 1206 q 589 1196 578 1206 q 612 1160 599 1186 q 689 1057 641 1103 q 701 1046 695 1051 q 713 1035 706 1042 q 733 1016 727 1024 q 739 997 739 1008 q 689 966 739 966 q 493 1047 576 966 q 458 1089 471 1069 q 446 1120 446 1108 q 465 1145 446 1127 q 511 1181 484 1162 q 566 1206 549 1206 z "},"":{"ha":868,"x_min":33,"x_max":854,"o":"m 543 319 l 545 319 l 542 319 q 452 175 490 230 q 378 85 413 120 q 291 19 334 41 q 208 -4 248 -4 q 79 46 125 -4 q 33 186 33 96 q 97 529 33 302 q 141 670 119 604 q 189 798 163 736 q 229 885 215 859 q 257 913 239 903 q 306 930 274 924 q 397 940 355 940 q 469 878 469 940 q 439 772 469 842 q 395 657 411 706 q 390 643 393 653 q 382 619 387 633 q 347 497 369 578 q 313 359 326 416 q 301 285 301 302 q 315 260 301 260 q 386 330 331 260 q 505 501 438 397 q 615 685 572 604 q 657 756 644 737 q 684 786 670 776 q 768 812 720 812 q 831 755 831 812 q 827 708 831 744 q 808 435 808 560 q 812 332 808 378 q 822 241 815 286 q 840 149 829 197 q 854 68 854 83 q 847 47 854 57 q 804 21 836 31 q 714 -1 745 -1 q 640 27 675 -1 q 582 107 605 56 q 547 265 555 168 q 543 319 545 281 m 557 1046 q 626 1137 587 1078 q 648 1169 644 1164 q 663 1178 652 1174 q 741 1200 692 1188 q 805 1211 789 1211 q 826 1193 826 1211 q 751 1082 826 1153 q 637 997 693 1026 q 529 968 581 968 q 500 989 500 968 q 505 1003 500 997 q 526 1021 511 1009 q 557 1046 533 1025 z "},"":{"ha":868,"x_min":33,"x_max":854,"o":"m 543 319 l 545 319 l 542 319 q 452 175 490 230 q 378 85 413 120 q 291 19 334 41 q 208 -4 248 -4 q 79 46 125 -4 q 33 186 33 96 q 97 529 33 302 q 141 670 119 604 q 189 798 163 736 q 229 885 215 859 q 257 913 239 903 q 306 930 274 924 q 397 940 355 940 q 469 878 469 940 q 439 772 469 842 q 395 657 411 706 q 390 643 393 653 q 382 619 387 633 q 347 497 369 578 q 313 359 326 416 q 301 285 301 302 q 315 260 301 260 q 386 330 331 260 q 505 501 438 397 q 615 685 572 604 q 657 756 644 737 q 684 786 670 776 q 768 812 720 812 q 831 755 831 812 q 827 708 831 744 q 808 435 808 560 q 812 332 808 378 q 822 241 815 286 q 840 149 829 197 q 854 68 854 83 q 847 47 854 57 q 804 21 836 31 q 714 -1 745 -1 q 640 27 675 -1 q 582 107 605 56 q 547 265 555 168 q 543 319 545 281 m 591 1061 l 579 1053 q 471 1010 509 1010 q 425 1044 425 1010 q 457 1090 425 1068 q 574 1141 490 1112 q 673 1173 657 1173 q 715 1146 692 1173 q 761 1100 728 1131 q 797 1067 787 1075 q 826 1034 826 1042 q 797 1003 826 1017 q 733 989 768 989 q 664 1005 696 989 q 591 1061 633 1021 z "},"":{"ha":868,"x_min":33,"x_max":854,"o":"m 543 319 l 545 319 l 542 319 q 452 175 490 230 q 378 85 413 120 q 291 19 334 41 q 208 -4 248 -4 q 79 46 125 -4 q 33 186 33 96 q 97 529 33 302 q 141 670 119 604 q 189 798 163 736 q 229 885 215 859 q 257 913 239 903 q 306 930 274 924 q 397 940 355 940 q 469 878 469 940 q 439 772 469 842 q 395 657 411 706 q 390 643 393 653 q 382 619 387 633 q 347 497 369 578 q 313 359 326 416 q 301 285 301 302 q 315 260 301 260 q 386 330 331 260 q 505 501 438 397 q 615 685 572 604 q 657 756 644 737 q 684 786 670 776 q 768 812 720 812 q 831 755 831 812 q 827 708 831 744 q 808 435 808 560 q 812 332 808 378 q 822 241 815 286 q 840 149 829 197 q 854 68 854 83 q 847 47 854 57 q 804 21 836 31 q 714 -1 745 -1 q 640 27 675 -1 q 582 107 605 56 q 547 265 555 168 q 543 319 545 281 m 558 1206 q 581 1196 571 1206 q 605 1160 591 1186 q 682 1057 633 1103 q 693 1046 688 1051 q 705 1035 699 1042 q 726 1016 720 1024 q 732 997 732 1008 q 682 966 732 966 q 486 1047 568 966 q 451 1089 463 1069 q 439 1120 439 1108 q 458 1145 439 1127 q 504 1181 477 1162 q 558 1206 542 1206 z "},"":{"ha":347,"x_min":37,"x_max":315,"o":"m 143 -5 l 135 -5 q 82 22 109 -5 q 47 81 58 49 q 37 163 37 113 q 47 283 37 220 q 79 417 58 346 q 123 540 100 488 q 171 623 146 593 q 228 647 191 647 q 315 510 315 647 q 296 327 315 431 q 248 134 277 222 q 189 12 218 45 q 143 -5 174 -5 z "},"":{"ha":465,"x_min":180,"x_max":582,"o":"m 347 859 l 335 850 q 227 807 264 807 q 180 842 180 807 q 213 887 180 865 q 330 939 246 909 q 429 970 413 970 q 471 943 448 970 q 517 897 484 928 q 553 864 543 872 q 582 831 582 839 q 553 800 582 814 q 489 786 524 786 q 420 802 452 786 q 347 859 389 819 z "},"":{"ha":482,"x_min":180,"x_max":596,"o":"m 215 842 q 180 864 180 842 q 260 925 180 894 q 368 951 330 951 q 414 943 392 951 q 460 917 435 935 q 514 892 494 892 q 557 899 535 892 q 576 901 577 901 q 590 896 585 901 q 596 882 596 891 q 567 847 596 867 q 446 803 497 803 q 350 840 401 803 q 301 863 319 863 q 262 852 290 863 q 215 842 233 842 z "},"":{"ha":463,"x_min":191,"x_max":590,"o":"m 293 947 l 532 947 q 578 932 566 947 q 590 879 590 918 q 575 845 590 862 q 536 816 559 827 q 489 804 512 804 l 253 804 q 214 811 227 804 q 195 831 200 818 q 191 868 191 845 q 225 924 191 900 q 293 947 259 947 z "},"":{"ha":463,"x_min":200,"x_max":600,"o":"m 228 970 q 279 949 241 970 q 401 907 345 907 q 529 950 457 907 q 572 968 562 968 q 593 960 585 968 q 600 939 600 951 q 589 905 600 926 q 558 865 577 884 q 475 807 523 828 q 382 786 428 786 q 295 807 337 786 q 226 863 252 829 q 200 936 200 898 q 208 960 200 949 q 228 970 216 970 z "},"":{"ha":463,"x_min":340,"x_max":557,"o":"m 441 842 q 388 848 412 842 q 350 867 363 855 q 340 899 340 876 q 357 969 340 938 q 400 1011 374 1000 q 492 1025 434 1025 q 543 1016 530 1025 q 557 985 557 1007 q 538 923 557 964 q 501 863 520 882 q 443 842 481 842 l 441 842 z "},"":{"ha":463,"x_min":221,"x_max":519,"o":"m 329 975 q 414 1019 373 1019 q 467 1004 443 1019 q 505 961 491 989 q 519 904 519 934 q 472 803 519 844 q 357 761 424 761 q 257 788 294 761 q 221 864 221 816 q 251 941 221 909 q 329 975 281 972 m 392 825 q 426 841 410 825 q 441 876 441 857 q 419 919 441 904 q 357 935 396 935 q 319 916 319 935 q 329 860 319 888 q 345 844 332 850 q 392 825 373 825 z "},"":{"ha":463,"x_min":3,"x_max":204,"o":"m 81 -79 q 21 -60 21 -79 q 35 -28 21 -44 q 71 -4 48 -13 q 117 5 93 5 q 179 -18 155 5 q 204 -79 204 -41 q 181 -136 204 -106 q 123 -184 159 -165 q 53 -203 87 -203 q 18 -194 33 -203 q 3 -174 3 -184 q 17 -163 3 -166 q 81 -79 77 -144 z "},"":{"ha":463,"x_min":254,"x_max":986,"o":"m 311 843 q 380 935 342 876 q 403 966 399 962 q 418 975 407 971 q 495 997 447 985 q 559 1008 543 1008 q 581 990 581 1008 q 505 879 581 950 q 391 794 448 823 q 283 765 335 765 q 254 786 254 765 q 260 800 254 794 q 281 818 265 806 q 311 843 288 823 m 717 843 q 787 935 742 868 q 809 967 805 963 q 823 975 812 971 q 901 997 852 985 q 966 1008 950 1008 q 986 990 986 1008 q 911 879 986 950 q 798 794 855 824 q 690 765 741 765 q 660 786 660 765 q 665 800 660 794 q 686 818 671 806 q 717 843 701 827 z "},"":{"ha":463,"x_min":29,"x_max":279,"o":"m 74 16 l 146 16 q 125 -65 125 -33 q 147 -121 125 -100 q 208 -142 170 -142 q 239 -138 220 -142 q 257 -136 249 -136 q 273 -142 267 -136 q 279 -157 279 -147 q 265 -180 279 -169 q 202 -222 238 -206 q 138 -239 167 -239 q 59 -209 88 -239 q 29 -129 29 -180 q 74 16 29 -74 z "},"":{"ha":463,"x_min":182,"x_max":581,"o":"m 414 897 l 428 904 q 539 946 505 946 q 581 911 581 946 q 559 877 581 892 q 469 831 538 861 q 357 787 385 793 q 334 785 338 785 q 288 818 317 785 q 270 836 277 829 q 256 851 264 842 q 212 889 226 879 q 182 925 182 914 q 213 954 182 941 q 281 968 245 968 q 347 953 319 968 q 414 897 375 938 z "},"":{"ha":534,"x_min":5,"x_max":546,"o":"m 104 424 l 117 468 q 195 723 161 625 q 253 864 228 821 q 311 913 269 895 q 437 932 359 932 q 502 920 484 932 q 521 879 521 908 q 492 766 521 852 q 410 551 463 680 l 399 524 q 530 575 496 575 q 546 551 546 575 q 528 514 546 530 q 410 452 496 484 q 363 433 405 450 l 353 407 q 286 218 328 340 q 275 182 279 195 q 264 144 271 168 q 415 168 323 149 q 489 180 476 180 q 513 161 513 180 q 487 99 513 139 q 428 29 460 58 q 361 0 406 8 q 224 -8 317 -8 q 89 -3 136 -8 q 66 4 88 -3 q 28 72 28 21 q 77 321 28 125 l 85 354 q 22 334 41 334 q 5 349 5 334 q 35 389 5 368 q 104 424 64 411 z "},"":{"ha":644,"x_min":-62,"x_max":726,"o":"m 302 436 l 401 488 q 446 656 427 562 q 465 796 465 749 q 458 808 465 808 q 436 787 452 808 q 407 742 420 766 q 317 496 348 623 q 302 436 315 491 m 591 578 l 657 610 q 705 625 693 625 q 726 606 726 625 q 699 562 726 576 l 559 494 q 445 357 512 415 q 338 298 378 298 q 314 317 314 298 q 345 374 314 326 q 349 380 346 375 l 353 385 l 350 387 l 286 354 q 281 265 281 302 q 290 192 281 215 q 318 170 298 170 q 401 202 355 170 q 485 289 448 235 q 530 329 514 329 q 551 296 551 329 q 506 154 551 223 q 389 42 460 85 q 243 -1 317 -1 q 137 25 184 -1 q 63 97 90 51 q 36 200 36 143 q 40 257 36 222 q -47 232 -26 232 q -62 244 -62 232 q -31 280 -62 258 q 56 325 1 302 q 99 475 79 422 q 164 610 119 527 q 340 854 238 747 q 419 917 384 898 q 492 936 454 936 q 558 913 528 936 q 604 850 588 890 q 621 760 621 809 q 591 578 621 668 z "},"":{"ha":708,"x_min":33,"x_max":747,"o":"m 232 435 q 150 539 174 494 q 126 637 126 585 q 174 785 126 716 q 302 895 222 854 q 475 936 382 936 q 635 892 579 936 q 692 770 692 849 q 671 691 692 732 q 615 615 651 650 q 570 578 591 591 q 534 566 549 566 q 517 593 517 566 q 519 614 517 592 q 524 671 524 646 q 513 742 524 706 q 486 801 503 777 q 454 825 469 825 q 437 814 447 825 q 409 767 419 795 q 399 714 399 739 q 408 657 399 684 q 438 604 416 631 q 496 545 460 577 q 584 454 553 493 q 629 377 614 416 q 643 294 643 339 q 602 142 643 216 q 492 24 560 69 q 351 -21 424 -21 q 216 9 282 -21 q 93 94 151 39 q 33 199 33 153 q 60 253 33 227 q 126 299 87 280 q 193 318 166 318 q 220 310 209 318 q 239 284 231 302 q 256 233 248 265 q 279 166 269 188 q 310 122 290 144 q 353 102 330 102 q 395 123 380 102 q 411 182 411 144 q 370 298 411 240 q 343 333 357 318 q 279 392 328 349 q 232 435 264 404 m 581 1100 l 595 1107 q 706 1149 671 1149 q 747 1114 747 1149 q 726 1079 747 1095 q 636 1034 705 1063 q 524 990 551 996 q 500 987 505 987 q 454 1021 484 987 q 437 1038 444 1031 q 422 1054 431 1045 q 379 1092 393 1082 q 349 1128 349 1117 q 380 1157 349 1143 q 448 1171 412 1171 q 514 1156 486 1171 q 581 1100 542 1141 z "},"":{"ha":623,"x_min":39,"x_max":661,"o":"m 237 -29 q 310 10 277 -27 q 343 90 343 47 q 323 138 343 120 q 229 179 302 159 q 89 249 121 210 q 58 323 58 280 q 115 479 58 401 q 260 607 172 557 q 437 657 348 657 q 519 637 481 657 q 579 583 557 616 q 602 510 602 549 q 577 430 602 471 q 516 361 553 389 q 446 334 479 334 q 413 342 427 334 q 399 359 399 350 q 404 387 399 369 q 419 489 419 446 q 393 570 419 532 q 350 533 360 547 q 310 465 324 503 q 294 392 294 427 q 306 353 294 368 q 342 328 317 338 q 419 306 368 318 q 541 265 505 285 q 566 245 549 260 q 591 174 591 218 q 562 79 591 127 q 472 -20 533 31 q 342 -98 407 -75 q 200 -122 278 -122 q 82 -92 125 -122 q 39 -11 39 -62 q 67 63 39 26 q 138 125 96 101 q 221 149 180 149 q 252 135 252 149 q 243 113 252 128 q 216 25 216 65 q 237 -29 216 -3 m 494 897 l 509 904 q 620 946 585 946 q 661 911 661 946 q 640 877 661 892 q 550 831 618 861 q 437 787 465 793 q 414 785 418 785 q 368 818 398 785 q 351 836 357 829 q 336 851 345 842 q 293 889 307 879 q 262 925 262 914 q 294 954 262 941 q 361 968 326 968 q 428 953 400 968 q 494 897 456 938 z "},"":{"ha":868,"x_min":41,"x_max":848,"o":"m 286 432 l 345 497 q 423 587 387 545 q 486 664 459 630 q 538 730 513 697 q 548 748 545 741 q 558 765 552 754 q 425 741 500 758 q 278 713 334 719 q 265 712 273 712 q 249 711 258 711 q 232 710 239 711 q 161 762 161 712 q 185 827 161 785 q 243 903 210 869 q 270 922 256 918 q 318 926 283 926 q 345 927 332 927 q 400 928 359 928 l 494 930 l 568 933 q 587 934 578 934 q 614 935 595 935 l 619 935 l 635 935 l 650 935 l 665 935 q 788 929 751 935 q 836 908 824 924 q 848 882 848 894 q 807 812 848 865 q 714 690 779 779 q 667 625 709 684 l 631 574 q 431 271 481 361 q 425 258 427 263 q 418 244 422 254 q 558 254 514 249 q 714 281 649 266 q 762 289 746 289 q 798 256 798 289 q 771 172 798 222 q 714 93 745 121 q 632 45 684 65 q 511 14 580 24 q 371 3 443 3 q 196 16 271 3 q 82 55 122 30 q 41 117 41 81 q 78 195 41 146 q 227 367 114 245 q 286 432 267 412 m 659 1100 l 673 1107 q 785 1149 750 1149 q 826 1114 826 1149 q 805 1079 826 1095 q 715 1034 783 1063 q 602 990 630 996 q 579 987 583 987 q 533 1021 563 987 q 516 1038 522 1031 q 501 1054 509 1045 q 458 1092 471 1082 q 427 1128 427 1117 q 459 1157 427 1143 q 526 1171 490 1171 q 593 1156 565 1171 q 659 1100 621 1141 z "},"":{"ha":593,"x_min":28,"x_max":646,"o":"m 385 524 l 355 513 q 119 458 195 458 q 68 504 68 458 q 83 559 68 529 q 119 611 98 590 q 168 648 145 637 q 224 659 190 659 q 250 658 235 659 q 283 657 264 658 q 464 649 418 652 q 536 642 509 647 q 573 625 559 637 q 586 599 586 613 q 349 204 586 555 l 323 167 l 355 167 q 522 199 442 167 q 547 205 543 205 q 568 170 568 205 q 537 62 568 111 q 449 -14 505 14 q 326 -41 393 -41 q 175 -26 243 -41 q 67 15 106 -12 q 28 75 28 42 q 44 117 28 93 q 111 193 61 141 q 149 235 119 203 l 171 258 l 195 286 l 211 306 l 228 323 q 326 439 286 388 q 351 472 340 456 q 387 521 362 487 l 385 524 m 479 897 l 493 904 q 604 946 570 946 q 646 911 646 946 q 624 877 646 892 q 534 831 603 861 q 422 787 450 793 q 399 785 403 785 q 353 818 382 785 q 335 836 342 829 q 321 851 329 842 q 277 889 291 879 q 247 925 247 914 q 278 954 247 941 q 346 968 310 968 q 412 953 385 968 q 479 897 440 938 z "},"":{"ha":817,"x_min":335,"x_max":482,"o":"m 335 307 l 482 307 l 482 -187 l 335 -187 l 335 307 m 335 966 l 482 966 l 482 471 l 335 471 l 335 966 z "},"":{"ha":940,"x_min":-40,"x_max":932,"o":"m 488 786 l 399 454 l 465 454 q 521 428 521 454 q 499 399 521 410 q 440 389 477 389 l 382 389 l 351 271 q 346 248 351 269 q 321 170 334 197 q 282 111 309 143 q 328 110 302 110 q 463 128 411 110 q 562 193 514 146 q 649 327 619 250 q 679 492 679 404 q 654 640 679 573 q 587 744 630 706 q 488 786 544 783 m 131 454 l 191 656 q 218 731 205 709 q 256 770 231 753 l 256 772 l 245 772 q 165 750 228 772 q 71 726 97 726 q 46 746 46 726 q 67 814 46 775 q 113 876 87 854 q 198 915 138 898 q 347 941 259 932 q 532 950 435 950 q 748 910 659 950 q 885 791 838 869 q 932 602 932 713 q 887 375 932 488 q 770 186 843 262 q 310 4 596 4 q 141 19 217 4 q 41 56 65 34 q 26 92 26 68 q 29 111 26 98 l 111 390 l 68 390 q -13 396 15 390 q -40 412 -40 402 q 81 454 -40 454 l 131 454 z "},"":{"ha":753,"x_min":52,"x_max":718,"o":"m 481 339 l 481 336 l 478 339 q 424 307 446 307 q 418 310 420 307 q 416 317 416 312 q 419 335 416 325 q 431 422 431 375 q 416 517 431 480 q 380 554 401 554 q 334 508 359 554 q 294 390 310 461 q 278 252 278 319 q 299 155 278 191 q 355 119 321 119 q 408 146 382 119 q 452 223 433 172 q 481 339 471 273 m 322 936 l 309 951 q 428 982 367 982 q 501 969 471 982 q 566 921 530 956 l 582 932 q 684 978 661 978 q 700 957 700 978 q 690 927 700 937 q 633 893 680 917 q 628 890 631 892 q 618 885 625 889 l 600 875 q 658 779 639 818 q 692 690 677 741 q 718 514 718 608 q 652 253 718 376 q 477 57 587 130 q 244 -17 368 -17 q 137 6 180 -17 q 73 75 95 29 q 52 186 52 120 q 83 349 52 265 q 167 501 115 433 q 283 611 219 570 q 407 653 347 653 q 497 619 447 653 q 472 713 494 660 q 432 791 457 749 l 412 783 q 395 775 399 777 q 301 741 317 741 q 288 754 288 741 q 309 781 288 766 q 379 822 330 797 q 404 836 393 831 q 322 936 367 889 z "},"":{"ha":956,"x_min":37,"x_max":949,"o":"m 395 765 l 400 714 q 404 672 403 702 q 453 340 420 486 q 489 222 468 279 q 547 345 517 279 q 568 391 558 369 q 580 420 577 412 q 593 449 583 427 q 639 568 607 483 q 666 644 659 625 q 694 707 673 662 q 762 806 720 763 q 818 854 787 831 q 877 890 849 877 q 922 903 905 903 q 949 882 949 903 q 935 832 949 863 q 832 604 897 739 q 700 341 768 469 q 586 139 633 213 q 510 25 548 76 q 380 -127 438 -75 q 250 -211 323 -180 q 167 -236 212 -228 q 114 -241 133 -241 q 58 -229 79 -241 q 37 -195 37 -217 q 61 -120 37 -170 q 111 -41 85 -70 q 172 -25 127 -25 q 254 -14 221 -25 q 302 4 277 -7 q 357 36 326 16 q 267 202 304 125 q 203 354 229 279 q 145 563 168 451 q 123 757 123 674 q 134 830 123 805 q 172 871 145 854 q 260 914 212 896 q 340 932 309 932 q 376 913 367 932 q 387 833 385 894 q 395 765 391 789 m 602 1046 q 671 1137 632 1078 q 693 1169 689 1164 q 708 1178 697 1174 q 785 1200 737 1188 q 850 1211 833 1211 q 871 1193 871 1211 q 795 1082 871 1153 q 682 997 738 1026 q 574 968 625 968 q 545 989 545 968 q 550 1003 545 997 q 571 1021 555 1009 q 602 1046 578 1025 z "},"":{"ha":694,"x_min":28,"x_max":697,"o":"m 469 465 l 478 494 q 532 599 496 562 q 585 637 555 622 q 639 652 614 652 q 684 614 684 652 q 671 555 684 595 q 639 464 659 515 q 592 353 619 414 q 533 229 566 293 q 414 25 474 109 q 326 -81 370 -35 q 232 -163 281 -127 q 139 -219 182 -200 q 58 -237 95 -237 q 28 -211 28 -237 q 37 -161 28 -190 q 64 -106 47 -132 q 110 -62 82 -81 q 214 -7 145 -38 q 152 102 173 62 q 106 201 131 142 q 50 441 50 334 q 71 575 50 524 q 138 637 89 619 q 208 653 177 653 q 268 620 252 653 q 294 463 283 586 q 334 201 307 330 q 345 147 338 182 l 347 147 q 387 244 366 187 q 435 364 394 260 q 469 465 458 427 m 428 843 q 497 935 458 876 q 519 966 515 962 q 534 975 524 971 q 612 997 564 985 q 676 1008 660 1008 q 697 990 697 1008 q 622 879 697 950 q 508 794 564 823 q 400 765 452 765 q 371 786 371 765 q 376 800 371 794 q 397 818 382 806 q 428 843 404 823 z "},"":{"ha":825,"x_min":36,"x_max":785,"o":"m 468 679 l 351 293 q 444 327 397 294 q 520 412 490 361 q 550 514 550 464 q 530 606 550 566 q 468 679 509 646 m 528 854 l 526 850 q 648 814 605 838 q 724 755 692 791 q 785 585 785 686 q 734 408 785 492 q 599 272 683 323 q 422 221 515 221 q 335 229 389 221 q 297 123 316 165 q 288 109 293 117 q 281 97 283 102 q 197 37 256 63 q 94 3 122 3 q 52 17 67 3 q 36 57 36 31 q 65 182 36 83 l 125 379 q 175 537 148 454 q 229 696 202 620 l 237 720 l 265 796 l 283 846 q 302 887 294 872 q 322 913 311 902 q 429 954 362 954 q 504 933 477 954 q 530 875 530 912 q 528 854 530 871 z "},"":{"ha":766,"x_min":36,"x_max":750,"o":"m 277 77 l 272 65 l 268 50 q 198 -158 224 -92 q 153 -240 172 -225 q 118 -254 138 -254 q 58 -216 79 -254 q 36 -110 36 -178 q 68 154 36 2 q 144 447 94 280 q 253 757 195 614 q 296 851 272 806 q 341 924 319 896 q 383 966 363 953 q 422 978 398 978 q 475 957 457 978 q 481 926 481 951 q 476 892 481 903 l 357 449 l 359 446 l 453 595 q 505 640 470 622 q 576 659 541 659 q 668 628 628 659 q 729 541 707 597 q 750 410 750 484 q 702 205 750 303 q 577 47 654 107 q 416 -14 499 -14 q 336 7 368 -14 q 277 77 304 27 m 307 155 q 379 100 326 100 q 449 133 416 100 q 500 224 481 167 q 519 345 519 281 q 512 431 519 395 q 494 468 504 468 q 460 432 488 468 q 404 349 432 396 q 318 186 347 256 q 313 172 316 181 q 307 155 310 163 z "},"":{"ha":926,"x_min":85,"x_max":842,"o":"m 85 532 l 842 532 l 842 386 l 85 386 l 85 532 z "},"":{"ha":926,"x_min":107,"x_max":821,"o":"m 107 711 l 210 814 l 464 559 l 718 814 l 821 711 l 568 457 l 819 205 l 717 103 l 465 354 l 212 103 l 110 205 l 361 457 l 107 711 z "},"":{"ha":534,"x_min":114,"x_max":440,"o":"m 140 510 l 257 825 q 248 822 254 824 q 237 817 243 819 q 201 804 204 804 q 176 833 176 804 q 196 882 176 863 q 267 920 205 890 q 283 927 277 924 q 294 932 288 929 l 304 936 l 315 942 q 321 945 319 945 q 326 947 323 946 q 407 979 388 979 q 431 968 422 979 q 440 940 440 958 q 411 844 440 927 q 380 755 397 810 l 298 486 l 297 482 q 282 438 289 452 q 262 411 275 424 q 218 385 245 395 q 171 375 191 375 q 132 391 149 375 q 114 425 114 406 q 132 490 114 450 q 137 503 136 499 q 140 510 139 506 z "},"":{"ha":534,"x_min":58,"x_max":436,"o":"m 228 903 q 203 851 210 875 q 196 796 196 827 q 203 736 196 767 q 205 714 205 714 q 191 700 205 700 q 125 736 155 700 q 96 817 96 773 q 149 932 96 884 q 277 979 201 979 q 392 943 349 979 q 436 847 436 907 q 415 766 436 813 q 351 660 394 720 q 240 522 308 600 q 298 517 273 517 q 429 534 349 517 q 407 481 427 513 q 359 421 387 448 q 302 386 336 397 q 220 375 269 375 q 109 395 159 375 q 58 437 58 414 q 107 507 58 453 q 165 576 128 530 q 246 704 221 650 q 271 804 271 758 q 261 862 271 840 q 228 903 251 884 z "},"":{"ha":534,"x_min":25,"x_max":481,"o":"m 203 764 q 196 762 200 762 q 155 788 175 762 q 135 842 135 814 q 160 911 135 879 q 228 962 185 943 q 322 981 271 981 q 434 952 394 981 q 473 871 473 924 q 358 737 473 796 l 358 734 q 450 708 418 733 q 481 637 481 684 q 389 476 481 564 q 279 402 340 429 q 164 375 218 375 q 90 389 121 375 q 42 429 59 403 q 25 489 25 455 q 68 589 25 548 q 133 631 92 612 q 199 650 174 650 q 212 639 212 650 q 207 628 212 635 q 166 567 178 595 q 154 503 154 538 q 179 450 154 450 q 211 463 189 450 q 250 490 234 475 q 295 554 277 515 q 314 621 314 592 q 300 665 314 649 q 256 688 286 681 q 222 710 222 693 q 244 741 222 722 q 296 806 279 772 q 314 873 314 840 q 298 901 314 901 q 269 886 286 901 q 237 845 252 871 q 212 787 222 819 q 203 764 205 768 z "},"":{"ha":1042,"x_min":33,"x_max":991,"o":"m 58 519 l 66 545 q 80 578 71 556 q 97 623 89 600 q 151 768 135 718 q 168 823 163 804 q 135 812 155 821 q 113 804 118 804 q 99 813 105 804 q 93 833 93 821 q 113 880 93 862 q 197 928 125 893 q 206 931 203 930 q 211 933 210 932 l 224 940 l 240 947 q 319 978 305 978 q 339 966 330 978 q 349 940 349 955 q 309 807 349 911 q 277 708 290 758 l 245 599 q 244 596 245 597 q 243 590 244 594 q 241 583 242 586 q 208 470 227 513 q 170 412 190 426 q 87 389 132 389 q 48 402 64 389 q 33 437 33 416 q 58 519 33 456 m 701 615 l 684 590 q 605 483 633 521 q 502 347 576 444 q 388 199 427 249 q 302 93 349 150 q 216 -5 248 26 q 132 -54 170 -54 q 99 -41 113 -54 q 85 -11 85 -28 q 114 62 85 5 q 199 208 143 118 q 323 400 254 297 l 608 823 q 706 935 655 893 q 791 977 757 977 q 825 965 810 977 q 850 935 841 954 q 860 895 860 916 q 837 819 860 864 q 749 682 813 774 q 725 650 743 674 l 701 615 m 705 29 l 722 49 q 802 174 777 118 q 827 282 827 229 q 818 334 827 315 q 783 372 808 354 q 750 265 750 327 q 755 204 750 237 q 758 183 758 193 q 746 171 758 171 q 681 208 709 171 q 652 289 652 244 q 677 369 652 332 q 744 429 702 406 q 832 452 785 452 q 915 435 879 452 q 971 388 951 418 q 991 319 991 358 q 973 242 991 285 q 915 143 954 199 q 815 18 876 87 l 793 -8 q 844 -12 829 -12 q 986 7 899 -12 q 962 -48 983 -14 q 916 -107 941 -81 q 857 -142 890 -131 q 777 -153 825 -153 q 700 -143 737 -153 q 638 -119 662 -134 q 614 -90 614 -104 q 663 -22 614 -77 q 705 29 699 19 z "},"":{"ha":1042,"x_min":33,"x_max":994,"o":"m 58 519 l 66 545 q 80 578 71 556 q 97 623 89 600 q 151 768 132 710 q 168 823 161 795 q 135 812 155 821 q 113 804 118 804 q 99 813 105 804 q 93 833 93 821 q 113 880 93 862 q 197 928 125 893 q 206 931 203 930 q 211 933 210 932 l 224 940 l 240 947 q 319 978 305 978 q 339 966 330 978 q 349 940 349 955 q 309 807 349 911 q 277 708 290 758 l 245 599 q 244 596 245 597 q 243 590 244 594 q 241 583 242 586 q 170 412 210 438 q 87 389 132 389 q 48 402 64 389 q 33 437 33 416 q 58 519 33 456 m 701 615 l 684 590 q 605 483 633 521 q 502 347 576 444 q 388 199 427 249 q 302 93 349 150 q 216 -5 248 26 q 132 -54 170 -54 q 99 -41 113 -54 q 85 -11 85 -28 q 151 130 85 16 q 323 400 217 243 l 608 823 q 706 935 655 893 q 791 977 757 977 q 825 965 810 977 q 850 935 841 954 q 860 895 860 916 q 837 819 860 864 q 749 682 813 774 q 725 650 743 674 l 701 615 m 615 195 l 619 205 q 694 383 665 335 q 713 408 704 397 q 767 440 734 427 q 831 453 801 453 q 851 448 844 453 q 859 433 859 442 q 796 328 859 416 q 704 180 734 243 l 741 180 q 806 184 768 180 l 808 193 q 848 264 830 248 q 889 286 861 277 q 945 296 917 296 q 986 277 986 296 q 968 211 986 260 q 964 202 966 206 q 960 192 962 197 l 957 184 l 958 184 l 966 184 l 977 184 q 994 175 994 184 q 983 149 994 163 q 924 87 953 104 q 905 29 911 54 q 893 -16 901 16 q 873 -109 884 -55 q 750 -155 793 -155 q 705 -117 705 -155 q 750 22 705 -89 q 765 61 760 47 l 770 74 l 753 72 q 668 68 707 68 q 603 74 618 68 q 587 98 587 80 q 611 183 587 117 q 615 195 614 188 z "},"":{"ha":1186,"x_min":33,"x_max":1143,"o":"m 215 621 l 204 608 q 163 494 163 563 q 186 443 163 443 q 219 456 196 443 q 258 484 241 469 q 303 548 284 509 q 322 614 322 587 q 264 679 322 667 q 229 703 229 688 q 253 733 229 714 q 303 799 284 762 q 322 867 322 835 q 306 895 322 895 q 260 860 286 895 q 221 781 235 825 q 213 759 216 764 q 204 754 210 754 q 163 781 184 754 q 143 835 143 807 q 168 903 143 871 q 236 955 193 936 q 329 974 279 974 q 443 945 403 974 q 482 863 482 916 q 367 730 482 790 l 367 728 q 458 701 427 726 q 489 631 489 676 q 465 552 489 596 q 397 469 440 509 q 288 395 349 422 q 172 368 227 368 q 99 382 130 368 q 50 421 67 395 q 33 482 33 448 q 77 582 33 541 q 141 624 100 606 q 205 643 181 643 q 221 632 221 643 q 215 621 221 627 m 852 616 l 835 591 q 746 470 785 522 q 654 348 707 418 q 544 205 601 277 q 456 94 486 132 q 368 -4 418 48 q 283 -52 323 -52 q 250 -39 264 -52 q 236 -8 236 -26 q 304 134 236 18 q 475 403 372 250 l 761 825 q 857 935 805 892 q 943 978 908 978 q 991 953 971 978 q 1011 896 1011 928 q 988 821 1011 865 q 900 685 965 777 q 876 652 884 661 l 852 616 m 918 74 l 901 72 q 817 69 840 69 q 751 75 767 69 q 736 100 736 81 q 760 184 736 123 l 827 353 q 862 408 845 391 q 908 437 878 425 q 979 453 949 453 q 1007 435 1007 453 q 945 329 1007 417 q 852 182 880 239 l 888 182 q 954 184 929 182 l 957 193 q 997 265 980 250 q 1037 287 1010 279 q 1093 296 1063 296 q 1135 277 1135 296 q 1117 212 1135 262 q 1108 192 1115 209 l 1105 184 l 1107 184 q 1116 186 1111 184 l 1125 186 q 1143 176 1143 186 q 1132 150 1143 168 q 1072 89 1101 105 q 1054 31 1062 62 q 1042 -14 1052 24 q 1035 -43 1040 -24 q 1029 -73 1031 -62 q 1022 -109 1027 -84 q 899 -154 941 -154 q 854 -117 854 -154 q 899 24 854 -88 q 914 62 909 51 l 918 74 z "},"":{"ha":347,"x_min":35,"x_max":332,"o":"m 115 211 q 57 231 79 211 q 35 283 35 252 q 46 334 35 303 q 69 376 57 365 q 200 406 100 406 q 301 393 271 406 q 332 349 332 380 q 313 286 332 313 q 249 244 295 262 q 115 211 159 211 z "},"":{"ha":694,"x_min":331,"x_max":1042,"o":"m 331 1039 l 331 1110 l 1042 1110 l 1042 1039 l 331 1039 z "},"":{"ha":966,"x_min":107,"x_max":819,"o":"m 635 725 l 724 815 l 819 718 l 730 629 q 779 458 779 546 q 730 288 779 368 l 819 200 l 724 104 l 635 192 q 463 142 555 142 q 292 192 373 142 l 204 104 l 107 200 l 196 288 q 158 372 170 332 q 146 458 146 412 q 157 544 146 505 q 196 629 169 583 l 107 718 l 201 815 l 292 725 q 463 775 376 775 q 635 725 549 775 m 282 458 q 335 330 282 383 q 463 277 387 277 q 592 330 539 277 q 644 458 644 383 q 620 549 644 508 q 554 614 596 590 q 463 639 513 639 q 335 586 388 639 q 282 458 282 533 z "}}}
